SplineFontDB: 3.2
FontName: linjaKita
FullName: linja Kita
FamilyName: linja Kita
Weight: Regular
Copyright: Copyright (c) 2024, jan Kita. jan Ke Tami li pana e ijo namako.
UComments: "2024-6-2: Created with FontForge (http://fontforge.org)"
Version: 001.000
ItalicAngle: 0
UnderlinePosition: -10000
UnderlineWidth: 5000
Ascent: 800
Descent: 400
InvalidEm: 0
LayerCount: 2
Layer: 0 0 "Hinten" 1
Layer: 1 0 "Vorne" 0
XUID: [1021 572 -2013945090 869]
StyleMap: 0x0000
FSType: 0
OS2Version: 0
OS2_WeightWidthSlopeOnly: 0
OS2_UseTypoMetrics: 1
CreationTime: 1717356242
ModificationTime: 1717398525
OS2TypoAscent: 0
OS2TypoAOffset: 1
OS2TypoDescent: 0
OS2TypoDOffset: 1
OS2TypoLinegap: 108
OS2WinAscent: 0
OS2WinAOffset: 1
OS2WinDescent: 0
OS2WinDOffset: 1
HheadAscent: 0
HheadAOffset: 1
HheadDescent: 0
HheadDOffset: 1
OS2Vendor: 'PfEd'
Lookup: 4 0 1 "'liga' Standard-Ligaturen in Lateinisch Nachschlagetabelle 0" { "'liga' Standard-Ligaturen in Lateinisch Nachschlagetabelle 0-1"  } ['liga' ('DFLT' <'dflt' > 'latn' <'dflt' > ) ]
Lookup: 4 0 1 "'liga' Standard-Ligaturen in Lateinisch Nachschlagetabelle 1" { "'liga' Standard-Ligaturen in Lateinisch Nachschlagetabelle 1-1"  } ['liga' ('DFLT' <'dflt' > 'latn' <'dflt' > ) ]
MarkAttachClasses: 1
DEI: 91125
LangName: 1033 "" "" "" "" "" "" "" "" "" "" "" "" "" "CC0" "https://creativecommons.org/publicdomain/zero/1.0/"
Encoding: Custom
UnicodeInterp: none
NameList: AGL For New Fonts
DisplaySize: -48
AntiAlias: 1
FitToEm: 0
WinInfo: 128 16 10
BeginPrivate: 0
EndPrivate
BeginChars: 276 275

StartChar: tok.a
Encoding: 0 989440 0
Width: 1200
VWidth: 20600
Flags: W
HStem: -300 200<368.493 535.107 834.241 1067.15> 0 700<932.853 1067.15> 200 200<368.493 531.507>
VStem: 100 200<-31.5065 131.507> 600 200<-34.737 131.507> 900 200<32.8529 667.147>
LayerCount: 2
Fore
SplineSet
450 200 m 0xbc
 366 200 300 134 300 50 c 0
 300 -34 366 -100 450 -100 c 0
 534 -100 600 -34 600 50 c 0
 600 134 534 200 450 200 c 0xbc
450 400 m 0
 642 400 800 242 800 50 c 0
 800 39 799 27 798 16 c 0
 799 11 800 5 800 0 c 0xdc
 800 -27 810 -52 829 -71 c 0
 848 -90 873 -100 900 -100 c 2
 1000 -100 l 2
 1055 -100 1100 -145 1100 -200 c 0
 1100 -255 1055 -300 1000 -300 c 2
 900 -300 l 2
 821 -300 744 -268 688 -212 c 0
 687 -211 686 -210 685 -209 c 0
 623 -266 540 -300 450 -300 c 0
 258 -300 100 -142 100 50 c 0
 100 242 258 400 450 400 c 0
1000 700 m 0
 1055 700 1100 655 1100 600 c 2
 1100 100 l 2
 1100 45 1055 0 1000 0 c 0
 945 0 900 45 900 100 c 2
 900 600 l 2
 900 655 945 700 1000 700 c 0
EndSplineSet
Validated: 1
Ligature2: "'liga' Standard-Ligaturen in Lateinisch Nachschlagetabelle 0-1" a
EndChar

StartChar: tok.akesi
Encoding: 1 989441 1
Width: 1200
VWidth: 20600
Flags: W
HStem: -297.75 189.5<531.375 668.625> -3 200<132.853 305 495 705 895 1067.15> 303 189<531.409 668.591> 497 200<332.853 467.147 732.853 867.147>
VStem: 300 200<-75.0463 -3 197 269.185 529.853 664.147> 700 200<-75.0463 -3 197 269.185 529.853 664.147>
LayerCount: 2
Fore
SplineSet
495 -3 m 1
 495 -41 514 -75 547 -94 c 0
 563.5 -103.5 581.75 -108.25 600 -108.25 c 0
 618.25 -108.25 636.5 -103.5 653 -94 c 0
 686 -75 705 -41 705 -3 c 1
 495 -3 l 1
600 303 m 0
 582 303 563 297 547 288 c 0
 514 269 495 235 495 197 c 1
 705 197 l 1
 705 235 686 269 653 288 c 0
 637 297 618 303 600 303 c 0
600 492 m 0
 651 492 701 479 747 453 c 0
 838 400 895 302 895 197 c 1
 1000 197 l 2
 1055 197 1100 152 1100 97 c 0
 1100 42 1055 -3 1000 -3 c 2
 895 -3 l 1
 895 -108 838 -205 747 -258 c 0
 701.5 -284.5 650.75 -297.75 600 -297.75 c 0
 549.25 -297.75 498.5 -284.5 453 -258 c 0
 362 -205 305 -108 305 -3 c 1
 200 -3 l 2
 145 -3 100 42 100 97 c 0
 100 152 145 197 200 197 c 2
 305 197 l 1
 305 302 362 400 453 453 c 0
 499 479 549 492 600 492 c 0
800 697 m 0
 855 697 900 652 900 597 c 0
 900 542 855 497 800 497 c 0
 745 497 700 542 700 597 c 0
 700 652 745 697 800 697 c 0
400 697 m 0
 455 697 500 652 500 597 c 0
 500 542 455 497 400 497 c 0
 345 497 300 542 300 597 c 0
 300 652 345 697 400 697 c 0
EndSplineSet
Validated: 1
LCarets2: 4 23408 23408 23408 23408
Ligature2: "'liga' Standard-Ligaturen in Lateinisch Nachschlagetabelle 0-1" a k e s i
EndChar

StartChar: tok.ala
Encoding: 2 989442 2
Width: 1200
VWidth: 20400
Flags: W
LayerCount: 2
Fore
SplineSet
200 700 m 0
 227 700 252 690 271 671 c 2
 600 341 l 1
 929 671 l 2
 948 690 973 700 1000 700 c 0
 1027 700 1052 690 1071 671 c 0
 1090.5 651.5 1100.25 625.75 1100.25 600 c 0
 1100.25 574.25 1090.5 548.5 1071 529 c 2
 741 200 l 1
 1071 -129 l 2
 1090.5 -148.5 1100.25 -174.25 1100.25 -200 c 0
 1100.25 -225.75 1090.5 -251.5 1071 -271 c 0
 1051.5 -290.5 1025.75 -300.25 1000 -300.25 c 0
 974.25 -300.25 948.5 -290.5 929 -271 c 2
 600 59 l 1
 271 -271 l 2
 251.5 -290.5 225.75 -300.25 200 -300.25 c 0
 174.25 -300.25 148.5 -290.5 129 -271 c 0
 109.5 -251.5 99.75 -225.75 99.75 -200 c 0
 99.75 -174.25 109.5 -148.5 129 -129 c 2
 459 200 l 1
 129 529 l 2
 109.5 548.5 99.75 574.25 99.75 600 c 0
 99.75 625.75 109.5 651.5 129 671 c 0
 148 690 173 700 200 700 c 0
EndSplineSet
Validated: 1
Ligature2: "'liga' Standard-Ligaturen in Lateinisch Nachschlagetabelle 0-1" a l a
EndChar

StartChar: tok.alasa
Encoding: 3 989443 3
Width: 1200
VWidth: 20800
Flags: W
HStem: -300 200<400 620.22> 100 200<132.853 200 400 783 985.143 1067.15> 500 200<400 620.22>
VStem: 200 200<-100 100 300 500>
CounterMasks: 1 e0
LayerCount: 2
Fore
SplineSet
400 100 m 1
 400 -100 l 1
 500 -100 l 2
 632 -100 742 -17 783 100 c 1
 400 100 l 1
400 500 m 1
 400 300 l 1
 783 300 l 1
 742 417 632 500 500 500 c 2
 400 500 l 1
300 700 m 2
 500 700 l 2
 741 700 943 527 990 300 c 2
 1000 300 l 2
 1055 300 1100 255 1100 200 c 0
 1100 145 1055 100 1000 100 c 2
 990 100 l 2
 943 -127 741 -300 500 -300 c 2
 300 -300 l 2
 245 -300 200 -255 200 -200 c 2
 200 100 l 1
 145 100 100 145 100 200 c 0
 100 255 145 300 200 300 c 1
 200 600 l 2
 200 655 245 700 300 700 c 2
EndSplineSet
Validated: 1
LCarets2: 4 0 0 0 0
Ligature2: "'liga' Standard-Ligaturen in Lateinisch Nachschlagetabelle 0-1" a l a s a
EndChar

StartChar: tok.ale
Encoding: 4 989444 4
Width: 1200
VWidth: 20700
Flags: W
HStem: -299.704 199.59<333.847 466.833> 100 200<333.447 500 700 866.553> 500.068 200.023<733.482 865.155>
VStem: 100.296 199.59<-66.1526 66.8331> 500 200<-66.553 100 300 466.553> 900.115 199.59<333.167 466.153>
LayerCount: 2
Fore
SplineSet
400 100 m 2
 359 100 324 76 308 38 c 0
 302.550669793 25.0578407579 299.885264558 11.6516940204 299.885264558 -1.54682836455 c 0
 299.885264558 -27.1010242276 309.876911001 -51.8769110005 329 -71 c 0
 348.123088999 -90.1230889995 372.898975772 -100.114735442 398.453171635 -100.114735442 c 0
 411.65169402 -100.114735442 425.057840758 -97.4493302072 438 -92 c 0
 476 -76 500 -41 500 0 c 2
 500 100 l 1
 400 100 l 2
798 500 m 0
 786 500 774 497 762 492 c 0
 724 476 700 441 700 400 c 2
 700 300 l 1
 800 300 l 2
 841 300 876 324 892 362 c 0
 897.449330207 374.942159242 900.114735442 388.34830598 900.114735442 401.546828365 c 0
 900.114735442 427.101024228 890.123088999 451.876911001 871 471 c 0
 851.910976998 490.089023002 827.356092008 500.068276025 801.682760248 500.068276025 c 0
 800.457563197 500.068276025 799.229818947 500.04554885 798 500 c 0
793 700 m 0
 795.429833419 700.060745835 797.859666838 700.091048705 800.288911849 700.091048705 c 0
 877.840294041 700.091048705 954.792002146 669.207997854 1012 612 c 0
 1069.47453131 554.52546869 1099.704251 477.845578372 1099.704251 399.86977752 c 0
 1099.704251 361.169222421 1092.25780883 322.149447596 1077 285 c 0
 1031 173 921 100 800 100 c 2
 700 100 l 1
 700 0 l 2
 700 -121 627 -231 515 -277 c 0
 477.850552404 -292.257808834 438.830777579 -299.704251005 400.13022248 -299.704251005 c 0
 322.154421628 -299.704251005 245.47453131 -269.47453131 188 -212 c 0
 130.52546869 -154.52546869 100.295748995 -77.8455783719 100.295748995 0.130222479812 c 0
 100.295748995 38.8307775787 107.742191166 77.850552404 123 115 c 0
 169 227 279 300 400 300 c 2
 500 300 l 1
 500 400 l 2
 500 521 573 631 685 677 c 0
 720 691 756 699 793 700 c 0
EndSplineSet
Validated: 1
LCarets2: 2 0 0
Ligature2: "'liga' Standard-Ligaturen in Lateinisch Nachschlagetabelle 0-1" a l e
EndChar

StartChar: tok.anpa
Encoding: 5 989445 5
Width: 1200
VWidth: 20800
Flags: W
HStem: -300 200<432.853 767.147> 0 200<300 900>
VStem: 100 200<200 667.147> 400 400<-267.147 -132.853> 900 200<200 667.147>
CounterMasks: 1 38
LayerCount: 2
Fore
SplineSet
500 -100 m 2
 700 -100 l 2
 755 -100 800 -145 800 -200 c 0
 800 -255 755 -300 700 -300 c 2
 500 -300 l 2
 445 -300 400 -255 400 -200 c 0
 400 -145 445 -100 500 -100 c 2
200 700 m 0
 255 700 300 655 300 600 c 2
 300 200 l 1
 900 200 l 1
 900 600 l 2
 900 655 945 700 1000 700 c 0
 1055 700 1100 655 1100 600 c 2
 1100 100 l 2
 1100 45 1055 0 1000 0 c 2
 200 0 l 2
 145 0 100 45 100 100 c 2
 100 600 l 2
 100 655 145 700 200 700 c 0
EndSplineSet
Validated: 1
LCarets2: 3 0 0 0
Ligature2: "'liga' Standard-Ligaturen in Lateinisch Nachschlagetabelle 0-1" a n p a
EndChar

StartChar: tok.ante
Encoding: 6 989446 6
Width: 1200
VWidth: 20400
Flags: W
HStem: -299.788 599.38<942.5 1066.92> 100.396 599.604<133.834 257.5>
VStem: 100 200<362 667.147> 900 200<-267.147 38>
LayerCount: 2
Fore
SplineSet
1012 299 m 0xb0
 1062 293 1100 251 1100 200 c 2
 1100 -200 l 2
 1100 -255 1055 -300 1000 -300 c 0
 945 -300 900 -255 900 -200 c 2
 900 38 l 1
 245 -289 l 2
 230.640821771 -296.326111341 215.337017972 -299.787845351 200.246188154 -299.787845351 c 0
 163.840292375 -299.787845351 128.673888659 -279.640821771 111 -245 c 0
 103.673888659 -230.640821771 100.212154649 -215.337017972 100.212154649 -200.246188154 c 0
 100.212154649 -163.840292375 120.359178229 -128.673888659 155 -111 c 2
 955 289 l 2
 968.665408814 296.234628196 984.915501338 299.592230826 1000.63373996 299.592230826 c 0
 1004.46925639 299.592230826 1008.27310397 299.392304845 1012 299 c 0xb0
200 700 m 0x70
 255 700 300 655 300 600 c 2
 300 362 l 1
 955 689 l 2
 969.359178229 696.326111341 984.662982028 699.787845351 999.753811846 699.787845351 c 0
 1036.15970763 699.787845351 1071.32611134 679.640821771 1089 645 c 0
 1096.32611134 630.640821771 1099.78784535 615.337017972 1099.78784535 600.246188154 c 0
 1099.78784535 563.840292375 1079.64082177 528.673888659 1045 511 c 2
 245 111 l 2
 230.249302656 103.734731159 214.965432269 100.395554731 200.098125614 100.395554731 c 0
 147.435774335 100.395554731 100 142.291814976 100 200 c 2
 100 600 l 2
 100 655 145 700 200 700 c 0x70
EndSplineSet
Validated: 1
LCarets2: 3 0 0 0
Ligature2: "'liga' Standard-Ligaturen in Lateinisch Nachschlagetabelle 0-1" a n t e
EndChar

StartChar: tok.anu
Encoding: 7 989447 7
Width: 1200
VWidth: 20400
Flags: W
VStem: 500 200<-267.147 159>
LayerCount: 2
Fore
SplineSet
189 699 m 0
 192.492819978 699.349281998 195.99919528 699.522344787 199.501765593 699.522344787 c 0
 226.082941383 699.522344787 252.444973985 689.555026015 271 671 c 2
 600 341 l 1
 929 671 l 2
 948.5 690.5 974.25 700.25 1000 700.25 c 0
 1025.75 700.25 1051.5 690.5 1071 671 c 0
 1090.5 651.5 1100.25 625.75 1100.25 600 c 0
 1100.25 574.25 1090.5 548.5 1071 529 c 2
 700 159 l 1
 700 -200 l 2
 700 -255 655 -300 600 -300 c 0
 545 -300 500 -255 500 -200 c 2
 500 159 l 1
 129 529 l 2
 109.5 548.5 99.75 574.25 99.75 600 c 0
 99.75 625.75 109.5 651.5 129 671 c 0
 145 687 166 696 189 699 c 0
EndSplineSet
Validated: 1
Ligature2: "'liga' Standard-Ligaturen in Lateinisch Nachschlagetabelle 0-1" a n u
EndChar

StartChar: tok.awen
Encoding: 8 989448 8
Width: 1200
VWidth: 20600
Flags: W
HStem: -300 200<132.853 322 878 1067.15>
LayerCount: 2
Fore
SplineSet
600 700 m 0
 646 700 686 669 697 624 c 2
 878 -100 l 1
 1000 -100 l 2
 1055 -100 1100 -145 1100 -200 c 0
 1100 -255 1055 -300 1000 -300 c 2
 800 -300 l 2
 754 -300 714 -269 703 -224 c 2
 600 188 l 1
 497 -224 l 2
 486 -269 446 -300 400 -300 c 2
 200 -300 l 2
 145 -300 100 -255 100 -200 c 0
 100 -145 145 -100 200 -100 c 2
 322 -100 l 1
 503 624 l 2
 514 669 554 700 600 700 c 0
EndSplineSet
Validated: 1
Ligature2: "'liga' Standard-Ligaturen in Lateinisch Nachschlagetabelle 0-1" a w e n
EndChar

StartChar: tok.e
Encoding: 9 989449 9
Width: 1200
VWidth: 20800
Flags: W
LayerCount: 2
Fore
SplineSet
600 700 m 0
 627 700 652 690 671 671 c 2
 1071 271 l 2
 1090.5 251.5 1100.25 225.75 1100.25 200 c 0
 1100.25 174.25 1090.5 148.5 1071 129 c 2
 671 -271 l 2
 651.5 -290.5 625.75 -300.25 600 -300.25 c 0
 574.25 -300.25 548.5 -290.5 529 -271 c 0
 509.5 -251.5 499.75 -225.75 499.75 -200 c 0
 499.75 -174.25 509.5 -148.5 529 -129 c 2
 859 200 l 1
 529 529 l 2
 509.5 548.5 499.75 574.25 499.75 600 c 0
 499.75 625.75 509.5 651.5 529 671 c 0
 548 690 573 700 600 700 c 0
200 700 m 0
 227 700 252 690 271 671 c 2
 671 271 l 2
 690.5 251.5 700.25 225.75 700.25 200 c 0
 700.25 174.25 690.5 148.5 671 129 c 2
 271 -271 l 2
 251.5 -290.5 225.75 -300.25 200 -300.25 c 0
 174.25 -300.25 148.5 -290.5 129 -271 c 0
 109.5 -251.5 99.75 -225.75 99.75 -200 c 0
 99.75 -174.25 109.5 -148.5 129 -129 c 2
 459 200 l 1
 129 529 l 2
 109.5 548.5 99.75 574.25 99.75 600 c 0
 99.75 625.75 109.5 651.5 129 671 c 0
 148 690 173 700 200 700 c 0
EndSplineSet
Validated: 1
Ligature2: "'liga' Standard-Ligaturen in Lateinisch Nachschlagetabelle 0-1" e
EndChar

StartChar: tok.en
Encoding: 10 989450 10
Width: 1200
VWidth: 20800
Flags: W
HStem: 100 200<132.853 500 700 1067.15>
VStem: 500 200<-267.147 100 300 667.147>
LayerCount: 2
Fore
SplineSet
600 700 m 0
 655 700 700 655 700 600 c 2
 700 300 l 1
 1000 300 l 2
 1055 300 1100 255 1100 200 c 0
 1100 145 1055 100 1000 100 c 2
 700 100 l 1
 700 -200 l 2
 700 -255 655 -300 600 -300 c 0
 545 -300 500 -255 500 -200 c 2
 500 100 l 1
 200 100 l 2
 145 100 100 145 100 200 c 0
 100 255 145 300 200 300 c 2
 500 300 l 1
 500 600 l 2
 500 655 545 700 600 700 c 0
EndSplineSet
Validated: 1
Ligature2: "'liga' Standard-Ligaturen in Lateinisch Nachschlagetabelle 0-1" e n
EndChar

StartChar: tok.esun
Encoding: 11 989451 11
Width: 1200
VWidth: 20800
Flags: W
HStem: -300 200<306.025 492.365> -100 200<700 867.226> 0 200<306.025 500> 200 200<700 893.975> 300 200<332.774 500> 500 200<707.635 893.975>
VStem: 100 200<-94.1099 -5.89013 532.774 667.147> 900 200<-267.147 -132.774 405.89 494.11>
LayerCount: 2
Fore
SplineSet
350 0 m 2xa3
 321 0 300 -21 300 -50 c 0
 300 -79 321 -100 350 -100 c 2
 450 -100 l 2
 479 -100 500 -79 500 -50 c 2
 500 0 l 1
 350 0 l 2xa3
750 500 m 2x17
 721 500 700 479 700 450 c 2
 700 400 l 1
 850 400 l 2
 879 400 900 421 900 450 c 0
 900 479 879 500 850 500 c 2
 750 500 l 2x17
200 700 m 0
 255 700 300 655 300 600 c 0
 300 544 344 500 400 500 c 2x0b
 521 500 l 2
 547 610 633 700 750 700 c 2
 850 700 l 2
 987 700 1100 587 1100 450 c 0
 1100 313 987 200 850 200 c 2
 700 200 l 1
 700 100 l 1
 800 100 l 2x57
 964 100 1100 -36 1100 -200 c 0
 1100 -255 1055 -300 1000 -300 c 0x83
 945 -300 900 -255 900 -200 c 0
 900 -144 856 -100 800 -100 c 2
 679 -100 l 2x43
 653 -210 567 -300 450 -300 c 2
 350 -300 l 2
 213 -300 100 -187 100 -50 c 0
 100 87 213 200 350 200 c 2
 500 200 l 1
 500 300 l 1
 400 300 l 2xab
 236 300 100 436 100 600 c 0
 100 655 145 700 200 700 c 0
EndSplineSet
Validated: 1
Ligature2: "'liga' Standard-Ligaturen in Lateinisch Nachschlagetabelle 0-1" e s u n
EndChar

StartChar: tok.ijo
Encoding: 12 989452 12
Width: 1200
VWidth: 20800
Flags: W
HStem: -300 200<481.706 718.294> 500 200<481.706 718.294>
VStem: 100 200<81.7057 318.294> 900 200<81.7057 318.294>
LayerCount: 2
Fore
SplineSet
600 500 m 0
 433 500 300 367 300 200 c 0
 300 33 433 -100 600 -100 c 0
 767 -100 900 33 900 200 c 0
 900 367 767 500 600 500 c 0
600 700 m 0
 875 700 1100 475 1100 200 c 0
 1100 -75 875 -300 600 -300 c 0
 325 -300 100 -75 100 200 c 0
 100 475 325 700 600 700 c 0
EndSplineSet
Validated: 1
Ligature2: "'liga' Standard-Ligaturen in Lateinisch Nachschlagetabelle 0-1" i j o
EndChar

StartChar: tok.ike
Encoding: 13 989453 13
Width: 1200
VWidth: 20600
Flags: W
HStem: 300.5 199.5<479.239 720.761>
VStem: 100 200<-67.1471 119.523> 900 200<-67.1471 119.523>
LayerCount: 2
Fore
SplineSet
600 500 m 0
 686 500 773 478 850 433 c 0
 1005 344 1100 179 1100 0 c 0
 1100 -55 1055 -100 1000 -100 c 0
 945 -100 900 -55 900 0 c 0
 900 107 843 206 750 260 c 0
 703.5 287 651.75 300.5 600 300.5 c 0
 548.25 300.5 496.5 287 450 260 c 0
 357 206 300 107 300 0 c 0
 300 -55 255 -100 200 -100 c 0
 145 -100 100 -55 100 0 c 0
 100 179 195 344 350 433 c 0
 427 478 514 500 600 500 c 0
EndSplineSet
Validated: 1
Ligature2: "'liga' Standard-Ligaturen in Lateinisch Nachschlagetabelle 0-1" i k e
EndChar

StartChar: tok.ilo
Encoding: 14 989454 14
Width: 1200
VWidth: 20500
Flags: W
HStem: 100 200<300 500 700 900> 500 200<300 500 700 900>
VStem: 100 200<300 500> 500 200<-267.147 100 300 500> 900 200<300 500>
CounterMasks: 1 38
LayerCount: 2
Fore
SplineSet
700 500 m 1
 700 300 l 1
 900 300 l 1
 900 500 l 1
 700 500 l 1
300 500 m 1
 300 300 l 1
 500 300 l 1
 500 500 l 1
 300 500 l 1
200 700 m 2
 1000 700 l 2
 1055 700 1100 655 1100 600 c 2
 1100 200 l 2
 1100 145 1055 100 1000 100 c 2
 700 100 l 1
 700 -200 l 2
 700 -255 655 -300 600 -300 c 0
 545 -300 500 -255 500 -200 c 2
 500 100 l 1
 200 100 l 2
 145 100 100 145 100 200 c 2
 100 600 l 2
 100 655 145 700 200 700 c 2
EndSplineSet
Validated: 1
Ligature2: "'liga' Standard-Ligaturen in Lateinisch Nachschlagetabelle 0-1" i l o
EndChar

StartChar: tok.insa
Encoding: 15 989455 15
Width: 1200
VWidth: 20800
Flags: W
HStem: -300 200<300 900> 0 200<432.853 767.147>
VStem: 100 200<-100 667.147> 400 400<32.8529 167.147> 900 200<-100 667.147>
CounterMasks: 1 38
LayerCount: 2
Fore
SplineSet
500 200 m 2
 700 200 l 2
 755 200 800 155 800 100 c 0
 800 45 755 0 700 0 c 2
 500 0 l 2
 445 0 400 45 400 100 c 0
 400 155 445 200 500 200 c 2
200 700 m 0
 255 700 300 655 300 600 c 2
 300 -100 l 1
 900 -100 l 1
 900 600 l 2
 900 655 945 700 1000 700 c 0
 1055 700 1100 655 1100 600 c 2
 1100 -200 l 2
 1100 -255 1055 -300 1000 -300 c 2
 200 -300 l 2
 145 -300 100 -255 100 -200 c 2
 100 600 l 2
 100 655 145 700 200 700 c 0
EndSplineSet
Validated: 1
Ligature2: "'liga' Standard-Ligaturen in Lateinisch Nachschlagetabelle 0-1" i n s a
EndChar

StartChar: tok.jaki
Encoding: 16 989456 16
Width: 1200
VWidth: 21600
Flags: W
HStem: 0.554788 21G<582.942 607.627>
LayerCount: 2
Fore
SplineSet
762 500 m 1
 845 334 l 1
 878 351 l 1
 828 500 l 1
 762 500 l 1
296 700 m 0
 296.929671836 700.025126266 297.857449685 700.037625947 298.783143191 700.037625947 c 0
 334.699116139 700.037625947 367.477399051 681.221085759 386 651 c 2
 638 231 l 1
 666 245 l 1
 511 555 l 2
 503.734731159 569.750697344 500.395554731 585.034567731 500.395554731 599.901874386 c 0
 500.395554731 652.564225665 542.291814976 700 600 700 c 2
 900 700 l 2
 943 700 981 673 995 632 c 2
 1095 332 l 2
 1098.6019076 321.419396424 1100.32870458 310.585399521 1100.32870458 299.897315257 c 0
 1100.32870458 263.107960563 1079.86963487 228.04737705 1045 211 c 2
 969 173 l 1
 1071 71 l 2
 1090.98252743 51.0174725704 1100.37228409 25.6618005477 1100.37228409 0.58715024354 c 0
 1100.37228409 -38.3344666922 1077.74844436 -76.5789851098 1037 -93 c 2
 537 -293 l 2
 525.309793265 -297.782357301 512.772514628 -300.023498896 500.288386422 -300.023498896 c 0
 489.278420232 -300.023498896 478.309793265 -298.280388766 468 -295 c 2
 168 -195 l 2
 125.605418114 -181.112119727 100.307631218 -141.579046969 100.307631218 -100.222710599 c 0
 100.307631218 -84.9994699865 103.735408809 -69.529182382 111 -55 c 2
 211 145 l 2
 228.673888659 179.640821771 263.840292375 199.787845351 300.246188154 199.787845351 c 0
 315.337017972 199.787845351 330.640821771 196.326111341 345 189 c 0
 379.640821771 171.326111341 399.787845351 136.159707625 399.787845351 99.753811846 c 0
 399.787845351 84.6629820284 396.326111341 69.3591782292 389 55 c 2
 341 -42 l 1
 497 -94 l 1
 822 37 l 1
 780 78 l 1
 645 11 l 2
 630.573295698 3.94012342682 615.204401279 0.554788312832 600.050142122 0.554788312832 c 0
 565.834138643 0.554788312832 532.712318805 17.812801991 514 49 c 2
 308 392 l 1
 289 355 l 2
 271.326111341 320.359178229 236.159707625 300.212154649 199.753811846 300.212154649 c 0
 184.662982028 300.212154649 169.359178229 303.673888659 155 311 c 0
 120.359178229 328.673888659 100.212154649 363.840292375 100.212154649 400.246188154 c 0
 100.212154649 415.337017972 103.673888659 430.640821771 111 445 c 2
 211 645 l 2
 227 678 260 699 296 700 c 0
EndSplineSet
Validated: 1
Ligature2: "'liga' Standard-Ligaturen in Lateinisch Nachschlagetabelle 0-1" j a k i
EndChar

StartChar: tok.jan
Encoding: 17 989457 17
Width: 1200
VWidth: 21800
Flags: W
HStem: -100 200<500.541 699.459> 500 200<500.051 699.949>
VStem: 200 200<200.38 399.949> 800 200<200.38 399.949>
LayerCount: 2
Fore
SplineSet
600 500 m 0
 488 500 400 412 400 300 c 0
 400 188 488 100 600 100 c 0
 712 100 800 188 800 300 c 0
 800 412 712 500 600 500 c 0
600 700 m 0
 820 700 1000 520 1000 300 c 0
 1000 201 963 109 902 39 c 2
 1071 -129 l 2
 1090.5 -148.5 1100.25 -174.25 1100.25 -200 c 0
 1100.25 -225.75 1090.5 -251.5 1071 -271 c 0
 1051.5 -290.5 1025.75 -300.25 1000 -300.25 c 0
 974.25 -300.25 948.5 -290.5 929 -271 c 2
 735 -76 l 2
 693 -91 647 -100 600 -100 c 0
 553 -100 507 -91 465 -76 c 2
 271 -271 l 2
 251.5 -290.5 225.75 -300.25 200 -300.25 c 0
 174.25 -300.25 148.5 -290.5 129 -271 c 0
 109.5 -251.5 99.75 -225.75 99.75 -200 c 0
 99.75 -174.25 109.5 -148.5 129 -129 c 2
 298 39 l 2
 237 109 200 201 200 300 c 0
 200 520 380 700 600 700 c 0
EndSplineSet
Validated: 1
Ligature2: "'liga' Standard-Ligaturen in Lateinisch Nachschlagetabelle 0-1" j a n
EndChar

StartChar: tok.jelo
Encoding: 18 989458 18
Width: 1200
VWidth: 22000
Flags: W
HStem: -300 200<441 759> 300 200<132.853 325.682 874.318 1067.15> 500 200<533.858 666.142>
VStem: 100 400<333.548 466.452> 700 400<333.548 466.452>
LayerCount: 2
Fore
SplineSet
600 59 m 1x98
 441 -100 l 1
 759 -100 l 1
 600 59 l 1x98
600 500 m 0xb8
 544 500 500 456 500 400 c 0
 500 344 544 300 600 300 c 0xd8
 656 300 700 344 700 400 c 0
 700 456 656 500 600 500 c 0xb8
600 700 m 0xb8
 729 700 841 616 883 500 c 2
 1000 500 l 2
 1055 500 1100 455 1100 400 c 0
 1100 345 1055 300 1000 300 c 2
 883 300 l 2
 863 244 826 196 780 161 c 1
 1071 -129 l 2
 1091.31620193 -149.316201933 1100.40116411 -174.312087097 1100.40116411 -198.856710661 c 0
 1100.40116411 -250.42430973 1060.29933378 -300 1000 -300 c 2
 200 -300 l 2
 139.700666223 -300 99.5988358887 -250.42430973 99.5988358887 -198.856710661 c 0
 99.5988358887 -174.312087097 108.683798067 -149.316201933 129 -129 c 2
 420 161 l 1
 374 196 337 244 317 300 c 2
 200 300 l 2
 145 300 100 345 100 400 c 0
 100 455 145 500 200 500 c 2
 317 500 l 2xd8
 359 616 471 700 600 700 c 0xb8
EndSplineSet
Validated: 1
Ligature2: "'liga' Standard-Ligaturen in Lateinisch Nachschlagetabelle 0-1" j e l o
EndChar

StartChar: tok.kalama
Encoding: 21 989461 19
Width: 1200
VWidth: 21600
Flags: W
HStem: -299.75 199.25<479.277 720.723> 100 200<327 873> 400 200<232.853 367.147 832.853 967.147> 500 200<532.853 667.147>
VStem: 100 1000<101.198 267.147> 200 200<432.853 567.147> 500 200<532.853 667.147> 800 200<432.853 567.147>
LayerCount: 2
Fore
SplineSet
327 100 m 1xc0
 351 35 388 -24 450 -60 c 0
 496.5 -87 548.25 -100.5 600 -100.5 c 0
 651.75 -100.5 703.5 -87 750 -60 c 0
 812 -24 849 35 873 100 c 1
 327 100 l 1xc0
200 300 m 2xc4
 1000 300 l 2xc5
 1055 300 1100 255 1100 200 c 0
 1100 21 1005 -144 850 -233 c 0
 772.5 -277.5 686.25 -299.75 600 -299.75 c 0
 513.75 -299.75 427.5 -277.5 350 -233 c 0
 195 -144 100 21 100 200 c 0xc8
 100 255 145 300 200 300 c 2xc4
900 600 m 0xe1
 955 600 1000 555 1000 500 c 0xd1
 1000 445 955 400 900 400 c 0xe1
 845 400 800 445 800 500 c 0xd1
 800 555 845 600 900 600 c 0xe1
300 600 m 0xe4
 355 600 400 555 400 500 c 0xd4
 400 445 355 400 300 400 c 0xe4
 245 400 200 445 200 500 c 0xd4
 200 555 245 600 300 600 c 0xe4
600 700 m 0
 655 700 700 655 700 600 c 0xe2
 700 545 655 500 600 500 c 0xd2
 545 500 500 545 500 600 c 0xe2
 500 655 545 700 600 700 c 0
EndSplineSet
Validated: 1
Ligature2: "'liga' Standard-Ligaturen in Lateinisch Nachschlagetabelle 0-1" k a l a m a
EndChar

StartChar: tok.jo
Encoding: 19 989459 20
Width: 1200
VWidth: 22000
Flags: W
HStem: -300 200<334.241 867.226> 100 200<332.704 467.385> 500 200<332.615 467.385>
VStem: 100 200<-65.7589 117 332.456 467.226> 500 200<332.615 467.385> 699.75 400.25<159.898 267.272> 900 200<-67.226 159>
CounterMasks: 1 e0
LayerCount: 2
Fore
SplineSet
400 500 m 0xf8
 344 500 300 456 300 400 c 0
 300 344 344 300 400 300 c 0
 456 300 500 344 500 400 c 0
 500 456 456 500 400 500 c 0xf8
400 700 m 0
 564 700 700 564 700 400 c 0
 700 236 564 100 400 100 c 0
 365 100 331 106 300 117 c 1
 300 0 l 2
 300 -27 310 -52 329 -71 c 0
 348 -90 373 -100 400 -100 c 2
 800 -100 l 2
 856 -100 900 -56 900 0 c 2
 900 159 l 1xfa
 871 129 l 2
 851.5 109.5 825.75 99.75 800 99.75 c 0
 774.25 99.75 748.5 109.5 729 129 c 0
 709.5 148.5 699.75 174.25 699.75 200 c 0xf4
 699.75 225.75 709.5 251.5 729 271 c 0
 761 303 848 390 929 471 c 0
 931 473 933 474 935 475 c 0
 937 477 938 479 940 480 c 0
 944 483 949 486 953 488 c 0
 955 489 957 490 959 491 c 0
 964 493 968 495 973 496 c 0
 975 497 977 497 979 498 c 0
 986 499.5 993 500.25 1000 500.25 c 0
 1021 498 l 0
 1023 497 1025 497 1027 496 c 0
 1032 495 1036 493 1041 491 c 0
 1043 490 1045 489 1047 488 c 0
 1051 486 1056 483 1060 480 c 0
 1062 479 1063 477 1065 475 c 0
 1067 474 1069 473 1071 471 c 0
 1074 468 1076 465 1078 462 c 0
 1087 451 1094 438 1097 424 c 0
 1097 423 l 0
 1099 414 1100 406 1100 397 c 2
 1100 0 l 2xf2
 1100 -164 964 -300 800 -300 c 2
 400 -300 l 2
 321 -300 244 -268 188 -212 c 0
 132 -156 100 -79 100 0 c 2
 100 400 l 2
 100 564 236 700 400 700 c 0
EndSplineSet
Validated: 1
Ligature2: "'liga' Standard-Ligaturen in Lateinisch Nachschlagetabelle 0-1" j o
EndChar

StartChar: tok.kala
Encoding: 20 989460 21
Width: 1200
VWidth: 21600
Flags: W
HStem: -100 200<539.099 827.197> 300 200<539.099 827.197>
VStem: 102 200<-67.1471 23.4762 376.524 467.147> 906.25 191.75<160.206 239.794>
LayerCount: 2
Fore
SplineSet
702 300 m 0
 580 300 477 260 406 200 c 1
 477 140 580 100 702 100 c 0
 785 100 859 134 886 165 c 0
 899.5 180.5 906.25 190.25 906.25 200 c 0
 906.25 209.75 899.5 219.5 886 235 c 0
 859 266 785 300 702 300 c 0
202 500 m 0
 257 500 302 455 302 400 c 0
 302 392 303 383 304 375 c 1
 412 454 552 500 702 500 c 0
 833 500 958 458 1038 365 c 0
 1078 318.5 1098 259.25 1098 200 c 0
 1098 140.75 1078 81.5 1038 35 c 0
 958 -58 833 -100 702 -100 c 0
 552 -100 412 -54 304 25 c 1
 303 17 302 8 302 0 c 0
 302 -55 257 -100 202 -100 c 0
 147 -100 102 -55 102 0 c 0
 102 72 120 140 151 200 c 2
 120 260 102 328 102 400 c 0
 102 455 147 500 202 500 c 0
EndSplineSet
Validated: 5
Ligature2: "'liga' Standard-Ligaturen in Lateinisch Nachschlagetabelle 0-1" k a l a
EndChar

StartChar: tok.kama
Encoding: 22 989462 22
Width: 1200
VWidth: 21600
Flags: W
HStem: -300 200<132.853 322 732.853 838>
VStem: 700 399.604<-266.166 -142.5>
LayerCount: 2
Fore
SplineSet
589 699 m 0
 592.972379905 699.47290237 596.917923413 699.704277156 600.822247393 699.704277156 c 0
 638.198367646 699.704277156 671.797029005 678.500522464 689 645 c 2
 1089 -155 l 2
 1096.26526884 -169.750697344 1099.60444527 -185.034567731 1099.60444527 -199.901874386 c 0
 1099.60444527 -252.564225665 1057.70818502 -300 1000 -300 c 2
 800 -300 l 2
 745 -300 700 -255 700 -200 c 0
 700 -145 745 -100 800 -100 c 2
 838 -100 l 1
 631 313 l 1
 497 -224 l 2
 486 -269 446 -300 400 -300 c 2
 200 -300 l 2
 145 -300 100 -255 100 -200 c 0
 100 -145 145 -100 200 -100 c 2
 322 -100 l 1
 503 624 l 2
 513 665 547 694 589 699 c 0
EndSplineSet
Validated: 1
Ligature2: "'liga' Standard-Ligaturen in Lateinisch Nachschlagetabelle 0-1" k a m a
EndChar

StartChar: tok.kasi
Encoding: 23 989463 23
Width: 1200
VWidth: 22000
Flags: W
VStem: 500 200<-267.147 0 300 312>
LayerCount: 2
Fore
SplineSet
300 400 m 1
 300 288 388 200 500 200 c 1
 500 312 412 400 300 400 c 1
900 500 m 1
 788 500 700 412 700 300 c 1
 812 300 900 388 900 500 c 1
900 700 m 2
 1000 700 l 2
 1055 700 1100 655 1100 600 c 2
 1100 500 l 2
 1100 280 920 100 700 100 c 1
 700 -200 l 2
 700 -255 655 -300 600 -300 c 0
 545 -300 500 -255 500 -200 c 2
 500 0 l 1
 280 0 100 180 100 400 c 2
 100 500 l 2
 100 555 145 600 200 600 c 2
 300 600 l 2
 398 600 487 564 557 505 c 1
 627 621 755 700 900 700 c 2
EndSplineSet
Validated: 1
Ligature2: "'liga' Standard-Ligaturen in Lateinisch Nachschlagetabelle 0-1" k a s i
EndChar

StartChar: tok.ken
Encoding: 24 989464 24
Width: 1200
VWidth: 21700
Flags: W
VStem: 200 200<-267.147 100 300 667.147>
LayerCount: 2
Fore
SplineSet
300 700 m 0
 355 700 400 655 400 600 c 2
 400 300 l 1
 459 300 l 1
 829 671 l 2
 848.5 690.5 874.25 700.25 900 700.25 c 0
 925.75 700.25 951.5 690.5 971 671 c 0
 990.5 651.5 1000.25 625.75 1000.25 600 c 0
 1000.25 574.25 990.5 548.5 971 529 c 2
 641 200 l 1
 971 -129 l 2
 990.5 -148.5 1000.25 -174.25 1000.25 -200 c 0
 1000.25 -225.75 990.5 -251.5 971 -271 c 0
 951.5 -290.5 925.75 -300.25 900 -300.25 c 0
 874.25 -300.25 848.5 -290.5 829 -271 c 2
 459 100 l 1
 400 100 l 1
 400 -200 l 2
 400 -255 355 -300 300 -300 c 0
 245 -300 200 -255 200 -200 c 2
 200 600 l 2
 200 655 245 700 300 700 c 0
EndSplineSet
Validated: 1
Ligature2: "'liga' Standard-Ligaturen in Lateinisch Nachschlagetabelle 0-1" k e n
EndChar

StartChar: tok.kepeken
Encoding: 25 989465 25
Width: 1200
VWidth: 22000
Flags: W
HStem: 200 200<500 600 800 900> 500 200<500 600 800 900>
VStem: 300 200<400 500> 600 200<179.328 200 400 500> 900 200<-267.147 -102.802 400 500>
CounterMasks: 1 38
LayerCount: 2
Fore
SplineSet
800 500 m 1
 800 400 l 1
 900 400 l 1
 900 500 l 1
 800 500 l 1
500 500 m 1
 500 400 l 1
 600 400 l 1
 600 500 l 1
 500 500 l 1
400 700 m 2
 1000 700 l 2
 1055 700 1100 655 1100 600 c 2
 1100 300 l 2
 1100 245 1055 200 1000 200 c 2
 800 200 l 1
 800 187 l 2
 835 178 868 164 900 146 c 0
 1024 75 1100 -57 1100 -200 c 0
 1100 -255 1055 -300 1000 -300 c 0
 945 -300 900 -255 900 -200 c 0
 900 -128 862 -63 800 -27 c 0
 769 -9 734.5 0 700 0 c 0
 665.5 0 631 -9 600 -27 c 0
 539 -62 501 -127 500 -197 c 0
 500 -206 499 -215 497 -224 c 0
 497 -225 496 -226 496 -227 c 0
 491 -243 483 -259 471 -271 c 0
 465 -277 459 -281 452 -285 c 0
 450 -286 448 -287 446 -288 c 0
 441 -291 436 -293 431 -295 c 0
 428 -296 426 -296 423 -297 c 0
 415.5 -299 407.75 -300 400 -300 c 0
 392.25 -300 384.5 -299 377 -297 c 0
 374 -296 372 -296 369 -295 c 0
 364 -293 359 -291 354 -288 c 0
 352 -287 350 -286 348 -285 c 0
 341 -281 335 -277 329 -271 c 2
 129 -71 l 2
 109.5 -51.5 99.75 -25.75 99.75 0 c 0
 99.75 25.75 109.5 51.5 129 71 c 0
 148.5 90.5 174.25 100.25 200 100.25 c 0
 225.75 100.25 251.5 90.5 271 71 c 2
 349 -8 l 1
 384 55 435 109 500 146 c 0
 532 164 565 178 600 187 c 2
 600 200 l 1
 400 200 l 2
 345 200 300 245 300 300 c 2
 300 600 l 2
 300 655 345 700 400 700 c 2
EndSplineSet
Validated: 1
Ligature2: "'liga' Standard-Ligaturen in Lateinisch Nachschlagetabelle 0-1" k e p e k e n
EndChar

StartChar: tok.kili
Encoding: 26 989466 26
Width: 1200
VWidth: 21600
Flags: W
HStem: -299.75 199.25<479.277 720.723> 300 200<332.615 467.296 732.704 867.385>
VStem: 100 200<78.8614 267.385> 500 200<132.933 267.544 483 667.147> 900 200<78.8614 267.385>
CounterMasks: 1 38
LayerCount: 2
Fore
SplineSet
400 300 m 0
 344 300 300 256 300 200 c 0
 300 93 357 -6 450 -60 c 0
 496.5 -87 548.25 -100.5 600 -100.5 c 0
 651.75 -100.5 703.5 -87 750 -60 c 0
 843 -6 900 93 900 200 c 0
 900 256 856 300 800 300 c 0
 744 300 700 256 700 200 c 0
 700 153 668 113 622 103 c 0
 615 101 608 100 600 100 c 0
 545 100 500 145 500 200 c 0
 500 256 456 300 400 300 c 0
600 700 m 0
 655 700 700 655 700 600 c 2
 700 483 l 1
 731 494 765 500 800 500 c 0
 964 500 1100 364 1100 200 c 0
 1100 21 1005 -144 850 -233 c 0
 772.5 -277.5 686.25 -299.75 600 -299.75 c 0
 513.75 -299.75 427.5 -277.5 350 -233 c 0
 195 -144 100 21 100 200 c 0
 100 364 236 500 400 500 c 0
 435 500 469 494 500 483 c 1
 500 600 l 2
 500 655 545 700 600 700 c 0
EndSplineSet
Validated: 1
Ligature2: "'liga' Standard-Ligaturen in Lateinisch Nachschlagetabelle 0-1" k i l i
EndChar

StartChar: tok.kiwen
Encoding: 27 989467 27
Width: 1200
VWidth: 21800
Flags: W
HStem: 400 200<441 759>
LayerCount: 2
Fore
SplineSet
441 400 m 1
 341 300 l 1
 600 41 l 1
 859 300 l 1
 759 400 l 1
 441 400 l 1
400 600 m 2
 800 600 l 2
 827 600 852 590 871 571 c 2
 1071 371 l 2
 1090.5 351.5 1100.25 325.75 1100.25 300 c 0
 1100.25 274.25 1090.5 248.5 1071 229 c 2
 671 -171 l 2
 651.5 -190.5 625.75 -200.25 600 -200.25 c 0
 574.25 -200.25 548.5 -190.5 529 -171 c 2
 129 229 l 2
 109.5 248.5 99.75 274.25 99.75 300 c 0
 99.75 325.75 109.5 351.5 129 371 c 2
 329 571 l 2
 348 590 373 600 400 600 c 2
EndSplineSet
Validated: 1
Ligature2: "'liga' Standard-Ligaturen in Lateinisch Nachschlagetabelle 0-1" k i w e n
EndChar

StartChar: tok.ko
Encoding: 28 989468 28
Width: 1200
VWidth: 21400
Flags: W
HStem: -300.031 199.675<333.007 465.991 735.044 865.7> 500.356 199.675<334.3 466.187 735.044 865.7>
VStem: 99.9688 199.675<-65.6999 64.9563 334.009 466.993> 900.346 199.685<-66.9931 65.9551 335.044 465.7>
LayerCount: 2
Fore
SplineSet
400 500 m 0
 397 500 394 500 391 500 c 0
 342 496 304 458 300 409 c 0
 299.761355821 406.076608806 299.643732611 403.171014814 299.643732611 400.288739381 c 0
 299.643732611 354.860170709 328.863730149 315.224406418 374 303 c 0
 417.944935252 291.536103847 448.200191858 251.78020516 448.200191858 206.400989567 c 0
 448.200191858 204.278851357 448.134025962 202.144415389 448 200 c 0
 448.134025962 197.855584611 448.200191858 195.721148643 448.200191858 193.599010433 c 0
 448.200191858 148.21979484 417.944935252 108.463896153 374 97 c 0
 328.863730149 84.775593582 299.643732611 45.1398292914 299.643732611 -0.288739381135 c 0
 299.643732611 -3.17101481408 299.761355821 -6.07660880638 300 -9 c 0
 304 -58 342 -96 391 -100 c 0
 393.923391194 -100.238644179 396.828985186 -100.356267389 399.711260619 -100.356267389 c 0
 445.139829291 -100.356267389 484.775593582 -71.1362698511 497 -26 c 0
 508.463896153 17.9449352522 548.21979484 48.2001918584 593.599010433 48.2001918584 c 0
 595.721148643 48.2001918584 597.855584611 48.1340259618 600 48 c 0
 602.144415389 48.1340259618 604.278851357 48.2001918584 606.400989567 48.2001918584 c 0
 651.78020516 48.2001918584 691.536103847 17.9449352522 703 -26 c 0
 715.224406418 -71.1362698511 754.860170709 -100.356267389 800.288739381 -100.356267389 c 0
 803.171014814 -100.356267389 806.076608806 -100.238644179 809 -100 c 0
 858 -96 896 -58 900 -9 c 0
 900.23223105 -6.15516963971 900.346487467 -3.32719279832 900.346487467 -0.521157559352 c 0
 900.346487467 45.0045912788 870.271285165 84.7547509119 826 97 c 0
 782.055064748 108.463896153 751.799808142 148.21979484 751.799808142 193.599010433 c 0
 751.799808142 195.721148643 751.865974038 197.855584611 752 200 c 0
 751.865974038 202.144415389 751.799808142 204.278851357 751.799808142 206.400989567 c 0
 751.799808142 251.78020516 782.055064748 291.536103847 826 303 c 0
 870.271285165 315.245249088 900.346487467 354.995408721 900.346487467 400.521157559 c 0
 900.346487467 403.327192798 900.23223105 406.15516964 900 409 c 0
 896 458 858 496 809 500 c 0
 806.076608806 500.238644179 803.171014814 500.356267389 800.288739381 500.356267389 c 0
 754.860170709 500.356267389 715.224406418 471.136269851 703 426 c 0
 691.536103847 382.055064748 651.78020516 351.799808142 606.400989567 351.799808142 c 0
 604.278851357 351.799808142 602.144415389 351.865974038 600 352 c 0
 597.855584611 351.865974038 595.721148643 351.799808142 593.599010433 351.799808142 c 0
 548.21979484 351.799808142 508.463896153 382.055064748 497 426 c 0
 485 471 445 500 400 500 c 0
401 700 m 0
 476 700 546 671 600 623 c 0
 654.077348183 671.669613365 725.21346062 700.031174045 800.962006772 700.031174045 c 0
 809.258128523 700.031174045 817.609576592 699.690976045 826 699 c 0
 970 686 1086 570 1099 426 c 0
 1099.69097605 417.609576592 1100.03117405 409.258128523 1100.03117405 400.962006772 c 0
 1100.03117405 325.21346062 1071.66961336 254.077348183 1023 200 c 0
 1071.66961336 145.922651817 1100.03117405 74.7865393797 1100.03117405 -0.962006771915 c 0
 1100.03117405 -9.25812852317 1099.69097605 -17.6095765924 1099 -26 c 0
 1086 -170 970 -286 826 -299 c 0
 817.609576592 -299.690976045 809.258128523 -300.031174045 800.962006772 -300.031174045 c 0
 725.21346062 -300.031174045 654.077348183 -271.669613365 600 -223 c 0
 545.922651817 -271.669613365 474.78653938 -300.031174045 399.037993228 -300.031174045 c 0
 390.741871477 -300.031174045 382.390423408 -299.690976045 374 -299 c 0
 230 -286 114 -170 101 -26 c 0
 100.309023955 -17.6095765924 99.9688259548 -9.25812852317 99.9688259548 -0.962006771915 c 0
 99.9688259548 74.7865393797 128.330386635 145.922651817 177 200 c 0
 128.330386635 254.077348183 99.9688259548 325.21346062 99.9688259548 400.962006772 c 0
 99.9688259548 409.258128523 100.309023955 417.609576592 101 426 c 0
 114 570 230 686 374 699 c 0
 383 700 392 700 401 700 c 0
EndSplineSet
Validated: 1
Ligature2: "'liga' Standard-Ligaturen in Lateinisch Nachschlagetabelle 0-1" k o
EndChar

StartChar: tok.kon
Encoding: 29 989469 29
Width: 1200
VWidth: 21700
Flags: W
HStem: -298 200<239.853 358.259 739.853 858.259> 498 200<341.741 460.147 841.741 960.147>
VStem: 100 200<344.159 457.716> 400 200<-57.7162 55.8414> 600 200<344.159 457.716> 900 200<-57.7162 55.8414>
LayerCount: 2
Fore
SplineSet
893 698 m 0xec
 948 698 993 653 993 598 c 0
 993 543 948 498 893 498 c 0
 884 498 855 488 833 466 c 0
 811 444 800 416 800 400 c 0
 800 375 805 366 821 348 c 0
 837 330 867 308 905 283 c 0
 943 258 988 230 1028 186 c 0
 1068 142 1100 75 1100 0 c 0
 1100 -84 1060 -155 1008 -207 c 0
 956 -259 888 -298 807 -298 c 0
 752 -298 707 -253 707 -198 c 0
 707 -143 752 -98 807 -98 c 0
 816 -98 845 -88 867 -66 c 0
 889 -44 900 -16 900 0 c 0
 900 25 895 34 879 52 c 0
 863 70 833 92 795 117 c 0
 757 142 712 170 672 214 c 0
 632 258 600 325 600 400 c 0
 600 484 640 555 692 607 c 0
 744 659 812 698 893 698 c 0xec
393 698 m 0
 448 698 493 653 493 598 c 0
 493 543 448 498 393 498 c 0
 384 498 355 488 333 466 c 0
 311 444 300 416 300 400 c 0
 300 375 305 366 321 348 c 0
 337 330 367 308 405 283 c 0
 443 258 488 230 528 186 c 0
 568 142 600 75 600 0 c 0
 600 -84 560 -155 508 -207 c 0
 456 -259 388 -298 307 -298 c 0
 252 -298 207 -253 207 -198 c 0
 207 -143 252 -98 307 -98 c 0
 316 -98 345 -88 367 -66 c 0
 389 -44 400 -16 400 0 c 0xf4
 400 25 395 34 379 52 c 0
 363 70 333 92 295 117 c 0
 257 142 212 170 172 214 c 0
 132 258 100 325 100 400 c 0
 100 484 140 555 192 607 c 0
 244 659 312 698 393 698 c 0
EndSplineSet
Validated: 1
Ligature2: "'liga' Standard-Ligaturen in Lateinisch Nachschlagetabelle 0-1" k o n
EndChar

StartChar: tok.kule
Encoding: 30 989470 30
Width: 1200
VWidth: 22000
Flags: W
HStem: -300 200<362 838> 0 200<512 688>
LayerCount: 2
Fore
SplineSet
412 0 m 1
 362 -100 l 1
 838 -100 l 1
 788 0 l 1
 412 0 l 1
600 376 m 1
 512 200 l 1
 688 200 l 1
 600 376 l 1
600 700 m 0
 638 700 672 679 689 645 c 2
 912 200 l 1
 1000 200 l 2
 1055 200 1100 155 1100 100 c 0
 1100 49 1061 7 1011 1 c 1
 1089 -155 l 2
 1096.26526884 -169.750697344 1099.60444527 -185.034567731 1099.60444527 -199.901874386 c 0
 1099.60444527 -252.564225665 1057.70818502 -300 1000 -300 c 2
 200 -300 l 2
 142.291814976 -300 100.395554731 -252.564225665 100.395554731 -199.901874386 c 0
 100.395554731 -185.034567731 103.734731159 -169.750697344 111 -155 c 2
 189 1 l 1
 139 7 100 49 100 100 c 0
 100 155 145 200 200 200 c 2
 288 200 l 1
 511 645 l 2
 528 679 562 700 600 700 c 0
EndSplineSet
Validated: 1
Ligature2: "'liga' Standard-Ligaturen in Lateinisch Nachschlagetabelle 0-1" k u l e
EndChar

StartChar: tok.kulupu
Encoding: 31 989471 31
Width: 1200
VWidth: 21800
Flags: W
HStem: -250 400<204.871 395.129 804.871 995.129> 250 400<504.871 695.129>
VStem: 100 400<-145.129 45.1294> 400 400<354.871 545.129> 700 400<-145.129 45.1294>
LayerCount: 2
Fore
SplineSet
900 150 m 0xc8
 1010 150 1100 60 1100 -50 c 0
 1100 -160 1010 -250 900 -250 c 0
 790 -250 700 -160 700 -50 c 0
 700 60 790 150 900 150 c 0xc8
300 150 m 0
 410 150 500 60 500 -50 c 0
 500 -160 410 -250 300 -250 c 0
 190 -250 100 -160 100 -50 c 0xe0
 100 60 190 150 300 150 c 0
600 650 m 0
 710 650 800 560 800 450 c 0
 800 340 710 250 600 250 c 0
 490 250 400 340 400 450 c 0xd0
 400 560 490 650 600 650 c 0
EndSplineSet
Validated: 1
Ligature2: "'liga' Standard-Ligaturen in Lateinisch Nachschlagetabelle 0-1" k u l u p u
EndChar

StartChar: tok.kute
Encoding: 32 989472 32
Width: 1200
VWidth: 23200
Flags: W
HStem: -300 200<532.853 699.661> -0 400<532.853 667.147> 500 200<500.273 699.727>
VStem: 200 200<232.853 399.661> 500 200<32.8529 367.147> 800 200<0.338745 399.661>
CounterMasks: 1 fc
LayerCount: 2
Fore
SplineSet
600 400 m 0
 655 400 700 355 700 300 c 2
 700 100 l 2
 700 45 655 0 600 -0 c 0
 545 0 500 45 500 100 c 2
 500 300 l 2
 500 355 545 400 600 400 c 0
600 700 m 0
 820 700 1000 520 1000 300 c 2
 1000 100 l 2
 1000 -120 820 -300 600 -300 c 0
 545 -300 500 -255 500 -200 c 0
 500 -145 545 -100 600 -100 c 0
 711 -100 800 -11 800 100 c 2
 800 300 l 2
 800 411 711 500 600 500 c 0
 489 500 400 411 400 300 c 0
 400 245 355 200 300 200 c 0
 245 200 200 245 200 300 c 0
 200 520 380 700 600 700 c 0
EndSplineSet
Validated: 1
Ligature2: "'liga' Standard-Ligaturen in Lateinisch Nachschlagetabelle 0-1" k u t e
EndChar

StartChar: tok.la
Encoding: 33 989473 33
Width: 1200
VWidth: 23200
Flags: W
HStem: -300 200<332.853 512.563> 500 200<332.853 512.563>
VStem: 700 200<81.7057 318.294>
LayerCount: 2
Fore
SplineSet
400 700 m 0
 675 700 900 475 900 200 c 0
 900 -75 675 -300 400 -300 c 0
 345 -300 300 -255 300 -200 c 0
 300 -145 345 -100 400 -100 c 0
 567 -100 700 33 700 200 c 0
 700 367 567 500 400 500 c 0
 345 500 300 545 300 600 c 0
 300 655 345 700 400 700 c 0
EndSplineSet
Validated: 1
Ligature2: "'liga' Standard-Ligaturen in Lateinisch Nachschlagetabelle 0-1" l a
EndChar

StartChar: tok.lape
Encoding: 34 989474 34
Width: 1200
VWidth: 23000
Flags: W
HStem: -100 200<733.858 867.385> 100 200<132.853 525.682> 300 200<733.858 867.385>
VStem: 100 600<133.548 266.452> 900 200<132.615 267.385>
LayerCount: 2
Fore
SplineSet
800 300 m 0xb8
 744 300 700 256 700 200 c 0
 700 144 744 100 800 100 c 0
 856 100 900 144 900 200 c 0
 900 256 856 300 800 300 c 0xb8
800 500 m 0
 964 500 1100 364 1100 200 c 0
 1100 36 964 -100 800 -100 c 0xb8
 671 -100 559 -16 517 100 c 2
 200 100 l 2
 145 100 100 145 100 200 c 0
 100 255 145 300 200 300 c 2
 517 300 l 2x58
 559 416 671 500 800 500 c 0
EndSplineSet
Validated: 1
Ligature2: "'liga' Standard-Ligaturen in Lateinisch Nachschlagetabelle 0-1" l a p e
EndChar

StartChar: tok.laso
Encoding: 35 989475 35
Width: 1200
VWidth: 25700
Flags: W
HStem: -300 200<441 759> 500 200<300 397.091 802.909 900>
VStem: 500 200<300 400.237>
LayerCount: 2
Fore
SplineSet
600 59 m 1
 441 -100 l 1
 759 -100 l 1
 600 59 l 1
900 500 m 1
 788 500 700 412 700 300 c 1
 812 300 900 388 900 500 c 1
300 500 m 1
 300 388 388 300 500 300 c 1
 500 412 412 500 300 500 c 1
200 700 m 2
 300 700 l 2
 419 700 526 646 600 563 c 1
 674 646 781 700 900 700 c 2
 1000 700 l 2
 1055 700 1100 655 1100 600 c 2
 1100 500 l 2
 1100 323 983 171 822 119 c 1
 1071 -129 l 2
 1091.31620193 -149.316201933 1100.40116411 -174.312087097 1100.40116411 -198.856710661 c 0
 1100.40116411 -250.42430973 1060.29933378 -300 1000 -300 c 2
 200 -300 l 2
 139.700666223 -300 99.5988358887 -250.42430973 99.5988358887 -198.856710661 c 0
 99.5988358887 -174.312087097 108.683798067 -149.316201933 129 -129 c 2
 378 119 l 1
 217 171 100 323 100 500 c 2
 100 600 l 2
 100 655 145 700 200 700 c 2
EndSplineSet
Validated: 1
Ligature2: "'liga' Standard-Ligaturen in Lateinisch Nachschlagetabelle 0-1" l a s o
EndChar

StartChar: tok.lawa
Encoding: 36 989476 36
Width: 1200
VWidth: 22900
Flags: W
HStem: -299.25 199.25<402.573 597.427> 200 200<327 673 900 1067.15> 500 200<402.573 597.427>
VStem: 100 200<2.80216 200> 700 200<2.80216 200>
LayerCount: 2
Fore
SplineSet
300 200 m 1
 300 100 l 2
 300 28 338 -37 400 -73 c 0
 431 -91 465.5 -100 500 -100 c 0
 534.5 -100 569 -91 600 -73 c 0
 662 -37 700 28 700 100 c 2
 700 200 l 1
 300 200 l 1
500 500 m 0
 466 500 431 491 400 473 c 0
 369 455 344 430 327 400 c 1
 673 400 l 1
 656 430 631 455 600 473 c 0
 569 491 534 500 500 500 c 0
500 700 m 0
 569 700 638 682 700 646 c 0
 794 592 860 503 887 400 c 2
 1000 400 l 2
 1055 400 1100 355 1100 300 c 0
 1100 245 1055 200 1000 200 c 2
 900 200 l 1
 900 100 l 2
 900 -43 824 -175 700 -246 c 0
 638 -281.5 569 -299.25 500 -299.25 c 0
 431 -299.25 362 -281.5 300 -246 c 0
 176 -175 100 -43 100 100 c 2
 100 300 l 2
 100 443 176 575 300 646 c 0
 362 682 431 700 500 700 c 0
EndSplineSet
Validated: 1
Ligature2: "'liga' Standard-Ligaturen in Lateinisch Nachschlagetabelle 0-1" l a w a
EndChar

StartChar: tok.len
Encoding: 37 989477 37
Width: 1200
VWidth: 23200
Flags: W
HStem: 0 200<300 500 700 900> 500 200<300 900>
VStem: 100 200<-267.147 0 200 500> 500 200<-267.147 0> 900 200<-267.147 0 200 500>
CounterMasks: 1 38
LayerCount: 2
Fore
SplineSet
300 500 m 1
 300 200 l 1
 900 200 l 1
 900 500 l 1
 300 500 l 1
200 700 m 2
 1000 700 l 2
 1055 700 1100 655 1100 600 c 2
 1100 100 l 1
 1100 -200 l 2
 1100 -255 1055 -300 1000 -300 c 0
 945 -300 900 -255 900 -200 c 2
 900 0 l 1
 700 0 l 1
 700 -200 l 2
 700 -255 655 -300 600 -300 c 0
 545 -300 500 -255 500 -200 c 2
 500 0 l 1
 300 0 l 1
 300 -200 l 2
 300 -255 255 -300 200 -300 c 0
 145 -300 100 -255 100 -200 c 2
 100 100 l 1
 100 600 l 2
 100 655 145 700 200 700 c 2
EndSplineSet
Validated: 1
Ligature2: "'liga' Standard-Ligaturen in Lateinisch Nachschlagetabelle 0-1" l e n
EndChar

StartChar: tok.lete
Encoding: 38 989478 38
Width: 1200
VWidth: 23000
Flags: W
HStem: 100 200<132.853 359 841 1067.15>
LayerCount: 2
Fore
SplineSet
300 600 m 0
 327 600 352 590 371 571 c 2
 600 341 l 1
 829 571 l 2
 848.5 590.5 874.25 600.25 900 600.25 c 0
 925.75 600.25 951.5 590.5 971 571 c 0
 990.5 551.5 1000.25 525.75 1000.25 500 c 0
 1000.25 474.25 990.5 448.5 971 429 c 2
 841 300 l 1
 1000 300 l 2
 1055 300 1100 255 1100 200 c 0
 1100 145 1055 100 1000 100 c 2
 841 100 l 1
 971 -29 l 2
 990.5 -48.5 1000.25 -74.25 1000.25 -100 c 0
 1000.25 -125.75 990.5 -151.5 971 -171 c 0
 951.5 -190.5 925.75 -200.25 900 -200.25 c 0
 874.25 -200.25 848.5 -190.5 829 -171 c 2
 600 59 l 1
 371 -171 l 2
 351.5 -190.5 325.75 -200.25 300 -200.25 c 0
 274.25 -200.25 248.5 -190.5 229 -171 c 0
 209.5 -151.5 199.75 -125.75 199.75 -100 c 0
 199.75 -74.25 209.5 -48.5 229 -29 c 2
 359 100 l 1
 200 100 l 2
 145 100 100 145 100 200 c 0
 100 255 145 300 200 300 c 2
 359 300 l 1
 229 429 l 2
 209.5 448.5 199.75 474.25 199.75 500 c 0
 199.75 525.75 209.5 551.5 229 571 c 0
 248 590 273 600 300 600 c 0
EndSplineSet
Validated: 1
Ligature2: "'liga' Standard-Ligaturen in Lateinisch Nachschlagetabelle 0-1" l e t e
EndChar

StartChar: tok.lili
Encoding: 40 989480 39
Width: 1200
VWidth: 22500
Flags: W
HStem: -0.25 21G<587.125 612.875>
LayerCount: 2
Fore
SplineSet
389 399 m 0
 392.492819978 399.349281998 395.99919528 399.522344787 399.501765593 399.522344787 c 0
 426.082941383 399.522344787 452.444973985 389.555026015 471 371 c 2
 600 241 l 1
 729 371 l 2
 748.5 390.5 774.25 400.25 800 400.25 c 0
 825.75 400.25 851.5 390.5 871 371 c 0
 890.5 351.5 900.25 325.75 900.25 300 c 0
 900.25 274.25 890.5 248.5 871 229 c 2
 671 29 l 2
 651.5 9.5 625.75 -0.25 600 -0.25 c 0
 574.25 -0.25 548.5 9.5 529 29 c 2
 329 229 l 2
 309.5 248.5 299.75 274.25 299.75 300 c 0
 299.75 325.75 309.5 351.5 329 371 c 0
 345 387 366 396 389 399 c 0
EndSplineSet
Validated: 1
Ligature2: "'liga' Standard-Ligaturen in Lateinisch Nachschlagetabelle 0-1" l i l i
EndChar

StartChar: tok.li
Encoding: 39 989479 40
Width: 1200
VWidth: 23200
Flags: W
LayerCount: 2
Fore
SplineSet
400 700 m 0
 427 700 452 690 471 671 c 2
 871 271 l 2
 890.5 251.5 900.25 225.75 900.25 200 c 0
 900.25 174.25 890.5 148.5 871 129 c 2
 471 -271 l 2
 451.5 -290.5 425.75 -300.25 400 -300.25 c 0
 374.25 -300.25 348.5 -290.5 329 -271 c 0
 309.5 -251.5 299.75 -225.75 299.75 -200 c 0
 299.75 -174.25 309.5 -148.5 329 -129 c 2
 659 200 l 1
 329 529 l 2
 309.5 548.5 299.75 574.25 299.75 600 c 0
 299.75 625.75 309.5 651.5 329 671 c 0
 348 690 373 700 400 700 c 0
EndSplineSet
Validated: 1
Ligature2: "'liga' Standard-Ligaturen in Lateinisch Nachschlagetabelle 0-1" l i
EndChar

StartChar: tok.linja
Encoding: 41 989481 41
Width: 1200
VWidth: 23000
Flags: W
HStem: -100.5 200<332.586 467.414> 300.5 200<732.586 867.414>
VStem: 100 200<136.097 467.147> 500 200<136.097 263.903> 900 200<-67.1471 263.903>
CounterMasks: 1 38
LayerCount: 2
Fore
SplineSet
200 500 m 0
 255 500 300 455 300 400 c 2
 300 200 l 2
 300 164 319 131 350 113 c 0
 365.5 104 382.75 99.5 400 99.5 c 0
 417.25 99.5 434.5 104 450 113 c 0
 481 131 500 164 500 200 c 0
 500 307 557 406 650 460 c 0
 696.5 487 748.25 500.5 800 500.5 c 0
 851.75 500.5 903.5 487 950 460 c 0
 1043 406 1100 307 1100 200 c 2
 1100 0 l 2
 1100 -55 1055 -100 1000 -100 c 0
 945 -100 900 -55 900 0 c 2
 900 200 l 2
 900 236 881 269 850 287 c 0
 834.5 296 817.25 300.5 800 300.5 c 0
 782.75 300.5 765.5 296 750 287 c 0
 719 269 700 236 700 200 c 0
 700 93 643 -6 550 -60 c 0
 503.5 -87 451.75 -100.5 400 -100.5 c 0
 348.25 -100.5 296.5 -87 250 -60 c 0
 157 -6 100 93 100 200 c 2
 100 400 l 2
 100 455 145 500 200 500 c 0
EndSplineSet
Validated: 1
Ligature2: "'liga' Standard-Ligaturen in Lateinisch Nachschlagetabelle 0-1" l i n j a
EndChar

StartChar: tok.lipu
Encoding: 42 989482 42
Width: 1200
VWidth: 23200
Flags: W
HStem: -300 200<300 900> 500 200<300 900>
VStem: 100 200<-100 500> 900 200<-100 500>
LayerCount: 2
Fore
SplineSet
300 500 m 1
 300 -100 l 1
 900 -100 l 1
 900 500 l 1
 300 500 l 1
200 700 m 2
 1000 700 l 2
 1055 700 1100 655 1100 600 c 2
 1100 -200 l 2
 1100 -255 1055 -300 1000 -300 c 2
 200 -300 l 2
 145 -300 100 -255 100 -200 c 2
 100 600 l 2
 100 655 145 700 200 700 c 2
EndSplineSet
Validated: 1
Ligature2: "'liga' Standard-Ligaturen in Lateinisch Nachschlagetabelle 0-1" l i p u
EndChar

StartChar: tok.loje
Encoding: 43 989483 43
Width: 1200
VWidth: 23200
Flags: W
HStem: -300 200<441 759> 500 200<327 873>
LayerCount: 2
Fore
SplineSet
600 59 m 1
 441 -100 l 1
 759 -100 l 1
 600 59 l 1
327 500 m 1
 351 435 388 376 450 340 c 0
 496.5 313 548.25 299.5 600 299.5 c 0
 651.75 299.5 703.5 313 750 340 c 0
 812 376 849 435 873 500 c 1
 600 500 l 1
 327 500 l 1
200 700 m 2
 600 700 l 1
 1000 700 l 2
 1055 700 1100 655 1100 600 c 0
 1100 421 1005 256 850 167 c 0
 834 158 817 149 800 142 c 1
 1071 -129 l 2
 1091.31620193 -149.316201933 1100.40116411 -174.312087097 1100.40116411 -198.856710661 c 0
 1100.40116411 -250.42430973 1060.29933378 -300 1000 -300 c 2
 200 -300 l 2
 139.700666223 -300 99.5988358887 -250.42430973 99.5988358887 -198.856710661 c 0
 99.5988358887 -174.312087097 108.683798067 -149.316201933 129 -129 c 2
 400 142 l 1
 383 149 366 158 350 167 c 0
 195 256 100 421 100 600 c 0
 100 655 145 700 200 700 c 2
EndSplineSet
Validated: 1
Ligature2: "'liga' Standard-Ligaturen in Lateinisch Nachschlagetabelle 0-1" l o j e
EndChar

StartChar: tok.lon
Encoding: 44 989484 44
Width: 1200
VWidth: 22800
Flags: W
HStem: -50 200<132.853 1067.15> 250 200<532.853 667.147>
VStem: 500 200<282.853 417.147>
LayerCount: 2
Fore
SplineSet
200 150 m 2
 1000 150 l 2
 1055 150 1100 105 1100 50 c 0
 1100 -5 1055 -50 1000 -50 c 2
 200 -50 l 2
 145 -50 100 -5 100 50 c 0
 100 105 145 150 200 150 c 2
600 450 m 0
 655 450 700 405 700 350 c 0
 700 295 655 250 600 250 c 0
 545 250 500 295 500 350 c 0
 500 405 545 450 600 450 c 0
EndSplineSet
Validated: 1
Ligature2: "'liga' Standard-Ligaturen in Lateinisch Nachschlagetabelle 0-1" l o n
EndChar

StartChar: tok.luka
Encoding: 45 989485 45
Width: 1200
VWidth: 23200
Flags: W
HStem: 500 200<602.573 797.427>
VStem: 99.75 400.25<-67.272 40.102> 300 200<41 397.198> 900 200<-267.147 397.198>
LayerCount: 2
Fore
SplineSet
700 700 m 0xb0
 769 700 838 682 900 646 c 0
 1024 575 1100 443 1100 300 c 2
 1100 -200 l 2
 1100 -255 1055 -300 1000 -300 c 0
 945 -300 900 -255 900 -200 c 2
 900 300 l 2
 900 372 862 437 800 473 c 0
 769 491 734.5 500 700 500 c 0
 665.5 500 631 491 600 473 c 0
 538 437 500 372 500 300 c 2
 500 -200 l 2xb0
 500 -255 455 -300 400 -300 c 0
 368 -300 339 -284 320 -258 c 0
 315 -255 310 -251 306 -247 c 2
 129 -71 l 2
 109.5 -51.5 99.75 -25.75 99.75 0 c 0xd0
 99.75 25.75 109.5 51.5 129 71 c 0
 148.5 90.5 174.25 100.25 200 100.25 c 0
 225.75 100.25 251.5 90.5 271 71 c 2
 300 41 l 1
 300 300 l 2
 300 443 376 575 500 646 c 0
 562 682 631 700 700 700 c 0xb0
EndSplineSet
Validated: 1
Ligature2: "'liga' Standard-Ligaturen in Lateinisch Nachschlagetabelle 0-1" l u k a
EndChar

StartChar: tok.lukin
Encoding: 46 989486 46
Width: 1200
VWidth: 25600
Flags: W
HStem: -200 200<402.802 797.198> 100 200<532.853 667.147> 400 200<402.802 797.198>
VStem: 100.75 199.25<102.573 297.427> 500 200<132.853 267.147> 900 199.25<102.573 297.427>
CounterMasks: 1 fc
LayerCount: 2
Fore
SplineSet
600 300 m 0
 655 300 700 255 700 200 c 0
 700 145 655 100 600 100 c 0
 545 100 500 145 500 200 c 0
 500 255 545 300 600 300 c 0
500 400 m 2
 428 400 363 362 327 300 c 0
 309 269 300 234.5 300 200 c 0
 300 165.5 309 131 327 100 c 0
 363 38 428 0 500 0 c 2
 700 0 l 2
 772 0 837 38 873 100 c 0
 891 131 900 165.5 900 200 c 0
 900 234.5 891 269 873 300 c 0
 837 362 772 400 700 400 c 2
 500 400 l 2
500 600 m 2
 700 600 l 2
 843 600 975 524 1046 400 c 0
 1081.5 338 1099.25 269 1099.25 200 c 0
 1099.25 131 1081.5 62 1046 0 c 0
 975 -124 843 -200 700 -200 c 2
 500 -200 l 2
 357 -200 225 -124 154 0 c 0
 118.5 62 100.75 131 100.75 200 c 0
 100.75 269 118.5 338 154 400 c 0
 225 524 357 600 500 600 c 2
EndSplineSet
Validated: 1
Ligature2: "'liga' Standard-Ligaturen in Lateinisch Nachschlagetabelle 0-1" l u k i n
EndChar

StartChar: tok.lupa
Encoding: 47 989487 47
Width: 1200
VWidth: 22800
Flags: W
HStem: -299.75 199.25<479.277 720.723>
VStem: 100 200<80.4769 667.147> 900 200<80.4769 667.147>
LayerCount: 2
Fore
SplineSet
200 700 m 0
 255 700 300 655 300 600 c 2
 300 200 l 2
 300 93 357 -6 450 -60 c 0
 496.5 -87 548.25 -100.5 600 -100.5 c 0
 651.75 -100.5 703.5 -87 750 -60 c 0
 843 -6 900 93 900 200 c 2
 900 600 l 2
 900 655 945 700 1000 700 c 0
 1055 700 1100 655 1100 600 c 2
 1100 200 l 2
 1100 21 1005 -144 850 -233 c 0
 772.5 -277.5 686.25 -299.75 600 -299.75 c 0
 513.75 -299.75 427.5 -277.5 350 -233 c 0
 195 -144 100 21 100 200 c 2
 100 600 l 2
 100 655 145 700 200 700 c 0
EndSplineSet
Validated: 1
Ligature2: "'liga' Standard-Ligaturen in Lateinisch Nachschlagetabelle 0-1" l u p a
EndChar

StartChar: tok.ma
Encoding: 48 989488 48
Width: 1200
VWidth: 24400
Flags: W
HStem: 100 200<317 500 700 883>
VStem: 500 200<-83 100 300 483>
LayerCount: 2
Fore
SplineSet
700 100 m 1
 700 -83 l 1
 786 -53 853 14 883 100 c 1
 700 100 l 1
317 100 m 1
 347 14 414 -53 500 -83 c 1
 500 100 l 1
 317 100 l 1
700 483 m 1
 700 300 l 1
 883 300 l 1
 853 386 786 453 700 483 c 1
500 483 m 1
 414 453 347 386 317 300 c 1
 500 300 l 1
 500 483 l 1
600 700 m 0
 875 700 1100 475 1100 200 c 0
 1100 -75 875 -300 600 -300 c 0
 325 -300 100 -75 100 200 c 0
 100 475 325 700 600 700 c 0
EndSplineSet
Validated: 1
Ligature2: "'liga' Standard-Ligaturen in Lateinisch Nachschlagetabelle 0-1" m a
EndChar

StartChar: tok.mama
Encoding: 49 989489 49
Width: 1200
VWidth: 28100
Flags: W
HStem: -300 200<532.615 667.385> 100 200<532.456 667.544> 500 200<336.097 863.903>
VStem: 99.5 200<332.586 467.414> 300 200<-67.385 67.6636> 700 200<-67.385 67.6636> 900.5 200<332.586 467.414>
CounterMasks: 1 e0
LayerCount: 2
Fore
SplineSet
600 100 m 0
 544 100 500 56 500 0 c 0
 500 -56 544 -100 600 -100 c 0
 656 -100 700 -56 700 0 c 0
 700 56 656 100 600 100 c 0
400 500 m 2
 364 500 331 481 313 450 c 0
 304 434.5 299.5 417.25 299.5 400 c 0
 299.5 382.75 304 365.5 313 350 c 0
 331 319 364 300 400 300 c 2
 800 300 l 2
 836 300 869 319 887 350 c 0
 896 365.5 900.5 382.75 900.5 400 c 0
 900.5 417.25 896 434.5 887 450 c 0
 869 481 836 500 800 500 c 2
 400 500 l 2
400 700 m 2
 800 700 l 2
 907 700 1006 643 1060 550 c 0
 1087 503.5 1100.5 451.75 1100.5 400 c 0
 1100.5 348.25 1087 296.5 1060 250 c 0
 1020 181 954 132 879 111 c 1
 893 77 900 39 900 0 c 0
 900 -164 764 -300 600 -300 c 0
 436 -300 300 -164 300 0 c 0
 300 39 307 77 321 111 c 1
 246 132 180 181 140 250 c 0
 113 296.5 99.5 348.25 99.5 400 c 0
 99.5 451.75 113 503.5 140 550 c 0
 194 643 293 700 400 700 c 2
EndSplineSet
Validated: 1
Ligature2: "'liga' Standard-Ligaturen in Lateinisch Nachschlagetabelle 0-1" m a m a
EndChar

StartChar: tok.mani
Encoding: 50 989490 50
Width: 1200
VWidth: 28100
Flags: W
HStem: -300 200<500.051 699.949> 300 200<499.763 700.237>
VStem: 100 200<534.915 667.147> 200 200<0.0508423 200.162> 800 200<0.0508423 200.162> 900 200<534.915 667.147>
LayerCount: 2
Fore
SplineSet
600 300 m 0xd8
 488 300 400 212 400 100 c 0
 400 -12 488 -100 600 -100 c 0
 712 -100 800 -12 800 100 c 0
 800 212 712 300 600 300 c 0xd8
200 700 m 0
 255 700 300 655 300 600 c 0xe0
 300 544 344 500 400 500 c 2
 800 500 l 2xd8
 856 500 900 544 900 600 c 0xc4
 900 655 945 700 1000 700 c 0xc8
 1055 700 1100 655 1100 600 c 0xc4
 1100 481 1029 377 927 329 c 1
 973 264 1000 185 1000 100 c 0
 1000 -120 820 -300 600 -300 c 0
 380 -300 200 -120 200 100 c 0xd8
 200 185 227 264 273 329 c 1
 171 377 100 481 100 600 c 0xe0
 100 655 145 700 200 700 c 0
EndSplineSet
Validated: 1
Ligature2: "'liga' Standard-Ligaturen in Lateinisch Nachschlagetabelle 0-1" m a n i
EndChar

StartChar: tok.meli
Encoding: 51 989491 51
Width: 1200
VWidth: 28100
Flags: W
HStem: 0 400<504.871 695.129> 500.5 199.5<479.239 720.761>
VStem: 100 200<-267.147 319.523> 400 400<104.871 295.129> 900 200<-267.147 319.523>
CounterMasks: 1 38
LayerCount: 2
Fore
SplineSet
600 400 m 0
 710 400 800 310 800 200 c 0
 800 90 710 0 600 0 c 0
 490 0 400 90 400 200 c 0
 400 310 490 400 600 400 c 0
600 700 m 0
 686 700 773 678 850 633 c 0
 1005 544 1100 379 1100 200 c 2
 1100 -200 l 2
 1100 -255 1055 -300 1000 -300 c 0
 945 -300 900 -255 900 -200 c 2
 900 200 l 2
 900 307 843 406 750 460 c 0
 703.5 487 651.75 500.5 600 500.5 c 0
 548.25 500.5 496.5 487 450 460 c 0
 357 406 300 307 300 200 c 2
 300 -200 l 2
 300 -255 255 -300 200 -300 c 0
 145 -300 100 -255 100 -200 c 2
 100 200 l 2
 100 379 195 544 350 633 c 0
 427 678 514 700 600 700 c 0
EndSplineSet
Validated: 1
Ligature2: "'liga' Standard-Ligaturen in Lateinisch Nachschlagetabelle 0-1" m e l i
EndChar

StartChar: tok.mi
Encoding: 52 989492 52
Width: 1200
VWidth: 24100
Flags: W
HStem: 100 200<532.704 667.385> 500 200<532.615 667.385>
VStem: 300 200<-267.147 117 332.456 467.226> 700 200<332.615 467.385>
LayerCount: 2
Fore
SplineSet
600 500 m 0
 544 500 500 456 500 400 c 0
 500 344 544 300 600 300 c 0
 656 300 700 344 700 400 c 0
 700 456 656 500 600 500 c 0
600 700 m 0
 764 700 900 564 900 400 c 0
 900 236 764 100 600 100 c 0
 565 100 531 106 500 117 c 1
 500 -200 l 2
 500 -255 455 -300 400 -300 c 0
 345 -300 300 -255 300 -200 c 2
 300 375 l 2
 300 377 301 379 301 381 c 0
 301 387 300 394 300 400 c 0
 300 564 436 700 600 700 c 0
EndSplineSet
Validated: 1
Ligature2: "'liga' Standard-Ligaturen in Lateinisch Nachschlagetabelle 0-1" m i
EndChar

StartChar: tok.mije
Encoding: 53 989493 53
Width: 1200
VWidth: 28100
Flags: W
HStem: -100 200<499.763 700.237> 500 200<500.051 699.949>
VStem: 100 200<-267.147 -100> 200 200<200.407 399.949> 800 200<200.407 399.949> 900 200<-267.147 -100>
LayerCount: 2
Fore
SplineSet
600 500 m 0xd8
 488 500 400 412 400 300 c 0
 400 188 488 100 600 100 c 0
 712 100 800 188 800 300 c 0
 800 412 712 500 600 500 c 0xd8
600 700 m 0
 820 700 1000 520 1000 300 c 0
 1000 227 980 159 946 100 c 1
 1000 100 l 2xd8
 1055 100 1100 55 1100 0 c 2
 1100 -200 l 2xc4
 1100 -255 1055 -300 1000 -300 c 0xc8
 945 -300 900 -255 900 -200 c 2
 900 -100 l 1
 300 -100 l 1
 300 -200 l 2xe4
 300 -255 255 -300 200 -300 c 0xd0
 145 -300 100 -255 100 -200 c 2
 100 0 l 2xe0
 100 55 145 100 200 100 c 2
 254 100 l 1
 220 159 200 227 200 300 c 0
 200 520 380 700 600 700 c 0
EndSplineSet
Validated: 1
Ligature2: "'liga' Standard-Ligaturen in Lateinisch Nachschlagetabelle 0-1" m i j e
EndChar

StartChar: tok.moku
Encoding: 54 989494 54
Width: 1200
VWidth: 24000
Flags: W
HStem: 100 200<603.984 796.016> 500 200<500 900>
VStem: 900 200<-267.147 -5.12522 403.873 500>
LayerCount: 2
Fore
SplineSet
500 500 m 1
 500 388 588 300 700 300 c 0
 812 300 900 388 900 500 c 1
 500 500 l 1
400 700 m 2
 1000 700 l 2
 1055 700 1100 655 1100 600 c 2
 1100 500 l 2
 1100 498 1100 496 1100 494 c 0
 1098 377 1046 273 964 201 c 1
 1048 127 1098 20 1100 -94 c 0
 1100 -96 1100 -98 1100 -100 c 2
 1100 -200 l 2
 1100 -255 1055 -300 1000 -300 c 0
 945 -300 900 -255 900 -200 c 2
 900 -100 l 2
 900 -28 862 37 800 73 c 0
 769 91 734.5 100 700 100 c 0
 665.5 100 631 91 600 73 c 0
 538 37 500 -28 500 -100 c 2
 500 -197 l 2
 500 -200 500 -202 500 -205 c 2
 500 -206 l 2
 500 -207 499 -209 499 -210 c 0
 499 -214 498 -218 497 -222 c 0
 497 -224 l 0
 497 -225 496 -227 496 -228 c 0
 496 -229 495 -229 495 -230 c 0
 495 -231 494 -232 494 -233 c 0
 494 -234 493 -236 493 -237 c 0
 492 -238 l 0
 491 -240 491 -241 490 -243 c 0
 489 -245 489 -246 488 -248 c 0
 487 -249 l 0
 486 -250 486 -252 485 -253 c 0
 485 -254 484 -254 484 -255 c 0
 483 -256 483 -257 482 -258 c 0
 481 -259 481 -259 480 -260 c 0
 480 -261 478 -261 478 -262 c 0
 477 -263 476 -265 475 -266 c 0
 475 -267 l 0
 474 -268 472 -270 471 -271 c 0
 452 -290 427 -300 400 -300 c 0
 394 -300 388 -299 382 -298 c 0
 381 -298 379 -297 378 -297 c 0
 374 -296 369 -295 365 -293 c 0
 363 -292 360 -292 358 -291 c 0
 355 -289 352 -288 349 -286 c 0
 347 -285 345 -283 343 -282 c 0
 338 -279 333 -275 329 -271 c 2
 129 -71 l 2
 109.5 -51.5 99.75 -25.75 99.75 0 c 0
 99.75 25.75 109.5 51.5 129 71 c 0
 148.5 90.5 174.25 100.25 200 100.25 c 0
 225.75 100.25 251.5 90.5 271 71 c 2
 319 22 l 1
 341 91 382 153 436 201 c 1
 353 274 300 381 300 500 c 2
 300 600 l 2
 300 607 301 613 302 620 c 0
 302 621 303 624 303 625 c 0
 304 631 307 636 309 641 c 0
 309 642 310 643 310 644 c 0
 313 650 317 656 321 661 c 0
 322 662 323 663 324 664 c 0
 328 668 332 672 336 676 c 0
 337 677 338 678 339 679 c 0
 344 683 350 687 356 690 c 0
 357 690 358 691 359 691 c 0
 364 693 369 696 375 697 c 0
 376 697 379 698 380 698 c 0
 387 699 393 700 400 700 c 2
EndSplineSet
Validated: 5
Ligature2: "'liga' Standard-Ligaturen in Lateinisch Nachschlagetabelle 0-1" m o k u
EndChar

StartChar: tok.moli
Encoding: 55 989495 55
Width: 1200
VWidth: 24400
Flags: W
HStem: 0.106824 21G<189.366 215.041 484.959 510.634>
LayerCount: 2
Fore
SplineSet
695 400 m 0
 702 400 708 400 714 399 c 0
 740 395 764 381 780 360 c 2
 850 267 l 1
 920 360 l 2
 936 381 960 395 986 399 c 0
 990.808104434 399.739708375 995.650406899 400.10323842 1000.4826384 400.10323842 c 0
 1021.78087488 400.10323842 1042.88346897 393.041166502 1060 380 c 0
 1086.10799023 360.419007324 1099.89317551 330.275610402 1099.89317551 299.806471504 c 0
 1099.89317551 278.925732473 1093.41900732 257.892009766 1080 240 c 2
 975 100 l 1
 1080 -40 l 2
 1093.41900732 -57.8920097657 1099.89317551 -78.9257324735 1099.89317551 -99.8064715044 c 0
 1099.89317551 -130.275610402 1086.10799023 -160.419007324 1060 -180 c 0
 1042.10799023 -193.419007324 1021.07426753 -199.893175514 1000.1935285 -199.893175514 c 0
 969.724389598 -199.893175514 939.580992676 -186.107990234 920 -160 c 2
 850 -67 l 1
 780 -160 l 2
 760.419007324 -186.107990234 730.275610402 -199.893175514 699.806471504 -199.893175514 c 0
 678.925732473 -199.893175514 657.892009766 -193.419007324 640 -180 c 0
 613.892009766 -160.419007324 600.106824486 -130.275610402 600.106824486 -99.8064715044 c 0
 600.106824486 -78.9257324735 606.580992676 -57.8920097657 620 -40 c 2
 725 100 l 1
 620 240 l 2
 606.580992676 257.892009766 600.106824486 278.925732473 600.106824486 299.806471504 c 0
 600.106824486 330.275610402 613.892009766 360.419007324 640 380 c 0
 656 392 675 399 695 400 c 0
195 600 m 0
 202 600 208 600 214 599 c 0
 240 595 264 581 280 560 c 2
 350 467 l 1
 420 560 l 2
 436 581 460 595 486 599 c 0
 490.808104434 599.739708375 495.650406899 600.10323842 500.482638397 600.10323842 c 0
 521.780874876 600.10323842 542.883468966 593.041166502 560 580 c 0
 586.107990234 560.419007324 599.893175514 530.275610402 599.893175514 499.806471504 c 0
 599.893175514 478.925732473 593.419007324 457.892009766 580 440 c 2
 475 300 l 1
 580 160 l 2
 593.419007324 142.107990234 599.893175514 121.074267527 599.893175514 100.193528496 c 0
 599.893175514 69.7243895984 586.107990234 39.5809926757 560 20 c 0
 542.107990234 6.58099267569 521.074267527 0.106824486306 500.193528496 0.106824486306 c 0
 469.724389598 0.106824486306 439.580992676 13.8920097657 420 40 c 2
 350 133 l 1
 280 40 l 2
 260.419007324 13.8920097657 230.275610402 0.106824486306 199.806471504 0.106824486306 c 0
 178.925732473 0.106824486306 157.892009766 6.58099267569 140 20 c 0
 113.892009766 39.5809926757 100.106824486 69.7243895984 100.106824486 100.193528496 c 0
 100.106824486 121.074267527 106.580992676 142.107990234 120 160 c 2
 225 300 l 1
 120 440 l 2
 106.580992676 457.892009766 100.106824486 478.925732473 100.106824486 499.806471504 c 0
 100.106824486 530.275610402 113.892009766 560.419007324 140 580 c 0
 156 592 175 599 195 600 c 0
EndSplineSet
Validated: 1
Ligature2: "'liga' Standard-Ligaturen in Lateinisch Nachschlagetabelle 0-1" m o l i
EndChar

StartChar: tok.monsi
Encoding: 56 989496 56
Width: 1200
VWidth: 24400
Flags: W
HStem: -300 200<600 1067.15> 0 400<132.853 267.147> 500 200<600 1067.15>
VStem: 100 200<32.8529 367.147> 400 200<-100 500>
CounterMasks: 1 e0
LayerCount: 2
Fore
SplineSet
200 400 m 0
 255 400 300 355 300 300 c 2
 300 100 l 2
 300 45 255 0 200 0 c 0
 145 0 100 45 100 100 c 2
 100 300 l 2
 100 355 145 400 200 400 c 0
500 700 m 2
 1000 700 l 2
 1055 700 1100 655 1100 600 c 0
 1100 545 1055 500 1000 500 c 2
 600 500 l 1
 600 -100 l 1
 1000 -100 l 2
 1055 -100 1100 -145 1100 -200 c 0
 1100 -255 1055 -300 1000 -300 c 2
 500 -300 l 2
 445 -300 400 -255 400 -200 c 2
 400 600 l 2
 400 655 445 700 500 700 c 2
EndSplineSet
Validated: 1
Ligature2: "'liga' Standard-Ligaturen in Lateinisch Nachschlagetabelle 0-1" m o n s i
EndChar

StartChar: tok.mu
Encoding: 57 989497 57
Width: 1200
VWidth: 24400
Flags: W
HStem: -300 400<539.295 660.705> 300 200<500.132 699.868>
VStem: 100 400<491.227 595.129> 200 200<0.38973 199.323> 500 200<-74 67.1471> 700 400<491.227 595.129> 800 200<0.38973 199.323>
LayerCount: 2
Fore
SplineSet
600 300 m 0xda
 488 300 400 212 400 100 c 0
 400 25 440 -40 500 -74 c 1
 500 0 l 2
 500 55 545 100 600 100 c 0
 655 100 700 55 700 0 c 2
 700 -74 l 1
 760 -40 800 25 800 100 c 0
 800 212 712 300 600 300 c 0xda
300 700 m 0
 410 700 500 610 500 500 c 0
 500 496 499 491 499 487 c 1
 531 495 565 500 600 500 c 0
 635 500 669 495 701 487 c 1
 701 491 700 496 700 500 c 0
 700 610 790 700 900 700 c 0
 1010 700 1100 610 1100 500 c 0xe4
 1100 406 1035 325 943 305 c 1
 979 245 1000 175 1000 100 c 0
 1000 -120 820 -300 600 -300 c 0
 380 -300 200 -120 200 100 c 0xd2
 200 175 221 245 257 305 c 1
 165 325 100 406 100 500 c 0xe0
 100 610 190 700 300 700 c 0
EndSplineSet
Validated: 1
Ligature2: "'liga' Standard-Ligaturen in Lateinisch Nachschlagetabelle 0-1" m u
EndChar

StartChar: tok.mun
Encoding: 58 989498 58
Width: 1200
VWidth: 28000
Flags: W
HStem: -300.001 199.852<478.741 720.711> 100 200<317 467.226>
VStem: 500 200<332.774 483> 900.149 199.852<79.2894 321.259>
LayerCount: 2
Fore
SplineSet
700 483 m 1
 700 400 l 2
 700 236 564 100 400 100 c 2
 317 100 l 1
 345 21 405 -44 485 -77 c 0
 522.152131311 -92.5906265322 561.174860089 -100.148687467 599.87816482 -100.148687467 c 0
 677.851076956 -100.148687467 754.527529399 -69.4724706007 812 -12 c 0
 869.472470601 45.4724706007 900.148687467 122.148923044 900.148687467 200.12183518 c 0
 900.148687467 238.825139911 892.590626532 277.847868689 877 315 c 0
 844 395 779 455 700 483 c 1
600 700 m 0
 802 700 985 578 1062 391 c 0
 1087.55311068 328.942445484 1100.00073741 263.801247682 1100.00073741 199.231169034 c 0
 1100.00073741 69.2301789174 1049.54422302 -58.4557769831 954 -154 c 0
 858.455776983 -249.544223017 730.769821083 -300.000737405 600.768830966 -300.000737405 c 0
 536.198752318 -300.000737405 471.057554516 -287.553110683 409 -262 c 0
 222 -185 100 -2 100 200 c 0
 100 210 102 219 105 228 c 0
 105 229 106 231 106 232 c 0
 109 241 113 248 118 256 c 0
 119 257 120 259 121 260 c 0
 126 267 133 274 140 279 c 0
 141 280 143 281 144 282 c 0
 152 287 159 291 168 294 c 0
 169 294 171 295 172 295 c 0
 181 298 190 300 200 300 c 2
 400 300 l 2
 456 300 500 344 500 400 c 2
 500 600 l 2
 500 610 502 619 505 628 c 0
 505 629 506 631 506 632 c 0
 509 641 513 648 518 656 c 0
 519 657 520 659 521 660 c 0
 526 667 533 674 540 679 c 0
 541 680 543 681 544 682 c 0
 552 687 559 691 568 694 c 0
 569 694 571 695 572 695 c 0
 581 698 590 700 600 700 c 0
EndSplineSet
Validated: 1
Ligature2: "'liga' Standard-Ligaturen in Lateinisch Nachschlagetabelle 0-1" m u n
EndChar

StartChar: tok.musi
Encoding: 59 989499 59
Width: 1200
VWidth: 24400
Flags: W
HStem: -300 200<481.706 723.844>
VStem: 100 400<404.871 595.129> 100 200<87.4373 300> 700 400<404.871 595.129> 900 200<81.7484 300>
LayerCount: 2
Fore
SplineSet
300 700 m 0xa0
 410 700 500 610 500 500 c 0xc0
 500 390 410 300 300 300 c 1
 300 200 l 2
 300 33 433 -100 600 -100 c 0
 767 -100 900 33 900 200 c 2
 900 300 l 1xa8
 790 300 700 390 700 500 c 0x90
 700 610 790 700 900 700 c 0x88
 1008 700 1096 615 1100 507 c 0
 1100 505 1100 502 1100 500 c 2x90
 1100 200 l 2
 1100 198 1100 195 1100 193 c 0
 1096 -79 873 -300 600 -300 c 0
 325 -300 100 -75 100 200 c 2xa8
 100 500 l 2xc0
 100 610 190 700 300 700 c 0xa0
EndSplineSet
Validated: 1
Ligature2: "'liga' Standard-Ligaturen in Lateinisch Nachschlagetabelle 0-1" m u s i
EndChar

StartChar: tok.mute
Encoding: 60 989500 60
Width: 1200
VWidth: 24100
Flags: W
VStem: 200 200<-167.147 567.147> 500 200<-267.147 667.147> 800 200<-167.147 567.147>
CounterMasks: 1 e0
LayerCount: 2
Fore
SplineSet
900 600 m 0
 955 600 1000 555 1000 500 c 2
 1000 -100 l 2
 1000 -155 955 -200 900 -200 c 0
 845 -200 800 -155 800 -100 c 2
 800 500 l 2
 800 555 845 600 900 600 c 0
300 600 m 0
 355 600 400 555 400 500 c 2
 400 -100 l 2
 400 -155 355 -200 300 -200 c 0
 245 -200 200 -155 200 -100 c 2
 200 500 l 2
 200 555 245 600 300 600 c 0
600 700 m 0
 655 700 700 655 700 600 c 2
 700 -200 l 2
 700 -255 655 -300 600 -300 c 0
 545 -300 500 -255 500 -200 c 2
 500 600 l 2
 500 655 545 700 600 700 c 0
EndSplineSet
Validated: 1
Ligature2: "'liga' Standard-Ligaturen in Lateinisch Nachschlagetabelle 0-1" m u t e
EndChar

StartChar: tok.nanpa
Encoding: 61 989501 61
Width: 1200
VWidth: 28100
Flags: W
HStem: -100 200<132.853 300 500 700 900 1067.15> 300 200<132.853 300 500 700 900 1067.15>
VStem: 300 200<-267.147 -100 100 300 500 667.147> 700 200<-267.147 -100 100 300 500 667.147>
LayerCount: 2
Fore
SplineSet
500 300 m 1
 500 100 l 1
 700 100 l 1
 700 300 l 1
 500 300 l 1
400 700 m 0
 455 700 500 655 500 600 c 2
 500 500 l 1
 700 500 l 1
 700 600 l 2
 700 655 745 700 800 700 c 0
 855 700 900 655 900 600 c 2
 900 500 l 1
 1000 500 l 2
 1055 500 1100 455 1100 400 c 0
 1100 345 1055 300 1000 300 c 2
 900 300 l 1
 900 100 l 1
 1000 100 l 2
 1055 100 1100 55 1100 0 c 0
 1100 -55 1055 -100 1000 -100 c 2
 900 -100 l 1
 900 -200 l 2
 900 -255 855 -300 800 -300 c 0
 745 -300 700 -255 700 -200 c 2
 700 -100 l 1
 500 -100 l 1
 500 -200 l 2
 500 -255 455 -300 400 -300 c 0
 345 -300 300 -255 300 -200 c 2
 300 -100 l 1
 200 -100 l 2
 145 -100 100 -55 100 0 c 0
 100 55 145 100 200 100 c 2
 300 100 l 1
 300 300 l 1
 200 300 l 2
 145 300 100 345 100 400 c 0
 100 455 145 500 200 500 c 2
 300 500 l 1
 300 600 l 2
 300 655 345 700 400 700 c 0
EndSplineSet
Validated: 1
Ligature2: "'liga' Standard-Ligaturen in Lateinisch Nachschlagetabelle 0-1" n a n p a
EndChar

StartChar: tok.nasa
Encoding: 62 989502 62
Width: 1200
VWidth: 24400
Flags: W
HStem: -300 200<481.706 718.294> 500 200<332.615 467.385>
VStem: 100 200<87.4373 467.226> 500 200<132.853 467.226> 900 200<87.4373 667.147>
CounterMasks: 1 38
LayerCount: 2
Fore
SplineSet
400 700 m 0
 564 700 700 564 700 400 c 2
 700 200 l 2
 700 145 655 100 600 100 c 0
 545 100 500 145 500 200 c 2
 500 400 l 2
 500 456 456 500 400 500 c 0
 344 500 300 456 300 400 c 2
 300 200 l 2
 300 33 433 -100 600 -100 c 0
 767 -100 900 33 900 200 c 2
 900 600 l 2
 900 655 945 700 1000 700 c 0
 1055 700 1100 655 1100 600 c 2
 1100 200 l 2
 1100 -75 875 -300 600 -300 c 0
 325 -300 100 -75 100 200 c 2
 100 400 l 2
 100 564 236 700 400 700 c 0
EndSplineSet
Validated: 1
Ligature2: "'liga' Standard-Ligaturen in Lateinisch Nachschlagetabelle 0-1" n a s a
EndChar

StartChar: tok.nasin
Encoding: 63 989503 63
Width: 1200
VWidth: 28000
Flags: W
HStem: -0.25 21G<287.125 312.875 887.125 912.875>
VStem: 500 200<-267.147 159 441 667.147>
LayerCount: 2
Fore
SplineSet
600 700 m 0
 655 700 700 655 700 600 c 2
 700 441 l 1
 971 171 l 2
 990.5 151.5 1000.25 125.75 1000.25 100 c 0
 1000.25 74.25 990.5 48.5 971 29 c 0
 951.5 9.5 925.75 -0.25 900 -0.25 c 0
 874.25 -0.25 848.5 9.5 829 29 c 2
 700 159 l 1
 700 -200 l 2
 700 -255 655 -300 600 -300 c 0
 545 -300 500 -255 500 -200 c 2
 500 159 l 1
 371 29 l 2
 351.5 9.5 325.75 -0.25 300 -0.25 c 0
 274.25 -0.25 248.5 9.5 229 29 c 0
 209.5 48.5 199.75 74.25 199.75 100 c 0
 199.75 125.75 209.5 151.5 229 171 c 2
 500 441 l 1
 500 600 l 2
 500 655 545 700 600 700 c 0
EndSplineSet
Validated: 1
Ligature2: "'liga' Standard-Ligaturen in Lateinisch Nachschlagetabelle 0-1" n a s i n
EndChar

StartChar: tok.nena
Encoding: 64 989504 64
Width: 1200
VWidth: 30500
Flags: W
HStem: 500.5 199.5<479.239 720.761>
VStem: 100 200<-267.147 319.523> 900 200<-267.147 319.523>
LayerCount: 2
Fore
SplineSet
600 700 m 0
 686 700 773 678 850 633 c 0
 1005 544 1100 379 1100 200 c 2
 1100 -200 l 2
 1100 -255 1055 -300 1000 -300 c 0
 945 -300 900 -255 900 -200 c 2
 900 200 l 2
 900 307 843 406 750 460 c 0
 703.5 487 651.75 500.5 600 500.5 c 0
 548.25 500.5 496.5 487 450 460 c 0
 357 406 300 307 300 200 c 2
 300 -200 l 2
 300 -255 255 -300 200 -300 c 0
 145 -300 100 -255 100 -200 c 2
 100 200 l 2
 100 379 195 544 350 633 c 0
 427 678 514 700 600 700 c 0
EndSplineSet
Validated: 1
Ligature2: "'liga' Standard-Ligaturen in Lateinisch Nachschlagetabelle 0-1" n e n a
EndChar

StartChar: tok.ni
Encoding: 65 989505 65
Width: 1200
VWidth: 25600
Flags: W
VStem: 500 200<41 667.147>
LayerCount: 2
Fore
SplineSet
600 700 m 0
 655 700 700 655 700 600 c 2
 700 41 l 1
 829 171 l 2
 848.5 190.5 874.25 200.25 900 200.25 c 0
 925.75 200.25 951.5 190.5 971 171 c 0
 990.5 151.5 1000.25 125.75 1000.25 100 c 0
 1000.25 74.25 990.5 48.5 971 29 c 2
 671 -271 l 2
 666 -276 659 -281 653 -285 c 0
 652 -285 l 0
 649 -286 646 -288 643 -289 c 0
 640 -291 636 -293 633 -294 c 0
 632 -294 631 -295 630 -295 c 0
 627 -296 623 -296 620 -297 c 0
 619 -297 l 0
 616 -298 614 -298 611 -299 c 0
 609 -299 606 -299 604 -299 c 0
 603 -299 601 -300 600 -300 c 0
 599 -300 597 -299 596 -299 c 0
 591 -299 586 -298 581 -297 c 0
 577 -296 574 -296 570 -295 c 0
 565 -293 561 -291 557 -289 c 0
 554 -288 551 -286 548 -285 c 0
 541 -281 535 -277 529 -271 c 2
 229 29 l 2
 209.5 48.5 199.75 74.25 199.75 100 c 0
 199.75 125.75 209.5 151.5 229 171 c 0
 248.5 190.5 274.25 200.25 300 200.25 c 0
 325.75 200.25 351.5 190.5 371 171 c 2
 500 41 l 1
 500 600 l 2
 500 655 545 700 600 700 c 0
EndSplineSet
Validated: 1
Ligature2: "'liga' Standard-Ligaturen in Lateinisch Nachschlagetabelle 0-1" n i
EndChar

StartChar: tok.nimi
Encoding: 66 989506 66
Width: 1200
VWidth: 25400
Flags: W
HStem: -100 200<300 900> 300 200<300 900>
VStem: 100 200<100 300> 900 200<100 300>
LayerCount: 2
Fore
SplineSet
300 300 m 1
 300 100 l 1
 900 100 l 1
 900 300 l 1
 300 300 l 1
200 500 m 2
 1000 500 l 2
 1055 500 1100 455 1100 400 c 2
 1100 0 l 2
 1100 -55 1055 -100 1000 -100 c 2
 200 -100 l 2
 145 -100 100 -55 100 0 c 2
 100 400 l 2
 100 455 145 500 200 500 c 2
EndSplineSet
Validated: 1
Ligature2: "'liga' Standard-Ligaturen in Lateinisch Nachschlagetabelle 0-1" n i m i
EndChar

StartChar: tok.noka
Encoding: 67 989507 67
Width: 1200
VWidth: 30500
Flags: W
HStem: -300 200<300 863.903> 100 600<532.853 667.147> 100 200<700 863.903>
VStem: 100 200<-100 667.147> 500 200<300 667.147> 900.5 200<-67.4144 67.4144>
LayerCount: 2
Fore
SplineSet
200 700 m 0xdc
 255 700 300 655 300 600 c 2
 300 -100 l 1
 800 -100 l 2
 836 -100 869 -81 887 -50 c 0
 896 -34.5 900.5 -17.25 900.5 0 c 0
 900.5 17.25 896 34.5 887 50 c 0
 869 81 836 100 800 100 c 2xbc
 600 100 l 2
 545 100 500 145 500 200 c 2
 500 600 l 2
 500 655 545 700 600 700 c 0xdc
 655 700 700 655 700 600 c 2
 700 300 l 1
 800 300 l 2xbc
 907 300 1006 243 1060 150 c 0
 1087 103.5 1100.5 51.75 1100.5 0 c 0
 1100.5 -51.75 1087 -103.5 1060 -150 c 0
 1006 -243 907 -300 800 -300 c 2
 200 -300 l 2
 145 -300 100 -255 100 -200 c 2
 100 600 l 2
 100 655 145 700 200 700 c 0xdc
EndSplineSet
Validated: 1
Ligature2: "'liga' Standard-Ligaturen in Lateinisch Nachschlagetabelle 0-1" n o k a
EndChar

StartChar: tok.o
Encoding: 68 989508 68
Width: 1200
VWidth: 25600
Flags: W
HStem: -300 200<532.615 667.385> 100 600<533.548 666.452>
VStem: 300 200<-67.385 66.1419> 500 200<274.318 667.147> 700 200<-67.385 66.1419>
LayerCount: 2
Fore
SplineSet
600 100 m 0xe8
 544 100 500 56 500 0 c 0
 500 -56 544 -100 600 -100 c 0
 656 -100 700 -56 700 0 c 0
 700 56 656 100 600 100 c 0xe8
600 700 m 0
 655 700 700 655 700 600 c 2
 700 283 l 2xd0
 816 241 900 129 900 0 c 0
 900 -164 764 -300 600 -300 c 0
 436 -300 300 -164 300 0 c 0xe8
 300 129 384 241 500 283 c 2
 500 600 l 2xd0
 500 655 545 700 600 700 c 0
EndSplineSet
Validated: 1
Ligature2: "'liga' Standard-Ligaturen in Lateinisch Nachschlagetabelle 0-1" o
EndChar

StartChar: tok.olin
Encoding: 69 989509 69
Width: 1200
VWidth: 25500
Flags: W
HStem: 500 200<132.853 267.147 532.853 667.147 932.853 1067.15>
VStem: 100 200<532.853 667.147> 500 200<532.853 667.147> 900 200<532.853 667.147>
CounterMasks: 1 70
LayerCount: 2
Fore
SplineSet
400 259 m 1
 341 200 l 1
 600 -59 l 1
 859 200 l 1
 800 259 l 1
 671 129 l 2
 651.5 109.5 625.75 99.75 600 99.75 c 0
 574.25 99.75 548.5 109.5 529 129 c 2
 400 259 l 1
384 499 m 0
 389.393947222 499.842804253 394.787894444 500.259417101 400.138738155 500.259417101 c 0
 426.532179601 500.259417101 451.876899566 490.123100434 471 471 c 2
 600 341 l 1
 729 471 l 2
 748.5 490.5 774.25 500.25 800 500.25 c 0
 825.75 500.25 851.5 490.5 871 471 c 2
 1071 271 l 2
 1090.5 251.5 1100.25 225.75 1100.25 200 c 0
 1100.25 174.25 1090.5 148.5 1071 129 c 2
 671 -271 l 2
 651.5 -290.5 625.75 -300.25 600 -300.25 c 0
 574.25 -300.25 548.5 -290.5 529 -271 c 2
 129 129 l 2
 109.5 148.5 99.75 174.25 99.75 200 c 0
 99.75 225.75 109.5 251.5 129 271 c 2
 329 471 l 2
 344 486 363 496 384 499 c 0
1000 700 m 0
 1055 700 1100 655 1100 600 c 0
 1100 545 1055 500 1000 500 c 0
 945 500 900 545 900 600 c 0
 900 655 945 700 1000 700 c 0
600 700 m 0
 655 700 700 655 700 600 c 0
 700 545 655 500 600 500 c 0
 545 500 500 545 500 600 c 0
 500 655 545 700 600 700 c 0
200 700 m 0
 255 700 300 655 300 600 c 0
 300 545 255 500 200 500 c 0
 145 500 100 545 100 600 c 0
 100 655 145 700 200 700 c 0
EndSplineSet
Validated: 1
Ligature2: "'liga' Standard-Ligaturen in Lateinisch Nachschlagetabelle 0-1" o l i n
EndChar

StartChar: tok.ona
Encoding: 70 989510 70
Width: 1200
VWidth: 30200
Flags: W
HStem: -100 200<132.853 517 732.456 867.226> 300 200<732.615 867.385>
VStem: 500 200<132.704 267.385> 900 200<132.615 267.385>
LayerCount: 2
Fore
SplineSet
800 300 m 0
 744 300 700 256 700 200 c 0
 700 144 744 100 800 100 c 0
 856 100 900 144 900 200 c 0
 900 256 856 300 800 300 c 0
800 500 m 0
 964 500 1100 364 1100 200 c 0
 1100 36 964 -100 800 -100 c 0
 794 -100 787 -99 781 -99 c 0
 779 -99 777 -100 775 -100 c 2
 200 -100 l 2
 145 -100 100 -55 100 0 c 0
 100 55 145 100 200 100 c 2
 517 100 l 1
 506 131 500 165 500 200 c 0
 500 364 636 500 800 500 c 0
EndSplineSet
Validated: 1
Ligature2: "'liga' Standard-Ligaturen in Lateinisch Nachschlagetabelle 0-1" o n a
EndChar

StartChar: tok.open
Encoding: 71 989511 71
Width: 1200
VWidth: 25600
Flags: W
HStem: -300 200<300 900> 100 200<300 900>
VStem: 100 200<-100 100 300 667.147> 900 200<-100 100 300 667.147>
LayerCount: 2
Fore
SplineSet
300 100 m 1
 300 -100 l 1
 900 -100 l 1
 900 100 l 1
 300 100 l 1
200 700 m 0
 255 700 300 655 300 600 c 2
 300 300 l 1
 900 300 l 1
 900 600 l 2
 900 655 945 700 1000 700 c 0
 1055 700 1100 655 1100 600 c 2
 1100 -200 l 2
 1100 -255 1055 -300 1000 -300 c 2
 200 -300 l 2
 145 -300 100 -255 100 -200 c 2
 100 600 l 2
 100 655 145 700 200 700 c 0
EndSplineSet
Validated: 1
Ligature2: "'liga' Standard-Ligaturen in Lateinisch Nachschlagetabelle 0-1" o p e n
EndChar

StartChar: tok.pakala
Encoding: 72 989512 72
Width: 1200
VWidth: 25500
Flags: W
HStem: -300 200<300 438 662 900> 500 200<300 538 762 900>
VStem: 100 200<-100 500> 400.396 399.209<135.078 264.922> 900 200<-100 500>
CounterMasks: 1 38
LayerCount: 2
Fore
SplineSet
762 500 m 1
 662 300 l 1
 700 300 l 2
 757.708185024 300 799.604445269 252.564225665 799.604445269 199.901874386 c 0
 799.604445269 185.034567731 796.265268841 169.750697344 789 155 c 2
 662 -100 l 1
 900 -100 l 1
 900 500 l 1
 762 500 l 1
300 500 m 1
 300 -100 l 1
 438 -100 l 1
 538 100 l 1
 500 100 l 2
 442.291814976 100 400.395554731 147.435774335 400.395554731 200.098125614 c 0
 400.395554731 214.965432269 403.734731159 230.249302656 411 245 c 2
 538 500 l 1
 300 500 l 1
200 700 m 2
 1000 700 l 2
 1055 700 1100 655 1100 600 c 2
 1100 -200 l 2
 1100 -255 1055 -300 1000 -300 c 2
 200 -300 l 2
 145 -300 100 -255 100 -200 c 2
 100 600 l 2
 100 655 145 700 200 700 c 2
EndSplineSet
Validated: 1
Ligature2: "'liga' Standard-Ligaturen in Lateinisch Nachschlagetabelle 0-1" p a k a l a
EndChar

StartChar: tok.pali
Encoding: 73 989513 73
Width: 1200
VWidth: 25600
Flags: W
HStem: 100 200<633.067 766.933> 500 200<632.615 767.385>
VStem: 400 200<332.573 467.385> 800 200<332.573 467.385> 900 200<-267.147 -2.80216>
LayerCount: 2
Fore
SplineSet
700 500 m 0xf0
 644 500 600 456 600 400 c 0
 600 344 644 300 700 300 c 0
 756 300 800 344 800 400 c 0
 800 456 756 500 700 500 c 0xf0
700 700 m 0
 864 700 1000 564 1000 400 c 0xf0
 1000 333 977 270 939 220 c 1
 1038 146 1098 31 1100 -94 c 0
 1100 -96 1100 -98 1100 -100 c 2
 1100 -200 l 2xe8
 1100 -255 1055 -300 1000 -300 c 0xf0
 945 -300 900 -255 900 -200 c 2
 900 -100 l 2xe8
 900 -28 862 37 800 73 c 0
 769 91 734.5 100 700 100 c 0
 665.5 100 631 91 600 73 c 0
 538 37 500 -28 500 -100 c 2
 500 -197 l 2
 500 -200 500 -202 500 -205 c 2
 500 -206 l 2
 500 -207 499 -209 499 -210 c 0
 499 -214 498 -218 497 -222 c 0
 497 -224 l 0
 497 -225 496 -227 496 -228 c 0
 496 -229 495 -229 495 -230 c 0
 495 -231 494 -232 494 -233 c 0
 494 -234 494 -236 493 -237 c 0
 492 -238 l 0
 491 -240 491 -241 490 -243 c 0
 489 -245 489 -246 488 -248 c 0
 487 -249 l 0
 486 -250 486 -252 485 -253 c 0
 485 -254 484 -254 484 -255 c 0
 483 -257 481 -258 480 -260 c 0
 479 -261 478 -261 478 -262 c 0
 477 -263 476 -265 475 -266 c 0
 475 -267 l 0
 474 -268 472 -270 471 -271 c 0
 452 -290 427 -300 400 -300 c 0
 394 -300 388 -299 382 -298 c 0
 381 -298 379 -297 378 -297 c 0
 374 -296 369 -295 365 -293 c 0
 363 -292 360 -292 358 -291 c 0
 355 -289 352 -288 349 -286 c 0
 347 -285 345 -283 343 -282 c 0
 338 -279 333 -275 329 -271 c 2
 129 -71 l 2
 109.5 -51.5 99.75 -25.75 99.75 0 c 0
 99.75 25.75 109.5 51.5 129 71 c 0
 148.5 90.5 174.25 100.25 200 100.25 c 0
 225.75 100.25 251.5 90.5 271 71 c 2
 319 22 l 1
 344 101 394 170 461 220 c 1
 423 270 400 333 400 400 c 0
 400 564 536 700 700 700 c 0
EndSplineSet
Validated: 5
Ligature2: "'liga' Standard-Ligaturen in Lateinisch Nachschlagetabelle 0-1" p a l i
EndChar

StartChar: tok.palisa
Encoding: 74 989514 74
Width: 1200
VWidth: 30300
Flags: W
HStem: -300.5 200<532.586 667.414> 500 200<532.453 667.547>
VStem: 300 200<-63.9028 463.903> 700 200<-63.9028 463.903>
LayerCount: 2
Fore
SplineSet
600 500 m 0
 583 500 566 496 550 487 c 0
 519 469 500 436 500 400 c 2
 500 0 l 2
 500 -36 519 -69 550 -87 c 0
 565.5 -96 582.75 -100.5 600 -100.5 c 0
 617.25 -100.5 634.5 -96 650 -87 c 0
 681 -69 700 -36 700 0 c 2
 700 400 l 2
 700 436 681 469 650 487 c 0
 634 496 617 500 600 500 c 0
600 700 m 0
 652 700 704 687 750 660 c 0
 843 606 900 507 900 400 c 2
 900 0 l 2
 900 -107 843 -206 750 -260 c 0
 703.5 -287 651.75 -300.5 600 -300.5 c 0
 548.25 -300.5 496.5 -287 450 -260 c 0
 357 -206 300 -107 300 0 c 2
 300 400 l 2
 300 507 357 606 450 660 c 0
 496 687 548 700 600 700 c 0
EndSplineSet
Validated: 1
Ligature2: "'liga' Standard-Ligaturen in Lateinisch Nachschlagetabelle 0-1" p a l i s a
EndChar

StartChar: tok.pan
Encoding: 75 989515 75
Width: 1200
VWidth: 25000
Flags: W
HStem: 0.5 21G<590.5 609.5>
LayerCount: 2
Fore
SplineSet
306 100 m 0
 323 99 340 93 355 83 c 2
 600 -80 l 1
 845 83 l 2
 861.988840874 94.4490014583 881.023669797 99.8964379705 899.837597722 99.8964379705 c 0
 931.965384478 99.8964379705 963.449001458 84.0111591264 983 55 c 0
 994.449001458 38.0111591264 999.89643797 18.9763302029 999.89643797 0.162402277896 c 0
 999.89643797 -31.9653844783 984.011159126 -63.4490014583 955 -83 c 2
 655 -283 l 2
 638 -294 619 -299.5 600 -299.5 c 0
 581 -299.5 562 -294 545 -283 c 2
 245 -83 l 2
 215.988840874 -63.4490014583 200.10356203 -31.9653844783 200.10356203 0.162402277896 c 0
 200.10356203 18.9763302029 205.550998542 38.0111591264 217 55 c 0
 235.938472308 83.4077084613 266.533580949 100.158780589 300.294599601 100.158780589 c 0
 302.186951615 100.158780589 304.089250154 100.106152769 306 100 c 0
306 400 m 0
 323 399 340 393 355 383 c 2
 600 220 l 1
 845 383 l 2
 861.988840874 394.449001458 881.023669797 399.89643797 899.837597722 399.89643797 c 0
 931.965384478 399.89643797 963.449001458 384.011159126 983 355 c 0
 994.449001458 338.011159126 999.89643797 318.976330203 999.89643797 300.162402278 c 0
 999.89643797 268.034615522 984.011159126 236.550998542 955 217 c 2
 655 17 l 2
 638 6 619 0.5 600 0.5 c 0
 581 0.5 562 6 545 17 c 2
 245 217 l 2
 215.988840874 236.550998542 200.10356203 268.034615522 200.10356203 300.162402278 c 0
 200.10356203 318.976330203 205.550998542 338.011159126 217 355 c 0
 235.938472308 383.407708461 266.533580949 400.158780589 300.294599601 400.158780589 c 0
 302.186951615 400.158780589 304.089250154 400.106152769 306 400 c 0
306 700 m 0
 323 699 340 693 355 683 c 2
 600 520 l 1
 845 683 l 2
 861.988840874 694.449001458 881.023669797 699.89643797 899.837597722 699.89643797 c 0
 931.965384478 699.89643797 963.449001458 684.011159126 983 655 c 0
 994.449001458 638.011159126 999.89643797 618.976330203 999.89643797 600.162402278 c 0
 999.89643797 568.034615522 984.011159126 536.550998542 955 517 c 2
 655 317 l 2
 638 306 619 300.5 600 300.5 c 0
 581 300.5 562 306 545 317 c 2
 245 517 l 2
 215.988840874 536.550998542 200.10356203 568.034615522 200.10356203 600.162402278 c 0
 200.10356203 618.976330203 205.550998542 638.011159126 217 655 c 0
 235.938472308 683.407708461 266.533580949 700.158780589 300.294599601 700.158780589 c 0
 302.186951615 700.158780589 304.089250154 700.106152769 306 700 c 0
EndSplineSet
Validated: 1
Ligature2: "'liga' Standard-Ligaturen in Lateinisch Nachschlagetabelle 0-1" p a n
EndChar

StartChar: tok.pana
Encoding: 76 989516 76
Width: 1200
VWidth: 31600
Flags: W
HStem: 200 200<602.573 797.427> 400 200<332.853 467.147 932.853 1067.15> 500 200<632.853 767.147>
VStem: 99.75 400.25<-67.272 36.3929> 300 200<432.853 567.147> 600 200<532.853 667.147> 900 200<-267.147 96.7935 432.853 567.147>
LayerCount: 2
Fore
SplineSet
700 400 m 0x8e
 769 400 838 382 900 346 c 0
 1022 276 1097 147 1100 7 c 0
 1100 6 l 0
 1100 4 1100 2 1100 0 c 2
 1100 -200 l 2
 1100 -255 1055 -300 1000 -300 c 0
 945 -300 900 -255 900 -200 c 2
 900 0 l 2
 900 72 862 137 800 173 c 0
 769 191 734.5 200 700 200 c 0
 665.5 200 631 191 600 173 c 0
 538 137 500 72 500 0 c 2x96
 500 -197 l 2
 500 -200 500 -202 500 -205 c 0
 500 -206 l 0x8e
 500 -207 499 -209 499 -210 c 0
 499 -215 498 -220 497 -225 c 0
 497 -227 496 -228 495 -230 c 0
 495 -231 l 0
 494 -235 492 -239 490 -243 c 0
 489 -245 488 -247 487 -249 c 0
 486 -250 486 -251 485 -252 c 0
 484 -254 l 0
 484 -255 l 0
 483 -256 482 -258 481 -259 c 0
 480 -260 l 0
 479 -261 478 -263 477 -264 c 0
 476 -265 476 -265 475 -266 c 0
 474 -267 474 -267 473 -268 c 0
 472 -269 472 -270 471 -271 c 0
 467 -275 461 -279 456 -282 c 0
 455 -283 l 0
 450 -286 445 -290 439 -292 c 0
 438 -292 l 0
 426 -297 413 -300 400 -300 c 0
 394 -300 388 -299 382 -298 c 0
 380 -298 377 -297 375 -296 c 0
 371 -295 368 -294 364 -293 c 0
 361 -292 359 -290 356 -289 c 0
 353 -288 351 -287 348 -285 c 0
 345 -283 342 -282 340 -280 c 0
 337 -278 335 -275 333 -273 c 0
 332 -272 330 -272 329 -271 c 2
 129 -71 l 2
 109.5 -51.5 99.75 -25.75 99.75 0 c 0x96
 99.75 25.75 109.5 51.5 129 71 c 0
 148 90 173 100 200 100 c 0
 227 100 252 90 271 71 c 2
 302 39 l 1
 314 166 388 281 500 346 c 0
 562 382 631 400 700 400 c 0x8e
1000 600 m 0x46
 1055 600 1100 555 1100 500 c 0x26
 1100 445 1055 400 1000 400 c 0x46
 945 400 900 445 900 500 c 0x26
 900 555 945 600 1000 600 c 0x46
400 600 m 0x4e
 455 600 500 555 500 500 c 0x2e
 500 445 455 400 400 400 c 0x4e
 345 400 300 445 300 500 c 0x2e
 300 555 345 600 400 600 c 0x4e
700 700 m 0
 755 700 800 655 800 600 c 0x46
 800 545 755 500 700 500 c 0x26
 645 500 600 545 600 600 c 0x46
 600 655 645 700 700 700 c 0
EndSplineSet
Validated: 5
Ligature2: "'liga' Standard-Ligaturen in Lateinisch Nachschlagetabelle 0-1" p a n a
EndChar

StartChar: tok.pi
Encoding: 77 989517 77
Width: 1200
VWidth: 31300
Flags: W
HStem: -300 200<300 1067.15>
VStem: 100 200<-100 667.147>
LayerCount: 2
Fore
SplineSet
200 700 m 0
 255 700 300 655 300 600 c 2
 300 -100 l 1
 1000 -100 l 2
 1055 -100 1100 -145 1100 -200 c 0
 1100 -255 1055 -300 1000 -300 c 2
 200 -300 l 2
 145 -300 100 -255 100 -200 c 2
 100 600 l 2
 100 655 145 700 200 700 c 0
EndSplineSet
Validated: 1
Ligature2: "'liga' Standard-Ligaturen in Lateinisch Nachschlagetabelle 0-1" p i
EndChar

StartChar: tok.pilin
Encoding: 78 989518 78
Width: 1200
VWidth: 31500
Flags: W
VStem: 100 200<241 359> 900 200<241 359>
LayerCount: 2
Fore
SplineSet
400 459 m 1
 300 359 l 1
 300 241 l 1
 600 -59 l 1
 900 241 l 1
 900 359 l 1
 800 459 l 1
 671 329 l 2
 651.5 309.5 625.75 299.75 600 299.75 c 0
 574.25 299.75 548.5 309.5 529 329 c 2
 400 459 l 1
384 699 m 0
 389.393947222 699.842804253 394.787894444 700.259417101 400.138738155 700.259417101 c 0
 426.532179601 700.259417101 451.876899566 690.123100434 471 671 c 2
 600 541 l 1
 729 671 l 2
 748.5 690.5 774.25 700.25 800 700.25 c 0
 825.75 700.25 851.5 690.5 871 671 c 2
 1071 471 l 2
 1090 452 1100 427 1100 400 c 2
 1100 200 l 2
 1100 173 1090 148 1071 129 c 2
 671 -271 l 2
 651.5 -290.5 625.75 -300.25 600 -300.25 c 0
 574.25 -300.25 548.5 -290.5 529 -271 c 2
 129 129 l 2
 110 148 100 173 100 200 c 2
 100 400 l 2
 100 427 110 452 129 471 c 2
 329 671 l 2
 344 686 363 696 384 699 c 0
EndSplineSet
Validated: 1
Ligature2: "'liga' Standard-Ligaturen in Lateinisch Nachschlagetabelle 0-1" p i l i n
EndChar

StartChar: tok.pimeja
Encoding: 79 989519 79
Width: 1200
VWidth: 31500
Flags: W
HStem: -300 200<441 759>
LayerCount: 2
Fore
SplineSet
600 59 m 1
 441 -100 l 1
 759 -100 l 1
 600 59 l 1
194 700 m 0
 195.81836926 700.101020514 197.626533375 700.151015307 199.424492346 700.151015307 c 0
 215.424492346 700.151015307 230.616328231 696.191835885 245 689 c 2
 600 512 l 1
 955 689 l 2
 969.4 696.2 985.24 699.8 1001.008 699.8 c 0
 1011.52 699.8 1022 698.2 1032 695 c 0
 1057 687 1077 669 1089 645 c 0
 1096.32611134 630.640821771 1099.78784535 615.337017972 1099.78784535 600.246188154 c 0
 1099.78784535 563.840292375 1079.64082177 528.673888659 1045 511 c 2
 824 400 l 1
 1045 289 l 2
 1079.64082177 271.326111341 1099.78784535 236.159707625 1099.78784535 199.753811846 c 0
 1099.78784535 184.662982028 1096.32611134 169.359178229 1089 155 c 0
 1071.32611134 120.359178229 1036.15970763 100.212154649 999.753811846 100.212154649 c 0
 984.662982028 100.212154649 969.359178229 103.673888659 955 111 c 2
 706 235 l 1
 1071 -129 l 2
 1091.31620193 -149.316201933 1100.40116411 -174.312087097 1100.40116411 -198.856710661 c 0
 1100.40116411 -250.42430973 1060.29933378 -300 1000 -300 c 2
 200 -300 l 2
 139.700666223 -300 99.5988358887 -250.42430973 99.5988358887 -198.856710661 c 0
 99.5988358887 -174.312087097 108.683798067 -149.316201933 129 -129 c 2
 494 235 l 1
 245 111 l 2
 230.640821771 103.673888659 215.337017972 100.212154649 200.246188154 100.212154649 c 0
 163.840292375 100.212154649 128.673888659 120.359178229 111 155 c 0
 103.673888659 169.359178229 100.212154649 184.662982028 100.212154649 199.753811846 c 0
 100.212154649 236.159707625 120.359178229 271.326111341 155 289 c 2
 376 400 l 1
 155 511 l 2
 120.359178229 528.673888659 100.212154649 563.840292375 100.212154649 600.246188154 c 0
 100.212154649 615.337017972 103.673888659 630.640821771 111 645 c 0
 123 669 143 687 168 695 c 0
 176 698 185 700 194 700 c 0
EndSplineSet
Validated: 1
Ligature2: "'liga' Standard-Ligaturen in Lateinisch Nachschlagetabelle 0-1" p i m e j a
EndChar

StartChar: tok.pini
Encoding: 80 989520 80
Width: 1200
VWidth: 26800
Flags: W
HStem: -300 200<232.853 500 700 967.147> 500 200<232.853 500 700 967.147>
VStem: 500 200<-100 500>
LayerCount: 2
Fore
SplineSet
300 700 m 2
 900 700 l 2
 955 700 1000 655 1000 600 c 0
 1000 545 955 500 900 500 c 2
 700 500 l 1
 700 -100 l 1
 900 -100 l 2
 955 -100 1000 -145 1000 -200 c 0
 1000 -255 955 -300 900 -300 c 2
 300 -300 l 2
 245 -300 200 -255 200 -200 c 0
 200 -145 245 -100 300 -100 c 2
 500 -100 l 1
 500 500 l 1
 300 500 l 2
 245 500 200 545 200 600 c 0
 200 655 245 700 300 700 c 2
EndSplineSet
Validated: 1
Ligature2: "'liga' Standard-Ligaturen in Lateinisch Nachschlagetabelle 0-1" p i n i
EndChar

StartChar: tok.pipi
Encoding: 81 989521 81
Width: 1200
VWidth: 26500
Flags: W
HStem: -100 200<232.853 500 700 967.147> 200 200<232.853 500 700 967.147> 500 200<232.853 367.147 832.853 967.147>
VStem: 200 200<532.853 667.147> 500 200<-267.147 -100 100 200 400 567.147> 800 200<532.853 667.147>
CounterMasks: 1 fc
LayerCount: 2
Fore
SplineSet
600 600 m 0
 655 600 700 555 700 500 c 2
 700 400 l 1
 900 400 l 2
 955 400 1000 355 1000 300 c 0
 1000 245 955 200 900 200 c 2
 700 200 l 1
 700 100 l 1
 900 100 l 2
 955 100 1000 55 1000 0 c 0
 1000 -55 955 -100 900 -100 c 2
 700 -100 l 1
 700 -200 l 2
 700 -255 655 -300 600 -300 c 0
 545 -300 500 -255 500 -200 c 2
 500 -100 l 1
 300 -100 l 2
 245 -100 200 -55 200 0 c 0
 200 55 245 100 300 100 c 2
 500 100 l 1
 500 200 l 1
 300 200 l 2
 245 200 200 245 200 300 c 0
 200 355 245 400 300 400 c 2
 500 400 l 1
 500 500 l 2
 500 555 545 600 600 600 c 0
900 700 m 0
 955 700 1000 655 1000 600 c 0
 1000 545 955 500 900 500 c 0
 845 500 800 545 800 600 c 0
 800 655 845 700 900 700 c 0
300 700 m 0
 355 700 400 655 400 600 c 0
 400 545 355 500 300 500 c 0
 245 500 200 545 200 600 c 0
 200 655 245 700 300 700 c 0
EndSplineSet
Validated: 1
Ligature2: "'liga' Standard-Ligaturen in Lateinisch Nachschlagetabelle 0-1" p i p i
EndChar

StartChar: tok.poka
Encoding: 82 989522 82
Width: 1200
VWidth: 26800
Flags: W
HStem: -300 200<300 600> 0 400<932.853 1067.15>
VStem: 100 200<-100 667.147> 600 200<-100 667.147> 900 200<32.8529 367.147>
LayerCount: 2
Fore
SplineSet
1000 400 m 0
 1055 400 1100 355 1100 300 c 2
 1100 100 l 2
 1100 45 1055 0 1000 0 c 0
 945 0 900 45 900 100 c 2
 900 300 l 2
 900 355 945 400 1000 400 c 0
200 700 m 0
 255 700 300 655 300 600 c 2
 300 -100 l 1
 600 -100 l 1
 600 600 l 2
 600 655 645 700 700 700 c 0
 755 700 800 655 800 600 c 2
 800 -200 l 2
 800 -255 755 -300 700 -300 c 2
 200 -300 l 2
 145 -300 100 -255 100 -200 c 2
 100 600 l 2
 100 655 145 700 200 700 c 0
EndSplineSet
Validated: 1
Ligature2: "'liga' Standard-Ligaturen in Lateinisch Nachschlagetabelle 0-1" p o k a
EndChar

StartChar: tok.poki
Encoding: 83 989523 83
Width: 1200
VWidth: 26800
Flags: W
HStem: -300 200<300 900>
VStem: 100 200<-100 667.147> 900 200<-100 667.147>
LayerCount: 2
Fore
SplineSet
200 700 m 0
 255 700 300 655 300 600 c 2
 300 -100 l 1
 900 -100 l 1
 900 600 l 2
 900 655 945 700 1000 700 c 0
 1055 700 1100 655 1100 600 c 2
 1100 -200 l 2
 1100 -255 1055 -300 1000 -300 c 2
 200 -300 l 2
 145 -300 100 -255 100 -200 c 2
 100 600 l 2
 100 655 145 700 200 700 c 0
EndSplineSet
Validated: 1
Ligature2: "'liga' Standard-Ligaturen in Lateinisch Nachschlagetabelle 0-1" p o k i
EndChar

StartChar: tok.pona
Encoding: 84 989524 84
Width: 1200
VWidth: 26200
Flags: W
HStem: -99.75 199.25<479.277 720.723>
VStem: 100 200<280.477 467.147> 900 200<280.477 467.147>
LayerCount: 2
Fore
SplineSet
200 500 m 0
 255 500 300 455 300 400 c 0
 300 293 357 194 450 140 c 0
 496.5 113 548.25 99.5 600 99.5 c 0
 651.75 99.5 703.5 113 750 140 c 0
 843 194 900 293 900 400 c 0
 900 455 945 500 1000 500 c 0
 1055 500 1100 455 1100 400 c 0
 1100 221 1005 56 850 -33 c 0
 772.5 -77.5 686.25 -99.75 600 -99.75 c 0
 513.75 -99.75 427.5 -77.5 350 -33 c 0
 195 56 100 221 100 400 c 0
 100 455 145 500 200 500 c 0
EndSplineSet
Validated: 1
Ligature2: "'liga' Standard-Ligaturen in Lateinisch Nachschlagetabelle 0-1" p o n a
EndChar

StartChar: tok.pu
Encoding: 85 989525 85
Width: 1200
VWidth: 26800
Flags: W
HStem: -300 200<300 900> 500 200<300 900>
VStem: 100 200<-100 500> 400 400<4.87061 195.129> 500 200<332.853 467.147> 900 200<-100 500>
LayerCount: 2
Fore
SplineSet
300 500 m 1xec
 300 -100 l 1
 600 -100 l 1
 490 -100 400 -10 400 100 c 0xf4
 400 210 490 300 600 300 c 1
 545 300 500 345 500 400 c 0
 500 455 545 500 600 500 c 1
 300 500 l 1xec
200 700 m 2
 1000 700 l 2
 1055 700 1100 655 1100 600 c 2
 1100 -200 l 2
 1100 -255 1055 -300 1000 -300 c 2
 200 -300 l 2
 145 -300 100 -255 100 -200 c 2
 100 600 l 2
 100 655 145 700 200 700 c 2
600 300 m 1
 710 300 800 210 800 100 c 0xf4
 800 -10 710 -100 600 -100 c 1
 900 -100 l 1
 900 500 l 1
 600 500 l 1
 655 500 700 455 700 400 c 0xec
 700 345 655 300 600 300 c 1
EndSplineSet
Validated: 5
Ligature2: "'liga' Standard-Ligaturen in Lateinisch Nachschlagetabelle 0-1" p u
EndChar

StartChar: tok.sama
Encoding: 86 989526 86
Width: 1200
VWidth: 26600
Flags: W
HStem: -100 200<132.853 1067.15> 300 200<132.853 1067.15>
LayerCount: 2
Fore
SplineSet
200 100 m 2
 1000 100 l 2
 1055 100 1100 55 1100 0 c 0
 1100 -55 1055 -100 1000 -100 c 2
 200 -100 l 2
 145 -100 100 -55 100 0 c 0
 100 55 145 100 200 100 c 2
200 500 m 2
 1000 500 l 2
 1055 500 1100 455 1100 400 c 0
 1100 345 1055 300 1000 300 c 2
 200 300 l 2
 145 300 100 345 100 400 c 0
 100 455 145 500 200 500 c 2
EndSplineSet
Validated: 1
Ligature2: "'liga' Standard-Ligaturen in Lateinisch Nachschlagetabelle 0-1" s a m a
EndChar

StartChar: tok.seli
Encoding: 87 989527 87
Width: 1200
VWidth: 26700
Flags: W
HStem: -200 200<532.853 667.147> -0.25 21G<387.125 412.875 787.125 812.875> 100 500<532.853 667.147>
VStem: 500 200<-167.147 -32.8529 132.853 567.147>
LayerCount: 2
Fore
SplineSet
600 0 m 0xb0
 655 0 700 -45 700 -100 c 0
 700 -155 655 -200 600 -200 c 0
 545 -200 500 -155 500 -100 c 0
 500 -45 545 0 600 0 c 0xb0
1000 400 m 0
 1027 400 1052 390 1071 371 c 0
 1090.5 351.5 1100.25 325.75 1100.25 300 c 0
 1100.25 274.25 1090.5 248.5 1071 229 c 2
 871 29 l 2
 851.5 9.5 825.75 -0.25 800 -0.25 c 0x70
 774.25 -0.25 748.5 9.5 729 29 c 0
 709.5 48.5 699.75 74.25 699.75 100 c 0
 699.75 125.75 709.5 151.5 729 171 c 2
 929 371 l 2
 948 390 973 400 1000 400 c 0
200 400 m 0
 227 400 252 390 271 371 c 2
 471 171 l 2
 490.5 151.5 500.25 125.75 500.25 100 c 0
 500.25 74.25 490.5 48.5 471 29 c 0
 451.5 9.5 425.75 -0.25 400 -0.25 c 0
 374.25 -0.25 348.5 9.5 329 29 c 2
 129 229 l 2
 109.5 248.5 99.75 274.25 99.75 300 c 0
 99.75 325.75 109.5 351.5 129 371 c 0
 148 390 173 400 200 400 c 0
600 600 m 0
 655 600 700 555 700 500 c 2
 700 200 l 2
 700 145 655 100 600 100 c 0
 545 100 500 145 500 200 c 2
 500 500 l 2
 500 555 545 600 600 600 c 0
EndSplineSet
Validated: 1
Ligature2: "'liga' Standard-Ligaturen in Lateinisch Nachschlagetabelle 0-1" s e l i
EndChar

StartChar: tok.selo
Encoding: 88 989528 88
Width: 1200
VWidth: 26600
Flags: W
HStem: 100 400<332.853 467.147 732.853 867.147>
VStem: 100 200<-67.1471 200> 900 200<-67.1471 200>
LayerCount: 2
Fore
SplineSet
200 500 m 2
 1000 500 l 2
 1055 500 1100 455 1100 400 c 2
 1100 0 l 2
 1100 -55 1055 -100 1000 -100 c 0
 945 -100 900 -55 900 0 c 2
 900 200 l 1
 900 145 855 100 800 100 c 0
 745 100 700 145 700 200 c 2
 700 300 l 1
 500 300 l 1
 500 200 l 2
 500 145 455 100 400 100 c 0
 345 100 300 145 300 200 c 1
 300 0 l 2
 300 -55 255 -100 200 -100 c 0
 145 -100 100 -55 100 0 c 2
 100 400 l 2
 100 455 145 500 200 500 c 2
EndSplineSet
Validated: 1
Ligature2: "'liga' Standard-Ligaturen in Lateinisch Nachschlagetabelle 0-1" s e l o
EndChar

StartChar: tok.seme
Encoding: 89 989529 89
Width: 1200
VWidth: 26800
Flags: W
HStem: -300 200<532.853 667.147> 500 200<532.615 667.385>
VStem: 300 200<332.853 467.226> 500 200<-267.147 -132.853 32.8529 125.682> 700 200<333.858 467.385>
LayerCount: 2
Fore
SplineSet
600 -100 m 0xd0
 655 -100 700 -145 700 -200 c 0
 700 -255 655 -300 600 -300 c 0
 545 -300 500 -255 500 -200 c 0
 500 -145 545 -100 600 -100 c 0xd0
600 700 m 0
 764 700 900 564 900 400 c 0xe8
 900 271 816 159 700 117 c 2
 700 100 l 2
 700 45 655 0 600 0 c 0
 545 0 500 45 500 100 c 2
 500 200 l 2xd0
 500 207 501 213 502 220 c 0
 502 221 503 224 503 225 c 0
 504 231 507 236 509 241 c 0
 509 242 510 243 510 244 c 0
 513 250 517 256 521 261 c 0
 522 262 523 263 524 264 c 0
 528 268 532 272 536 276 c 0
 537 277 538 278 539 279 c 0
 544 283 550 287 556 290 c 0
 557 290 558 291 559 291 c 0
 564 293 569 296 575 297 c 0
 576 297 579 298 580 298 c 0
 587 299 593 300 600 300 c 0
 656 300 700 344 700 400 c 0
 700 456 656 500 600 500 c 0
 544 500 500 456 500 400 c 0
 500 345 455 300 400 300 c 0
 345 300 300 345 300 400 c 0xe8
 300 564 436 700 600 700 c 0
EndSplineSet
Validated: 1
Ligature2: "'liga' Standard-Ligaturen in Lateinisch Nachschlagetabelle 0-1" s e m e
EndChar

StartChar: tok.sewi
Encoding: 90 989530 90
Width: 1200
VWidth: 26800
Flags: W
HStem: -300.75 201<134.65 293.492 516.484 583.516>
VStem: 300 200<-92.573 167.147> 600 200<-91.1572 367.147> 900 200<-267.147 667.147>
CounterMasks: 1 70
LayerCount: 2
Fore
SplineSet
700 400 m 0
 755 400 800 355 800 300 c 2
 800 -50 l 2
 800 -139 752 -222 675 -267 c 0
 636.5 -289.5 593.25 -300.75 550 -300.75 c 0
 506.75 -300.75 463.5 -289.5 425 -267 c 0
 416 -262 407 -256 399 -250 c 0
 357 -282 306 -300 250 -300 c 2
 200 -300 l 2
 145 -300 100 -255 100 -200 c 0
 100 -145 145 -100 200 -100 c 2
 250 -100 l 2
 279 -100 300 -79 300 -50 c 2
 300 100 l 2
 300 155 345 200 400 200 c 0
 455 200 500 155 500 100 c 2
 500 -50 l 2
 500 -68 509 -84 525 -93 c 0
 533 -97.5 541.5 -99.75 550 -99.75 c 0
 558.5 -99.75 567 -97.5 575 -93 c 0
 591 -84 600 -68 600 -50 c 2
 600 300 l 2
 600 355 645 400 700 400 c 0
1000 700 m 0
 1055 700 1100 655 1100 600 c 2
 1100 -200 l 2
 1100 -255 1055 -300 1000 -300 c 0
 945 -300 900 -255 900 -200 c 2
 900 600 l 2
 900 655 945 700 1000 700 c 0
EndSplineSet
Validated: 1
Ligature2: "'liga' Standard-Ligaturen in Lateinisch Nachschlagetabelle 0-1" s e w i
EndChar

StartChar: tok.sijelo
Encoding: 91 989531 91
Width: 1200
VWidth: 26800
Flags: W
HStem: 500 200<300 500 700 900>
VStem: 100 200<-267.147 500> 500 200<-67.1471 500> 900 200<-267.147 500>
CounterMasks: 1 70
LayerCount: 2
Fore
SplineSet
200 700 m 2
 1000 700 l 2
 1055 700 1100 655 1100 600 c 2
 1100 -200 l 2
 1100 -255 1055 -300 1000 -300 c 0
 945 -300 900 -255 900 -200 c 2
 900 500 l 1
 700 500 l 1
 700 0 l 2
 700 -55 655 -100 600 -100 c 0
 545 -100 500 -55 500 0 c 2
 500 500 l 1
 300 500 l 1
 300 -200 l 2
 300 -255 255 -300 200 -300 c 0
 145 -300 100 -255 100 -200 c 2
 100 600 l 2
 100 655 145 700 200 700 c 2
EndSplineSet
Validated: 1
Ligature2: "'liga' Standard-Ligaturen in Lateinisch Nachschlagetabelle 0-1" s i j e l o
EndChar

StartChar: tok.sike
Encoding: 92 989532 92
Width: 1200
VWidth: 26800
Flags: W
HStem: -300 200<481.706 718.294> 0 400<504.871 695.129> 500 200<481.706 718.294>
VStem: 100 200<81.7057 318.294> 400 400<104.871 295.129> 900 200<81.7057 318.294>
CounterMasks: 1 fc
LayerCount: 2
Fore
SplineSet
600 400 m 0
 710 400 800 310 800 200 c 0
 800 90 710 0 600 0 c 0
 490 0 400 90 400 200 c 0
 400 310 490 400 600 400 c 0
600 500 m 0
 433 500 300 367 300 200 c 0
 300 33 433 -100 600 -100 c 0
 767 -100 900 33 900 200 c 0
 900 367 767 500 600 500 c 0
600 700 m 0
 875 700 1100 475 1100 200 c 0
 1100 -75 875 -300 600 -300 c 0
 325 -300 100 -75 100 200 c 0
 100 475 325 700 600 700 c 0
EndSplineSet
Validated: 1
Ligature2: "'liga' Standard-Ligaturen in Lateinisch Nachschlagetabelle 0-1" s i k e
EndChar

StartChar: tok.sin
Encoding: 93 989533 93
Width: 1200
VWidth: 26500
Flags: W
HStem: -150 200<132.853 467.147 732.853 1067.15> 150 400<532.853 667.147>
VStem: 100 400<-117.147 17.1471> 500 200<182.853 517.147> 700 400<-117.147 17.1471>
LayerCount: 2
Fore
SplineSet
800 50 m 2xc8
 1000 50 l 2
 1055 50 1100 5 1100 -50 c 0
 1100 -105 1055 -150 1000 -150 c 2
 800 -150 l 2
 745 -150 700 -105 700 -50 c 0
 700 5 745 50 800 50 c 2xc8
200 50 m 2
 400 50 l 2
 455 50 500 5 500 -50 c 0
 500 -105 455 -150 400 -150 c 2
 200 -150 l 2
 145 -150 100 -105 100 -50 c 0xe0
 100 5 145 50 200 50 c 2
600 550 m 0
 655 550 700 505 700 450 c 2
 700 250 l 2
 700 195 655 150 600 150 c 0
 545 150 500 195 500 250 c 2
 500 450 l 2xd0
 500 505 545 550 600 550 c 0
EndSplineSet
Validated: 1
Ligature2: "'liga' Standard-Ligaturen in Lateinisch Nachschlagetabelle 0-1" s i n
EndChar

StartChar: tok.sina
Encoding: 94 989534 94
Width: 1200
VWidth: -32636
Flags: W
HStem: -300 200<532.615 667.385> 100 200<532.704 667.385>
VStem: 300 200<-67.226 67.5439 283 667.147> 700 200<-67.385 67.385>
LayerCount: 2
Fore
SplineSet
600 100 m 0
 544 100 500 56 500 0 c 0
 500 -56 544 -100 600 -100 c 0
 656 -100 700 -56 700 0 c 0
 700 56 656 100 600 100 c 0
400 700 m 0
 455 700 500 655 500 600 c 2
 500 283 l 1
 531 294 565 300 600 300 c 0
 764 300 900 164 900 0 c 0
 900 -164 764 -300 600 -300 c 0
 436 -300 300 -164 300 0 c 0
 300 6 301 13 301 19 c 0
 301 21 300 23 300 25 c 2
 300 600 l 2
 300 655 345 700 400 700 c 0
EndSplineSet
Validated: 1
Ligature2: "'liga' Standard-Ligaturen in Lateinisch Nachschlagetabelle 0-1" s i n a
EndChar

StartChar: tok.sinpin
Encoding: 95 989535 95
Width: 1200
VWidth: 26800
Flags: W
HStem: -300 200<132.853 600> 0 400<932.853 1067.15> 500 200<132.853 600>
VStem: 600 200<-100 500> 900 200<32.8529 367.147>
CounterMasks: 1 e0
LayerCount: 2
Fore
SplineSet
1000 400 m 0
 1055 400 1100 355 1100 300 c 2
 1100 100 l 2
 1100 45 1055 0 1000 0 c 0
 945 0 900 45 900 100 c 2
 900 300 l 2
 900 355 945 400 1000 400 c 0
200 700 m 2
 700 700 l 2
 755 700 800 655 800 600 c 2
 800 -200 l 2
 800 -255 755 -300 700 -300 c 2
 200 -300 l 2
 145 -300 100 -255 100 -200 c 0
 100 -145 145 -100 200 -100 c 2
 600 -100 l 1
 600 500 l 1
 200 500 l 2
 145 500 100 545 100 600 c 0
 100 655 145 700 200 700 c 2
EndSplineSet
Validated: 1
Ligature2: "'liga' Standard-Ligaturen in Lateinisch Nachschlagetabelle 0-1" s i n p i n
EndChar

StartChar: tok.sitelen
Encoding: 96 989536 96
Width: 1200
VWidth: 28000
Flags: W
HStem: -300 200<300 900> 0 200<432.853 567.147> 200 200<632.853 767.147> 500 200<300 900>
VStem: 100 200<-100 500> 400 200<32.8529 167.147> 600 200<232.853 367.147> 900 200<-100 500>
LayerCount: 2
Fore
SplineSet
500 200 m 0xdd
 555 200 600 155 600 100 c 0
 600 45 555 0 500 0 c 0
 445 0 400 45 400 100 c 0
 400 155 445 200 500 200 c 0xdd
700 400 m 0xbb
 755 400 800 355 800 300 c 0
 800 245 755 200 700 200 c 0
 645 200 600 245 600 300 c 0
 600 355 645 400 700 400 c 0xbb
300 500 m 1
 300 -100 l 1
 900 -100 l 1
 900 500 l 1
 300 500 l 1
200 700 m 2
 1000 700 l 2
 1055 700 1100 655 1100 600 c 2
 1100 -200 l 2
 1100 -255 1055 -300 1000 -300 c 2
 200 -300 l 2
 145 -300 100 -255 100 -200 c 2
 100 600 l 2
 100 655 145 700 200 700 c 2
EndSplineSet
Validated: 1
Ligature2: "'liga' Standard-Ligaturen in Lateinisch Nachschlagetabelle 0-1" s i t e l e n
EndChar

StartChar: tok.sona
Encoding: 97 989537 97
Width: 1200
VWidth: 28000
Flags: W
HStem: -300 200<500 700> 100 200<500 700> 400 200<232.853 367.147 832.853 967.147> 500 200<532.853 667.147>
VStem: 200 200<432.853 567.147> 300 200<-100 100> 500 200<532.853 667.147> 700 200<-100 100> 800 200<432.853 567.147>
LayerCount: 2
Fore
SplineSet
500 100 m 1xc5
 500 -100 l 1
 700 -100 l 1
 700 100 l 1
 500 100 l 1xc5
400 300 m 2xc8
 800 300 l 2xc880
 855 300 900 255 900 200 c 2
 900 -200 l 2xc1
 900 -255 855 -300 800 -300 c 2
 400 -300 l 2xc880
 345 -300 300 -255 300 -200 c 2
 300 200 l 2xc4
 300 255 345 300 400 300 c 2xc8
900 600 m 0xe1
 955 600 1000 555 1000 500 c 0xd080
 1000 445 955 400 900 400 c 0xe1
 845 400 800 445 800 500 c 0xd080
 800 555 845 600 900 600 c 0xe1
300 600 m 0xe4
 355 600 400 555 400 500 c 0xd8
 400 445 355 400 300 400 c 0xe4
 245 400 200 445 200 500 c 0xd8
 200 555 245 600 300 600 c 0xe4
600 700 m 0
 655 700 700 655 700 600 c 0xe2
 700 545 655 500 600 500 c 0xd2
 545 500 500 545 500 600 c 0xe2
 500 655 545 700 600 700 c 0
EndSplineSet
Validated: 1
Ligature2: "'liga' Standard-Ligaturen in Lateinisch Nachschlagetabelle 0-1" s o n a
EndChar

StartChar: tok.soweli
Encoding: 98 989538 98
Width: 1200
VWidth: 28000
Flags: W
HStem: -300 400<132.853 267.147 434.012 567.147> -100 200<600 797.198> 200 200<332.853 467.147 632.853 767.147> 500 200<132.853 797.198>
VStem: 100 200<-267.147 67.1471> 300 200<232.853 367.147> 400 200<-267.147 -100> 600 200<232.853 367.147> 900 199.25<202.573 397.427>
LayerCount: 2
Fore
SplineSet
200 100 m 0xb880
 255 100 300 55 300 0 c 2
 300 -200 l 2
 300 -255 255 -300 200 -300 c 0
 145 -300 100 -255 100 -200 c 2
 100 0 l 2
 100 55 145 100 200 100 c 0xb880
700 400 m 0
 755 400 800 355 800 300 c 0
 800 245 755 200 700 200 c 0
 645 200 600 245 600 300 c 0x3180
 600 355 645 400 700 400 c 0
400 400 m 0x3280
 455 400 500 355 500 300 c 0x3480
 500 245 455 200 400 200 c 0x3280
 345 200 300 245 300 300 c 0x3480
 300 355 345 400 400 400 c 0x3280
200 700 m 2
 700 700 l 2
 843 700 975 624 1046 500 c 0
 1081.5 438 1099.25 369 1099.25 300 c 0
 1099.25 231 1081.5 162 1046 100 c 0
 975 -24 843 -100 700 -100 c 2
 600 -100 l 1
 600 -200 l 2x7a80
 600 -255 555 -300 500 -300 c 0xb480
 445 -300 400 -255 400 -200 c 2
 400 0 l 2xb280
 400 49 435 90 483 98 c 0
 489 99 494 100 500 100 c 2xb480
 700 100 l 2
 772 100 837 138 873 200 c 0
 891 231 900 265.5 900 300 c 0
 900 334.5 891 369 873 400 c 0
 837 462 772 500 700 500 c 2
 200 500 l 2
 145 500 100 545 100 600 c 0x7880
 100 655 145 700 200 700 c 2
EndSplineSet
Validated: 1
Ligature2: "'liga' Standard-Ligaturen in Lateinisch Nachschlagetabelle 0-1" s o w e l i
EndChar

StartChar: tok.suli
Encoding: 99 989539 99
Width: 1200
VWidth: 27400
Flags: W
LayerCount: 2
Fore
SplineSet
185 699 m 0
 189.869692124 699.679491924 194.726558991 700.012701892 199.53864685 700.012701892 c 0
 237.217906015 700.012701892 272.151724427 679.583302492 289 645 c 2
 600 24 l 1
 911 645 l 2
 928.673888659 679.640821771 963.840292375 699.787845351 1000.24618815 699.787845351 c 0
 1015.33701797 699.787845351 1030.64082177 696.326111341 1045 689 c 0
 1079.64082177 671.326111341 1099.78784535 636.159707625 1099.78784535 599.753811846 c 0
 1099.78784535 584.662982028 1096.32611134 569.359178229 1089 555 c 2
 689 -245 l 2
 670.5 -282 635.25 -300.5 600 -300.5 c 0
 564.75 -300.5 529.5 -282 511 -245 c 2
 111 555 l 2
 103.673888659 569.359178229 100.212154649 584.662982028 100.212154649 599.753811846 c 0
 100.212154649 636.159707625 120.359178229 671.326111341 155 689 c 0
 164 694 175 697 185 699 c 0
EndSplineSet
Validated: 1
Ligature2: "'liga' Standard-Ligaturen in Lateinisch Nachschlagetabelle 0-1" s u l i
EndChar

StartChar: tok.suno
Encoding: 100 989540 100
Width: 1200
VWidth: 27900
Flags: W
HStem: 100 200<132.853 326.422 873.578 1067.15>
VStem: 500 200<-267.147 -73.5779 473.578 667.147>
LayerCount: 2
Fore
SplineSet
600 300 m 0
 544 300 500 256 500 200 c 0
 500 144 544 100 600 100 c 0
 656 100 700 144 700 200 c 0
 700 256 656 300 600 300 c 0
600 700 m 0
 655 700 700 655 700 600 c 2
 700 483 l 2
 785 453 853 385 883 300 c 2
 1000 300 l 2
 1055 300 1100 255 1100 200 c 0
 1100 145 1055 100 1000 100 c 2
 883 100 l 2
 853 15 785 -53 700 -83 c 2
 700 -200 l 2
 700 -255 655 -300 600 -300 c 0
 545 -300 500 -255 500 -200 c 2
 500 -83 l 2
 415 -53 347 15 317 100 c 2
 200 100 l 2
 145 100 100 145 100 200 c 0
 100 255 145 300 200 300 c 2
 317 300 l 2
 347 385 415 453 500 483 c 2
 500 600 l 2
 500 655 545 700 600 700 c 0
EndSplineSet
Validated: 1
Ligature2: "'liga' Standard-Ligaturen in Lateinisch Nachschlagetabelle 0-1" s u n o
EndChar

StartChar: tok.supa
Encoding: 101 989541 101
Width: 1200
VWidth: 27700
Flags: W
HStem: 250 200<132.853 300 500 700 900 1067.15>
VStem: 300 200<-17.1471 250> 700 200<-17.1471 250>
LayerCount: 2
Fore
SplineSet
200 450 m 2
 1000 450 l 2
 1055 450 1100 405 1100 350 c 0
 1100 295 1055 250 1000 250 c 2
 900 250 l 1
 900 50 l 2
 900 -5 855 -50 800 -50 c 0
 745 -50 700 -5 700 50 c 2
 700 250 l 1
 500 250 l 1
 500 50 l 2
 500 -5 455 -50 400 -50 c 0
 345 -50 300 -5 300 50 c 2
 300 250 l 1
 200 250 l 2
 145 250 100 295 100 350 c 0
 100 405 145 450 200 450 c 2
EndSplineSet
Validated: 1
Ligature2: "'liga' Standard-Ligaturen in Lateinisch Nachschlagetabelle 0-1" s u p a
EndChar

StartChar: tok.suwi
Encoding: 102 989542 102
Width: 1200
VWidth: 27900
Flags: W
HStem: -200 200<532.853 667.147>
VStem: 500 200<-167.147 -32.8529>
LayerCount: 2
Fore
SplineSet
600 0 m 0
 655 0 700 -45 700 -100 c 0
 700 -155 655 -200 600 -200 c 0
 545 -200 500 -155 500 -100 c 0
 500 -45 545 0 600 0 c 0
350 600 m 0
 382 600 411 585 430 560 c 2
 580 360 l 2
 592 343 599 324 600 303 c 1
 601 324 608 343 620 360 c 2
 770 560 l 2
 789 585 818 600 850 600 c 0
 882 600 911 585 930 560 c 2
 1080 360 l 2
 1093.41900732 342.107990234 1099.89317551 321.074267527 1099.89317551 300.193528496 c 0
 1099.89317551 269.724389598 1086.10799023 239.580992676 1060 220 c 0
 1042.10799023 206.580992676 1021.07426753 200.106824486 1000.1935285 200.106824486 c 0
 969.724389598 200.106824486 939.580992676 213.892009766 920 240 c 2
 850 333 l 1
 780 240 l 2
 760.419007324 213.892009766 730.275610402 200.106824486 699.806471504 200.106824486 c 0
 678.925732473 200.106824486 657.892009766 206.580992676 640 220 c 0
 616 238 601 267 600 297 c 1
 599 267 584 238 560 220 c 0
 542.107990234 206.580992676 521.074267527 200.106824486 500.193528496 200.106824486 c 0
 469.724389598 200.106824486 439.580992676 213.892009766 420 240 c 2
 350 333 l 1
 280 240 l 2
 260.419007324 213.892009766 230.275610402 200.106824486 199.806471504 200.106824486 c 0
 178.925732473 200.106824486 157.892009766 206.580992676 140 220 c 0
 113.892009766 239.580992676 100.106824486 269.724389598 100.106824486 300.193528496 c 0
 100.106824486 321.074267527 106.580992676 342.107990234 120 360 c 2
 270 560 l 2
 289 585 318 600 350 600 c 0
EndSplineSet
Validated: 1
Ligature2: "'liga' Standard-Ligaturen in Lateinisch Nachschlagetabelle 0-1" s u w i
EndChar

StartChar: tok.tan
Encoding: 103 989543 103
Width: 1200
VWidth: 27700
Flags: W
HStem: 25 500<132.853 267.147> 25 200<434 567.147> 275.184 199.676<478.271 720.701>
VStem: 100 500<57.8529 192.147> 100 200<375 492.147> 900 200<-92.1471 93.9405>
LayerCount: 2
Fore
SplineSet
200 525 m 0x8c
 255 525 300 480 300 425 c 2
 300 375 l 1x8c
 361 420 430 451 503 465 c 0
 535.597395558 471.519479112 568.783483746 474.860018021 602.073468441 474.860018021 c 0
 665.801926229 474.860018021 729.911134599 462.617911297 791 437 c 0
 978 360 1100 177 1100 -25 c 0
 1100 -80 1055 -125 1000 -125 c 0
 945 -125 900 -80 900 -25 c 0
 900 97 827 205 715 252 c 0
 677.439494752 267.583613879 638.122684944 275.18402521 599.218720814 275.18402521 c 0
 540.76050613 275.18402521 483.234452869 258.023108632 434 225 c 1
 500 225 l 2
 555 225 600 180 600 125 c 0
 600 70 555 25 500 25 c 2x74
 200 25 l 2
 145 25 100 70 100 125 c 2x94
 100 425 l 2
 100 480 145 525 200 525 c 0x8c
EndSplineSet
Validated: 1
Ligature2: "'liga' Standard-Ligaturen in Lateinisch Nachschlagetabelle 0-1" t a n
EndChar

StartChar: tok.taso
Encoding: 104 989544 104
Width: 1200
VWidth: 27700
Flags: W
HStem: 100 200<282.853 750>
VStem: 750 200<-267.147 100 300 667.147>
LayerCount: 2
Fore
SplineSet
850 700 m 0
 905 700 950 655 950 600 c 2
 950 -200 l 2
 950 -255 905 -300 850 -300 c 0
 795 -300 750 -255 750 -200 c 2
 750 100 l 1
 350 100 l 2
 295 100 250 145 250 200 c 0
 250 255 295 300 350 300 c 2
 750 300 l 1
 750 600 l 2
 750 655 795 700 850 700 c 0
EndSplineSet
Validated: 1
Ligature2: "'liga' Standard-Ligaturen in Lateinisch Nachschlagetabelle 0-1" t a s o
EndChar

StartChar: tok.tawa
Encoding: 105 989545 105
Width: 1200
VWidth: 27700
Flags: W
HStem: -300 200<362 467.147 878 1067.15>
VStem: 100.396 399.604<-266.166 -142.5>
LayerCount: 2
Fore
SplineSet
611 699 m 0
 653 694 687 665 697 624 c 2
 878 -100 l 1
 1000 -100 l 2
 1055 -100 1100 -145 1100 -200 c 0
 1100 -255 1055 -300 1000 -300 c 2
 800 -300 l 2
 754 -300 714 -269 703 -224 c 2
 569 313 l 1
 362 -100 l 1
 400 -100 l 2
 455 -100 500 -145 500 -200 c 0
 500 -255 455 -300 400 -300 c 2
 200 -300 l 2
 142.291814976 -300 100.395554731 -252.564225665 100.395554731 -199.901874386 c 0
 100.395554731 -185.034567731 103.734731159 -169.750697344 111 -155 c 2
 511 645 l 2
 528.202970995 678.500522464 561.801632354 699.704277156 599.177752607 699.704277156 c 0
 603.082076587 699.704277156 607.027620095 699.47290237 611 699 c 0
EndSplineSet
Validated: 1
Ligature2: "'liga' Standard-Ligaturen in Lateinisch Nachschlagetabelle 0-1" t a w a
EndChar

StartChar: tok.telo
Encoding: 106 989546 106
Width: 1200
VWidth: 28000
Flags: W
HStem: -300 200<744.159 857.716> 0 200<342.284 455.841> 200 200<744.159 857.716> 500 200<342.284 455.841>
VStem: 102 200<-160.147 -41.7414 339.853 458.259> 898 200<-58.2586 60.1471 441.741 560.147>
LayerCount: 2
Fore
SplineSet
400 200 m 0xdc
 475 200 542 168 586 128 c 0
 630 88 658 43 683 5 c 0
 708 -33 730 -63 748 -79 c 0
 766 -95 775 -100 800 -100 c 0
 816 -100 844 -89 866 -67 c 0
 888 -45 898 -16 898 -7 c 0
 898 48 943 93 998 93 c 0
 1053 93 1098 48 1098 -7 c 0
 1098 -88 1059 -156 1007 -208 c 0
 955 -260 884 -300 800 -300 c 0
 725 -300 658 -268 614 -228 c 0
 570 -188 542 -143 517 -105 c 0
 492 -67 470 -37 452 -21 c 0
 434 -5 425 0 400 0 c 0
 384 0 356 -11 334 -33 c 0
 312 -55 302 -84 302 -93 c 0
 302 -148 257 -193 202 -193 c 0
 147 -193 102 -148 102 -93 c 0
 102 -12 141 56 193 108 c 0
 245 160 316 200 400 200 c 0xdc
400 700 m 0
 475 700 542 668 586 628 c 0
 630 588 658 543 683 505 c 0
 708 467 730 437 748 421 c 0
 766 405 775 400 800 400 c 0
 816 400 844 411 866 433 c 0
 888 455 898 484 898 493 c 0
 898 548 943 593 998 593 c 0
 1053 593 1098 548 1098 493 c 0
 1098 412 1059 344 1007 292 c 0
 955 240 884 200 800 200 c 0xbc
 725 200 658 232 614 272 c 0
 570 312 542 357 517 395 c 0
 492 433 470 463 452 479 c 0
 434 495 425 500 400 500 c 0
 384 500 356 489 334 467 c 0
 312 445 302 416 302 407 c 0
 302 352 257 307 202 307 c 0
 147 307 102 352 102 407 c 0
 102 488 141 556 193 608 c 0
 245 660 316 700 400 700 c 0
EndSplineSet
Validated: 1
Ligature2: "'liga' Standard-Ligaturen in Lateinisch Nachschlagetabelle 0-1" t e l o
EndChar

StartChar: tok.tenpo
Encoding: 107 989547 107
Width: 1200
VWidth: 28000
Flags: W
HStem: -300 200<481.706 716.867> 100 600<536.546 688.211> 100 200<700 883>
VStem: 100 200<81.7057 316.867> 500 200<300 483>
LayerCount: 2
Fore
SplineSet
700 483 m 1xb8
 700 300 l 1
 883 300 l 1
 853 386 786 453 700 483 c 1xb8
500 483 m 1
 383 442 300 332 300 200 c 0
 300 33 433 -100 600 -100 c 0
 732 -100 842 -17 883 100 c 1xb8
 600 100 l 2xd8
 545 100 500 145 500 200 c 2
 500 483 l 1
600 700 m 0xd8
 875 700 1100 475 1100 200 c 0
 1100 -75 875 -300 600 -300 c 0
 325 -300 100 -75 100 200 c 0
 100 475 325 700 600 700 c 0xd8
EndSplineSet
Validated: 1
Ligature2: "'liga' Standard-Ligaturen in Lateinisch Nachschlagetabelle 0-1" t e n p o
EndChar

StartChar: tok.toki
Encoding: 108 989548 108
Width: 1200
VWidth: 27800
Flags: W
HStem: -250 200<532.615 667.385> 150 200<532.615 667.385> 350 200<232.853 367.147 832.853 967.147> 450 200<532.853 667.147>
VStem: 200 200<382.853 517.147> 300 200<-17.385 117.385> 500 200<482.853 617.147> 700 200<-17.385 117.385> 800 200<382.853 517.147>
LayerCount: 2
Fore
SplineSet
600 150 m 0xc5
 544 150 500 106 500 50 c 0
 500 -6 544 -50 600 -50 c 0
 656 -50 700 -6 700 50 c 0
 700 106 656 150 600 150 c 0xc5
600 350 m 0
 764 350 900 214 900 50 c 0
 900 -114 764 -250 600 -250 c 0
 436 -250 300 -114 300 50 c 0
 300 214 436 350 600 350 c 0
900 550 m 0xa1
 955 550 1000 505 1000 450 c 0x9080
 1000 395 955 350 900 350 c 0xa1
 845 350 800 395 800 450 c 0x9080
 800 505 845 550 900 550 c 0xa1
300 550 m 0xa4
 355 550 400 505 400 450 c 0x98
 400 395 355 350 300 350 c 0xa4
 245 350 200 395 200 450 c 0x98
 200 505 245 550 300 550 c 0xa4
600 650 m 0
 655 650 700 605 700 550 c 0xa2
 700 495 655 450 600 450 c 0x92
 545 450 500 495 500 550 c 0xa2
 500 605 545 650 600 650 c 0
EndSplineSet
Validated: 1
Ligature2: "'liga' Standard-Ligaturen in Lateinisch Nachschlagetabelle 0-1" t o k i
EndChar

StartChar: tok.tomo
Encoding: 109 989549 109
Width: 1200
VWidth: 27600
Flags: W
HStem: -300 200<300 900>
VStem: 100 200<-100 159> 900 200<-100 159>
LayerCount: 2
Fore
SplineSet
600 459 m 1
 300 159 l 1
 300 -100 l 1
 900 -100 l 1
 900 159 l 1
 600 459 l 1
584 699 m 0
 589.393947222 699.842804253 594.787894444 700.259417101 600.138738155 700.259417101 c 0
 626.532179601 700.259417101 651.876899566 690.123100434 671 671 c 2
 1071 271 l 2
 1090 252 1100 227 1100 200 c 2
 1100 -200 l 2
 1100 -255 1055 -300 1000 -300 c 2
 200 -300 l 2
 145 -300 100 -255 100 -200 c 2
 100 200 l 2
 100 227 110 252 129 271 c 2
 529 671 l 2
 544 686 563 696 584 699 c 0
EndSplineSet
Validated: 1
Ligature2: "'liga' Standard-Ligaturen in Lateinisch Nachschlagetabelle 0-1" t o m o
EndChar

StartChar: tok.tu
Encoding: 110 989550 110
Width: 1200
VWidth: 27700
Flags: W
VStem: 300 200<-267.147 667.147> 700 200<-267.147 667.147>
LayerCount: 2
Fore
SplineSet
800 700 m 0
 855 700 900 655 900 600 c 2
 900 -200 l 2
 900 -255 855 -300 800 -300 c 0
 745 -300 700 -255 700 -200 c 2
 700 600 l 2
 700 655 745 700 800 700 c 0
400 700 m 0
 455 700 500 655 500 600 c 2
 500 -200 l 2
 500 -255 455 -300 400 -300 c 0
 345 -300 300 -255 300 -200 c 2
 300 600 l 2
 300 655 345 700 400 700 c 0
EndSplineSet
Validated: 1
Ligature2: "'liga' Standard-Ligaturen in Lateinisch Nachschlagetabelle 0-1" t u
EndChar

StartChar: tok.unpa
Encoding: 111 989551 111
Width: 1200
VWidth: 28000
Flags: W
HStem: -300 200<532.615 667.385> 500 200<332.615 467.005 732.995 867.385>
VStem: 100 200<334.969 467.385> 300 200<-67.385 67.6636> 500 200<332.456 467.544> 700 200<-67.385 67.6636> 900 200<334.969 467.385>
LayerCount: 2
Fore
SplineSet
600 100 m 0xd4
 544 100 500 56 500 0 c 0
 500 -56 544 -100 600 -100 c 0
 656 -100 700 -56 700 0 c 0
 700 56 656 100 600 100 c 0xd4
800 500 m 0
 744 500 700 456 700 400 c 0
 700 344 744 300 800 300 c 0
 856 300 900 344 900 400 c 0xca
 900 456 856 500 800 500 c 0
400 500 m 0
 344 500 300 456 300 400 c 0xe8
 300 344 344 300 400 300 c 0
 456 300 500 344 500 400 c 0
 500 456 456 500 400 500 c 0
400 700 m 0
 477 700 547 671 600 623 c 0
 653 671 723 700 800 700 c 0
 964 700 1100 564 1100 400 c 0xe2
 1100 263 1006 146 879 111 c 1
 893 77 900 39 900 0 c 0
 900 -164 764 -300 600 -300 c 0
 436 -300 300 -164 300 0 c 0xd4
 300 39 307 77 321 111 c 1
 194 146 100 263 100 400 c 0
 100 564 236 700 400 700 c 0
EndSplineSet
Validated: 1
Ligature2: "'liga' Standard-Ligaturen in Lateinisch Nachschlagetabelle 0-1" u n p a
EndChar

StartChar: tok.uta
Encoding: 112 989552 112
Width: 1200
VWidth: 29100
Flags: W
HStem: -250 200<532.853 667.147> 50.25 199.25<479.277 720.723> 450 200<327 873>
VStem: 100 1000<451.198 617.147> 500 200<-217.147 -82.8529>
LayerCount: 2
Fore
SplineSet
600 -50 m 0xe8
 655 -50 700 -95 700 -150 c 0
 700 -205 655 -250 600 -250 c 0
 545 -250 500 -205 500 -150 c 0
 500 -95 545 -50 600 -50 c 0xe8
327 450 m 1
 351 385 388 326 450 290 c 0
 496.5 263 548.25 249.5 600 249.5 c 0
 651.75 249.5 703.5 263 750 290 c 0
 812 326 849 385 873 450 c 1
 327 450 l 1
200 650 m 2
 1000 650 l 2
 1055 650 1100 605 1100 550 c 0
 1100 371 1005 206 850 117 c 0
 772.5 72.5 686.25 50.25 600 50.25 c 0
 513.75 50.25 427.5 72.5 350 117 c 0
 195 206 100 371 100 550 c 0xf0
 100 605 145 650 200 650 c 2
EndSplineSet
Validated: 1
Ligature2: "'liga' Standard-Ligaturen in Lateinisch Nachschlagetabelle 0-1" u t a
EndChar

StartChar: tok.utala
Encoding: 113 989553 113
Width: 1200
VWidth: 28800
Flags: W
LayerCount: 2
Fore
SplineSet
300 600 m 0
 327 600 352 590 371 571 c 2
 600 341 l 1
 829 571 l 2
 848.5 590.5 874.25 600.25 900 600.25 c 0
 925.75 600.25 951.5 590.5 971 571 c 0
 990.5 551.5 1000.25 525.75 1000.25 500 c 0
 1000.25 474.25 990.5 448.5 971 429 c 2
 741 200 l 1
 873 69 l 1
 911 145 l 2
 928.673888659 179.640821771 963.840292375 199.787845351 1000.24618815 199.787845351 c 0
 1015.33701797 199.787845351 1030.64082177 196.326111341 1045 189 c 0
 1079.64082177 171.326111341 1099.78784535 136.159707625 1099.78784535 99.753811846 c 0
 1099.78784535 84.6629820284 1096.32611134 69.3591782292 1089 55 c 2
 989 -145 l 2
 970.756031872 -180.899421156 935.194562543 -200.174041159 899.233666218 -200.174041159 c 0
 874.090104444 -200.174041159 848.751275156 -190.751275156 829 -171 c 2
 600 59 l 1
 371 -171 l 2
 351.248724844 -190.751275156 325.909895556 -200.174041159 300.766333782 -200.174041159 c 0
 264.805437457 -200.174041159 229.243968128 -180.899421156 211 -145 c 2
 111 55 l 2
 103.673888659 69.3591782292 100.212154649 84.6629820284 100.212154649 99.753811846 c 0
 100.212154649 136.159707625 120.359178229 171.326111341 155 189 c 0
 169.359178229 196.326111341 184.662982028 199.787845351 199.753811846 199.787845351 c 0
 236.159707625 199.787845351 271.326111341 179.640821771 289 145 c 2
 327 69 l 1
 459 200 l 1
 229 429 l 2
 209.5 448.5 199.75 474.25 199.75 500 c 0
 199.75 525.75 209.5 551.5 229 571 c 0
 248 590 273 600 300 600 c 0
EndSplineSet
Validated: 1
Ligature2: "'liga' Standard-Ligaturen in Lateinisch Nachschlagetabelle 0-1" u t a l a
EndChar

StartChar: tok.walo
Encoding: 114 989554 114
Width: 1200
VWidth: -27836
Flags: W
HStem: -300 200<362 838>
LayerCount: 2
Fore
SplineSet
600 376 m 1
 362 -100 l 1
 838 -100 l 1
 600 376 l 1
600 700 m 0
 638 700 672 679 689 645 c 2
 827 369 l 1
 929 471 l 2
 948 490 973 500 1000 500 c 0
 1027 500 1052 490 1071 471 c 0
 1090.5 451.5 1100.25 425.75 1100.25 400 c 0
 1100.25 374.25 1090.5 348.5 1071 329 c 2
 922 180 l 1
 1089 -155 l 2
 1096.26526884 -169.750697344 1099.60444527 -185.034567731 1099.60444527 -199.901874386 c 0
 1099.60444527 -252.564225665 1057.70818502 -300 1000 -300 c 2
 200 -300 l 2
 188 -297 176 -293 166 -286 c 0
 162 -287 159 -288 155 -289 c 0
 151 -285 147 -281 144 -277 c 0
 134 -269 126 -260 120 -249 c 0
 113 -239 109 -227 106 -215 c 0
 104 -210 102 -205 100 -200 c 0
 102 -192 105 -186 109 -179 c 0
 109 -171 109 -163 110 -155 c 2
 278 180 l 1
 129 329 l 2
 109.5 348.5 99.75 374.25 99.75 400 c 0
 99.75 425.75 109.5 451.5 129 471 c 0
 148.5 490.5 174.25 500.25 200 500.25 c 0
 225.75 500.25 251.5 490.5 271 471 c 2
 373 369 l 1
 510 645 l 2
 527 679 562 700 600 700 c 0
EndSplineSet
Validated: 1
Ligature2: "'liga' Standard-Ligaturen in Lateinisch Nachschlagetabelle 0-1" w a l o
EndChar

StartChar: tok.wan
Encoding: 115 989555 115
Width: 1200
VWidth: 28900
Flags: W
VStem: 650 200<-267.147 359>
LayerCount: 2
Fore
SplineSet
760 700 m 0
 770 699 779 696 788 692 c 0
 825 676 850 640 850 600 c 2
 850 -200 l 2
 850 -255 805 -300 750 -300 c 0
 695 -300 650 -255 650 -200 c 2
 650 359 l 1
 521 229 l 2
 501.5 209.5 475.75 199.75 450 199.75 c 0
 424.25 199.75 398.5 209.5 379 229 c 0
 359.5 248.5 349.75 274.25 349.75 300 c 0
 349.75 325.75 359.5 351.5 379 371 c 2
 679 671 l 2
 697.714464823 689.714464823 723.576505025 700.487179224 750.216451655 700.487179224 c 0
 753.469899494 700.487179224 756.734949747 700.326505025 760 700 c 0
EndSplineSet
Validated: 1
Ligature2: "'liga' Standard-Ligaturen in Lateinisch Nachschlagetabelle 0-1" w a n
EndChar

StartChar: tok.waso
Encoding: 116 989556 116
Width: 1200
VWidth: 28800
Flags: W
HStem: -300 400<132.853 267.147> -100 200<300 813> 200 200<132.853 267.147 432.853 567.147>
VStem: 100 200<-267.147 -100 232.853 367.147> 400 200<232.853 367.147>
LayerCount: 2
Fore
SplineSet
500 400 m 0x38
 555 400 600 355 600 300 c 0
 600 245 555 200 500 200 c 0
 445 200 400 245 400 300 c 0
 400 355 445 400 500 400 c 0x38
200 400 m 0
 255 400 300 355 300 300 c 0
 300 245 255 200 200 200 c 0
 145 200 100 245 100 300 c 0
 100 355 145 400 200 400 c 0
593 700 m 0
 602 701 610 700 619 698 c 0
 645 693 668 677 683 655 c 2
 1083 55 l 2
 1094.61436299 37.3144927242 1099.88817747 18.1657819466 1099.88817747 -0.441408037606 c 0
 1099.88817747 -52.3259325122 1058.88297639 -100 1000 -100 c 2
 300 -100 l 1x78
 300 -200 l 2
 300 -255 255 -300 200 -300 c 0
 145 -300 100 -255 100 -200 c 2
 100 0 l 2
 100 55 145 100 200 100 c 2xb8
 813 100 l 1x78
 517 545 l 2
 505.368887876 562.259069604 499.791011004 581.6297329 499.791011004 600.735197986 c 0
 499.791011004 632.550866781 515.259069604 663.631112124 544 683 c 0
 559 693 576 699 593 700 c 0
EndSplineSet
Validated: 1
Ligature2: "'liga' Standard-Ligaturen in Lateinisch Nachschlagetabelle 0-1" w a s o
EndChar

StartChar: tok.wawa
Encoding: 117 989557 117
Width: 1200
VWidth: -28036
Flags: W
HStem: -200 400<504.871 695.129>
VStem: 100 200<-267.147 667.147> 400 400<-95.1294 95.1294> 900 200<-267.147 667.147>
CounterMasks: 1 70
LayerCount: 2
Fore
SplineSet
600 200 m 0
 710 200 800 110 800 0 c 0
 800 -110 710 -200 600 -200 c 0
 490 -200 400 -110 400 0 c 0
 400 110 490 200 600 200 c 0
1000 700 m 0
 1055 700 1100 655 1100 600 c 2
 1100 -200 l 2
 1100 -255 1055 -300 1000 -300 c 0
 945 -300 900 -255 900 -200 c 2
 900 600 l 2
 900 655 945 700 1000 700 c 0
200 700 m 0
 255 700 300 655 300 600 c 2
 300 -200 l 2
 300 -255 255 -300 200 -300 c 0
 145 -300 100 -255 100 -200 c 2
 100 600 l 2
 100 655 145 700 200 700 c 0
EndSplineSet
Validated: 1
Ligature2: "'liga' Standard-Ligaturen in Lateinisch Nachschlagetabelle 0-1" w a w a
EndChar

StartChar: tok.weka
Encoding: 118 989558 118
Width: 1200
VWidth: 29200
Flags: W
LayerCount: 2
Fore
SplineSet
800 100 m 0
 827 100 852 90 871 71 c 2
 1071 -129 l 2
 1090.5 -148.5 1100.25 -174.25 1100.25 -200 c 0
 1100.25 -225.75 1090.5 -251.5 1071 -271 c 0
 1051.5 -290.5 1025.75 -300.25 1000 -300.25 c 0
 974.25 -300.25 948.5 -290.5 929 -271 c 2
 729 -71 l 2
 709.5 -51.5 699.75 -25.75 699.75 0 c 0
 699.75 25.75 709.5 51.5 729 71 c 0
 748 90 773 100 800 100 c 0
400 100 m 0
 427 100 452 90 471 71 c 0
 490.5 51.5 500.25 25.75 500.25 0 c 0
 500.25 -25.75 490.5 -51.5 471 -71 c 2
 271 -271 l 2
 251.5 -290.5 225.75 -300.25 200 -300.25 c 0
 174.25 -300.25 148.5 -290.5 129 -271 c 0
 109.5 -251.5 99.75 -225.75 99.75 -200 c 0
 99.75 -174.25 109.5 -148.5 129 -129 c 2
 329 71 l 2
 348 90 373 100 400 100 c 0
1000 700 m 0
 1027 700 1052 690 1071 671 c 0
 1090.5 651.5 1100.25 625.75 1100.25 600 c 0
 1100.25 574.25 1090.5 548.5 1071 529 c 2
 871 329 l 2
 851.5 309.5 825.75 299.75 800 299.75 c 0
 774.25 299.75 748.5 309.5 729 329 c 0
 709.5 348.5 699.75 374.25 699.75 400 c 0
 699.75 425.75 709.5 451.5 729 471 c 2
 929 671 l 2
 948 690 973 700 1000 700 c 0
200 700 m 0
 227 700 252 690 271 671 c 2
 471 471 l 2
 490.5 451.5 500.25 425.75 500.25 400 c 0
 500.25 374.25 490.5 348.5 471 329 c 0
 451.5 309.5 425.75 299.75 400 299.75 c 0
 374.25 299.75 348.5 309.5 329 329 c 2
 129 529 l 2
 109.5 548.5 99.75 574.25 99.75 600 c 0
 99.75 625.75 109.5 651.5 129 671 c 0
 148 690 173 700 200 700 c 0
EndSplineSet
Validated: 1
Ligature2: "'liga' Standard-Ligaturen in Lateinisch Nachschlagetabelle 0-1" w e k a
EndChar

StartChar: tok.wile
Encoding: 119 989559 119
Width: 1200
VWidth: 28500
Flags: W
HStem: -200.5 200<332.586 467.414 732.586 867.414>
VStem: 100 200<36.0972 567.147> 500 200<32.6833 367.147> 900 200<36.0972 567.147>
CounterMasks: 1 70
LayerCount: 2
Fore
SplineSet
200 600 m 0
 255 600 300 555 300 500 c 2
 300 100 l 2
 300 64 319 31 350 13 c 0
 365.5 4 382.75 -0.5 400 -0.5 c 0
 417.25 -0.5 434.5 4 450 13 c 0
 481 31 500 64 500 100 c 2
 500 300 l 2
 500 355 545 400 600 400 c 0
 655 400 700 355 700 300 c 2
 700 100 l 2
 700 64 719 31 750 13 c 0
 765.5 4 782.75 -0.5 800 -0.5 c 0
 817.25 -0.5 834.5 4 850 13 c 0
 881 31 900 64 900 100 c 2
 900 500 l 2
 900 555 945 600 1000 600 c 0
 1055 600 1100 555 1100 500 c 2
 1100 100 l 2
 1100 -7 1043 -106 950 -160 c 0
 903.5 -187 851.75 -200.5 800 -200.5 c 0
 748.25 -200.5 696.5 -187 650 -160 c 0
 632 -150 615 -137 600 -123 c 0
 585 -137 568 -150 550 -160 c 0
 503.5 -187 451.75 -200.5 400 -200.5 c 0
 348.25 -200.5 296.5 -187 250 -160 c 0
 157 -106 100 -7 100 100 c 2
 100 500 l 2
 100 555 145 600 200 600 c 0
EndSplineSet
Validated: 1
Ligature2: "'liga' Standard-Ligaturen in Lateinisch Nachschlagetabelle 0-1" w i l e
EndChar

StartChar: tok.namako
Encoding: 120 989560 120
Width: 1200
VWidth: -27936
Flags: W
HStem: 100 200<132.853 467.147 732.853 1067.15>
VStem: 500 200<-267.147 67.1471 332.853 667.147>
LayerCount: 2
Fore
SplineSet
600 100 m 0
 655 100 700 55 700 0 c 2
 700 -200 l 2
 700 -255 655 -300 600 -300 c 0
 545 -300 500 -255 500 -200 c 2
 500 0 l 2
 500 55 545 100 600 100 c 0
800 300 m 2
 1000 300 l 2
 1055 300 1100 255 1100 200 c 0
 1100 145 1055 100 1000 100 c 2
 800 100 l 2
 745 100 700 145 700 200 c 0
 700 255 745 300 800 300 c 2
200 300 m 2
 400 300 l 2
 455 300 500 255 500 200 c 0
 500 145 455 100 400 100 c 2
 200 100 l 2
 145 100 100 145 100 200 c 0
 100 255 145 300 200 300 c 2
600 700 m 0
 655 700 700 655 700 600 c 2
 700 400 l 2
 700 345 655 300 600 300 c 0
 545 300 500 345 500 400 c 2
 500 600 l 2
 500 655 545 700 600 700 c 0
EndSplineSet
Validated: 1
Ligature2: "'liga' Standard-Ligaturen in Lateinisch Nachschlagetabelle 0-1" n a m a k o
EndChar

StartChar: tok.kin
Encoding: 121 989561 121
Width: 1200
VWidth: -28136
Flags: W
HStem: -200 200<432.853 500 700 767.147> 200 500<532.853 667.147>
VStem: 500 200<-267.147 -200 0 67.1471 232.853 667.147>
LayerCount: 2
Fore
SplineSet
600 100 m 0
 655 100 700 55 700 0 c 1
 755 0 800 -45 800 -100 c 0
 800 -155 755 -200 700 -200 c 1
 700 -255 655 -300 600 -300 c 0
 545 -300 500 -255 500 -200 c 1
 445 -200 400 -155 400 -100 c 0
 400 -45 445 0 500 0 c 1
 500 55 545 100 600 100 c 0
600 700 m 0
 655 700 700 655 700 600 c 2
 700 300 l 2
 700 245 655 200 600 200 c 0
 545 200 500 245 500 300 c 2
 500 600 l 2
 500 655 545 700 600 700 c 0
EndSplineSet
Validated: 1
Ligature2: "'liga' Standard-Ligaturen in Lateinisch Nachschlagetabelle 0-1" k i n
EndChar

StartChar: tok.oko
Encoding: 122 989562 122
Width: 1200
VWidth: -28236
Flags: W
VStem: 599.5 200<132.81 267.19> 899.5 200.25<102.966 297.034>
LayerCount: 2
Fore
SplineSet
883 299 m 0
 854 294 828 276 813 250 c 0
 804 234.5 799.5 217.25 799.5 200 c 0
 799.5 182.75 804 165.5 813 150 c 0
 828 124 854 106 883 101 c 0
 894 133 899.5 166.5 899.5 200 c 0
 899.5 233.5 894 267 883 299 c 0
639 497 m 2
 341 200 l 1
 639 -97 l 2
 679 -92 716 -80 750 -60 c 1
 705 -34 667 4 640 50 c 0
 613 96.5 599.5 148.25 599.5 200 c 0
 599.5 251.75 613 303.5 640 350 c 0
 667 396 705 434 750 460 c 1
 716 480 679 492 639 497 c 2
600 700 m 0
 779 700 944 605 1033 450 c 0
 1077.5 372.5 1099.75 286.25 1099.75 200 c 0
 1099.75 113.75 1077.5 27.5 1033 -50 c 0
 944 -205 779 -300 600 -300 c 0
 582 -300 565 -296 550 -287 c 0
 542 -283 535 -277 529 -271 c 2
 129 129 l 2
 109.5 148.5 99.75 174.25 99.75 200 c 0
 99.75 225.75 109.5 251.5 129 271 c 2
 529 671 l 2
 535 677 542 683 550 687 c 0
 565 696 582 700 600 700 c 0
EndSplineSet
Validated: 1
Ligature2: "'liga' Standard-Ligaturen in Lateinisch Nachschlagetabelle 0-1" o k o
EndChar

StartChar: tok.kipisi
Encoding: 123 989563 123
Width: 1200
VWidth: -28236
Flags: W
HStem: -100 200<732.853 867.147> 300 200<332.853 467.147>
VStem: 300 200<332.853 467.147> 700 200<-67.1471 67.1471>
LayerCount: 2
Fore
SplineSet
800 100 m 0
 855 100 900 55 900 0 c 0
 900 -55 855 -100 800 -100 c 0
 745 -100 700 -55 700 0 c 0
 700 55 745 100 800 100 c 0
400 500 m 0
 455 500 500 455 500 400 c 0
 500 345 455 300 400 300 c 0
 345 300 300 345 300 400 c 0
 300 455 345 500 400 500 c 0
900 600 m 0
 927 600 952 590 971 571 c 0
 990.5 551.5 1000.25 525.75 1000.25 500 c 0
 1000.25 474.25 990.5 448.5 971 429 c 2
 371 -171 l 2
 351.5 -190.5 325.75 -200.25 300 -200.25 c 0
 274.25 -200.25 248.5 -190.5 229 -171 c 0
 209.5 -151.5 199.75 -125.75 199.75 -100 c 0
 199.75 -74.25 209.5 -48.5 229 -29 c 2
 829 571 l 2
 848 590 873 600 900 600 c 0
EndSplineSet
Validated: 1
Ligature2: "'liga' Standard-Ligaturen in Lateinisch Nachschlagetabelle 0-1" k i p i s i
EndChar

StartChar: tok.leko
Encoding: 124 989564 124
Width: 1200
VWidth: 29200
Flags: W
HStem: -300 200<300 900> 0 400<432.853 767.147> 500 200<300 900>
VStem: 100 200<-100 500> 400 400<32.8529 367.147> 900 200<-100 500>
CounterMasks: 1 fc
LayerCount: 2
Fore
SplineSet
500 400 m 2
 700 400 l 2
 755 400 800 355 800 300 c 2
 800 100 l 2
 800 45 755 0 700 0 c 2
 500 0 l 2
 445 0 400 45 400 100 c 2
 400 300 l 2
 400 355 445 400 500 400 c 2
300 500 m 1
 300 -100 l 1
 900 -100 l 1
 900 500 l 1
 300 500 l 1
200 700 m 2
 1000 700 l 2
 1055 700 1100 655 1100 600 c 2
 1100 -200 l 2
 1100 -255 1055 -300 1000 -300 c 2
 200 -300 l 2
 145 -300 100 -255 100 -200 c 2
 100 600 l 2
 100 655 145 700 200 700 c 2
EndSplineSet
Validated: 1
Ligature2: "'liga' Standard-Ligaturen in Lateinisch Nachschlagetabelle 0-1" l e k o
EndChar

StartChar: tok.monsuta
Encoding: 125 989565 125
Width: 1200
VWidth: 29000
Flags: W
HStem: 0.103562 21G<190.431 215.901 984.099 1009.57>
LayerCount: 2
Fore
SplineSet
406 500 m 0
 442 498 473 477 489 445 c 2
 600 224 l 1
 711 445 l 2
 728.957632618 481.443430901 763.931762402 500.033487727 799.27335921 500.033487727 c 0
 830.845609958 500.033487727 862.711123605 485.197397425 883 455 c 2
 1083 155 l 2
 1094.44900146 138.011159126 1099.89643797 118.976330203 1099.89643797 100.162402278 c 0
 1099.89643797 68.0346155217 1084.01115913 36.5509985417 1055 17 c 0
 1038.01115913 5.55099854167 1018.9763302 0.103562029527 1000.16240228 0.103562029527 c 0
 968.034615522 0.103562029527 936.550998542 15.9888408736 917 45 c 2
 812 201 l 1
 689 -45 l 2
 670.5 -82 635.25 -100.5 600 -100.5 c 0
 564.75 -100.5 529.5 -82 511 -45 c 2
 388 201 l 1
 283 45 l 2
 263.449001458 15.9888408736 231.965384478 0.103562029527 199.837597722 0.103562029527 c 0
 181.023669797 0.103562029527 161.988840874 5.55099854167 145 17 c 0
 115.988840874 36.5509985417 100.10356203 68.0346155217 100.10356203 100.162402278 c 0
 100.10356203 118.976330203 105.550998542 138.011159126 117 155 c 2
 317 455 l 2
 335.938472308 483.407708461 366.533580949 500.158780589 400.294599601 500.158780589 c 0
 402.186951615 500.158780589 404.089250154 500.106152769 406 500 c 0
EndSplineSet
Validated: 1
Ligature2: "'liga' Standard-Ligaturen in Lateinisch Nachschlagetabelle 0-1" m o n s u t a
EndChar

StartChar: tok.tonsi
Encoding: 126 989566 126
Width: 1200
VWidth: 28900
Flags: W
HStem: -250 400<533.548 666.452> 350 200<532.666 667.334>
VStem: 300 200<183.858 317.334> 500 200<-217.147 -24.3176> 700 200<183.858 317.334>
LayerCount: 2
Fore
SplineSet
600 350 m 0xe8
 544 350 500 306 500 250 c 0
 500 194 544 150 600 150 c 0
 656 150 700 194 700 250 c 0
 700 306 656 350 600 350 c 0xe8
300 650 m 0
 327 650 352 640 371 621 c 2
 471 521 l 2
 471 520 l 0
 510 539 554 550 600 550 c 0
 646 550 690 539 729 520 c 0
 729 521 l 2
 829 621 l 2
 848 640 873 650 900 650 c 0
 927 650 952 640 971 621 c 0
 990.5 601.5 1000.25 575.75 1000.25 550 c 0
 1000.25 524.25 990.5 498.5 971 479 c 2
 871 379 l 2
 870 379 l 0
 889 340 900 296 900 250 c 0xe8
 900 121 816 9 700 -33 c 2
 700 -150 l 2
 700 -205 655 -250 600 -250 c 0
 545 -250 500 -205 500 -150 c 2
 500 -33 l 2xd0
 384 9 300 121 300 250 c 0
 300 296 311 340 330 379 c 0
 329 379 l 2
 229 479 l 2
 209.5 498.5 199.75 524.25 199.75 550 c 0
 199.75 575.75 209.5 601.5 229 621 c 0
 248 640 273 650 300 650 c 0
EndSplineSet
Validated: 1
Ligature2: "'liga' Standard-Ligaturen in Lateinisch Nachschlagetabelle 0-1" t o n s i
EndChar

StartChar: tok.jasima
Encoding: 127 989567 127
Width: 1200
VWidth: 28900
Flags: W
HStem: -200.108 199.608<733.204 867.317> 0.5 199.608<332.683 466.796> 199.892 199.608<733.204 867.317> 400.5 199.608<332.683 466.796>
VStem: 100 200<-167.147 -36.0972 232.853 363.903> 500 200<-267.147 -183 183 217 583 667.147> 900 200<36.0972 167.147 436.097 567.147>
CounterMasks: 1 0e
LayerCount: 2
Fore
SplineSet
600 700 m 0xde
 655 700 700 655 700 600 c 2
 700 500 l 2
 700 464 719 431 750 413 c 0
 765.5 404 782.75 399.5 800 399.5 c 0
 817.25 399.5 834.5 404 850 413 c 0
 881 431 900 464 900 500 c 0
 900 555 945 600 1000 600 c 0
 1055 600 1100 555 1100 500 c 0
 1100 393 1043 294 950 240 c 0
 903.337196471 213.33554084 851.532911871 199.892033004 799.705946001 199.892033004 c 0xbe
 766.01133858 199.892033004 732.307144293 205.574302628 700 217 c 1
 700 100 l 2
 700 64 719 31 750 13 c 0
 765.5 4 782.75 -0.5 800 -0.5 c 0
 817.25 -0.5 834.5 4 850 13 c 0
 881 31 900 64 900 100 c 0
 900 155 945 200 1000 200 c 0
 1055 200 1100 155 1100 100 c 0
 1100 -7 1043 -106 950 -160 c 0
 903.337196471 -186.66445916 851.532911871 -200.107966996 799.705946001 -200.107966996 c 0
 766.01133858 -200.107966996 732.307144293 -194.425697372 700 -183 c 1
 700 -200 l 2
 700 -255 655 -300 600 -300 c 0
 545 -300 500 -255 500 -200 c 2
 500 -100 l 2
 500 -64 481 -31 450 -13 c 0
 434.5 -4 417.25 0.5 400 0.5 c 0
 382.75 0.5 365.5 -4 350 -13 c 0
 319 -31 300 -64 300 -100 c 0
 300 -155 255 -200 200 -200 c 0
 145 -200 100 -155 100 -100 c 0
 100 7 157 106 250 160 c 0
 296.662803529 186.66445916 348.467088129 200.107966996 400.294053999 200.107966996 c 0
 433.98866142 200.107966996 467.692855707 194.425697372 500 183 c 1
 500 300 l 2
 500 336 481 369 450 387 c 0
 434.5 396 417.25 400.5 400 400.5 c 0
 382.75 400.5 365.5 396 350 387 c 0
 319 369 300 336 300 300 c 0
 300 245 255 200 200 200 c 0
 145 200 100 245 100 300 c 0
 100 407 157 506 250 560 c 0
 296.662803529 586.66445916 348.467088129 600.107966996 400.294053999 600.107966996 c 0
 433.98866142 600.107966996 467.692855707 594.425697372 500 583 c 1
 500 600 l 2
 500 655 545 700 600 700 c 0xde
EndSplineSet
Validated: 1
Ligature2: "'liga' Standard-Ligaturen in Lateinisch Nachschlagetabelle 0-1" j a s i m a
EndChar

StartChar: tok.kijetesantakalu
Encoding: 128 989568 128
Width: 1200
VWidth: 30400
Flags: W
HStem: -300 200<336.097 467.147> 100 600<400 700>
VStem: 99.5 200<-67.4144 67.4144> 300 200<263.367 390.05> 700 200<-267.147 59>
LayerCount: 2
Fore
SplineSet
700 700 m 0
 727 700 752 690 771 671 c 2
 1071 371 l 2
 1090.5 351.5 1100.25 325.75 1100.25 300 c 0
 1100.25 274.25 1090.5 248.5 1071 229 c 2
 900 59 l 1
 900 -200 l 2
 900 -255 855 -300 800 -300 c 0
 745 -300 700 -255 700 -200 c 2
 700 100 l 2
 700 127 710 152 729 171 c 2
 859 300 l 1
 671 488 l 2
 576 472 500 400 500 300 c 2
 500 200 l 2
 500 145 455 100 400 100 c 0
 364 100 331 81 313 50 c 0
 304 34.5 299.5 17.25 299.5 0 c 0
 299.5 -17.25 304 -34.5 313 -50 c 0
 331 -81 364 -100 400 -100 c 0
 455 -100 500 -145 500 -200 c 0
 500 -255 455 -300 400 -300 c 0
 293 -300 194 -243 140 -150 c 0
 113 -103.5 99.5 -51.75 99.5 0 c 0
 99.5 51.75 113 103.5 140 150 c 0
 176 212 235 249 300 273 c 2
 300 300 l 2
 300 520 480 700 700 700 c 0
EndSplineSet
Validated: 1
Ligature2: "'liga' Standard-Ligaturen in Lateinisch Nachschlagetabelle 0-1" k i j e t e s a n t a k a l u
EndChar

StartChar: tok.soko
Encoding: 129 989569 129
Width: 1200
VWidth: 30100
Flags: W
HStem: 100 200<341 500 700 859> 500 200<487.375 712.625>
VStem: 500 200<-267.147 100>
LayerCount: 2
Fore
SplineSet
600 500 m 0
 472 500 385 411 341 300 c 1
 600 300 l 1
 859 300 l 1
 815 411 728 500 600 500 c 0
600 700 m 0
 875 700 1100 475 1100 200 c 0
 1100 145 1055 100 1000 100 c 2
 700 100 l 1
 700 -200 l 2
 700 -255 655 -300 600 -300 c 0
 545 -300 500 -255 500 -200 c 2
 500 100 l 1
 200 100 l 2
 145 100 100 145 100 200 c 0
 100 475 325 700 600 700 c 0
EndSplineSet
Validated: 1
Ligature2: "'liga' Standard-Ligaturen in Lateinisch Nachschlagetabelle 0-1" s o k o
EndChar

StartChar: tok.meso
Encoding: 130 989570 130
Width: 1200
VWidth: 30100
Flags: W
HStem: 100 200<532.853 667.147>
VStem: 200 200<-267.147 667.147> 500 200<132.853 267.147> 800 200<-267.147 667.147>
CounterMasks: 1 70
LayerCount: 2
Fore
SplineSet
600 300 m 0
 655 300 700 255 700 200 c 0
 700 145 655 100 600 100 c 0
 545 100 500 145 500 200 c 0
 500 255 545 300 600 300 c 0
900 700 m 0
 955 700 1000 655 1000 600 c 2
 1000 -200 l 2
 1000 -255 955 -300 900 -300 c 0
 845 -300 800 -255 800 -200 c 2
 800 600 l 2
 800 655 845 700 900 700 c 0
300 700 m 0
 355 700 400 655 400 600 c 2
 400 -200 l 2
 400 -255 355 -300 300 -300 c 0
 245 -300 200 -255 200 -200 c 2
 200 600 l 2
 200 655 245 700 300 700 c 0
EndSplineSet
Validated: 1
Ligature2: "'liga' Standard-Ligaturen in Lateinisch Nachschlagetabelle 0-1" m e s o
EndChar

StartChar: tok.epiku
Encoding: 131 989571 131
Width: 1200
VWidth: 30000
Flags: W
HStem: -299.75 199.25<479.277 720.723> 400 200<232.853 367.147 832.853 967.147> 500 200<532.853 667.147>
VStem: 100 200<80.4769 267.147> 200 200<432.853 567.147> 500 200<532.853 667.147> 800 200<432.853 567.147> 900 200<80.4769 267.147>
LayerCount: 2
Fore
SplineSet
200 300 m 0x8c
 255 300 300 255 300 200 c 0
 300 93 357 -6 450 -60 c 0
 496.5 -87 548.25 -100.5 600 -100.5 c 0
 651.75 -100.5 703.5 -87 750 -60 c 0
 843 -6 900 93 900 200 c 0x95
 900 255 945 300 1000 300 c 0x86
 1055 300 1100 255 1100 200 c 0
 1100 21 1005 -144 850 -233 c 0
 772.5 -277.5 686.25 -299.75 600 -299.75 c 0
 513.75 -299.75 427.5 -277.5 350 -233 c 0
 195 -144 100 21 100 200 c 0x95
 100 255 145 300 200 300 c 0x8c
900 600 m 0xc5
 955 600 1000 555 1000 500 c 0xa6
 1000 445 955 400 900 400 c 0xc5
 845 400 800 445 800 500 c 0xa6
 800 555 845 600 900 600 c 0xc5
300 600 m 0xd4
 355 600 400 555 400 500 c 0xac
 400 445 355 400 300 400 c 0xd4
 245 400 200 445 200 500 c 0xac
 200 555 245 600 300 600 c 0xd4
600 700 m 0
 655 700 700 655 700 600 c 0xc4
 700 545 655 500 600 500 c 0xa4
 545 500 500 545 500 600 c 0xc4
 500 655 545 700 600 700 c 0
EndSplineSet
Validated: 1
Ligature2: "'liga' Standard-Ligaturen in Lateinisch Nachschlagetabelle 0-1" e p i k u
EndChar

StartChar: tok.kokosila
Encoding: 132 989572 132
Width: 1200
VWidth: 30400
Flags: W
HStem: -300 200<515.702 681.707> 200 200<518.293 684.298> 400 200<232.853 367.147 832.853 967.147> 500 200<532.853 667.147>
VStem: 200 200<432.853 567.147> 500 200<532.853 667.147> 800 200<432.853 567.147>
CounterMasks: 1 0e
LayerCount: 2
Fore
SplineSet
724 -35 m 1x8e
 501 -63 l 1
 527 -86 562 -100 600 -100 c 0
 652 -100 697 -74 724 -35 c 1x8e
600 200 m 0xce
 548 200 503 174 476 135 c 1
 699 163 l 1
 673 186 638 200 600 200 c 0xce
600 400 m 0
 742 400 865 314 920 191 c 2
 988 199 l 2
 992.294106839 199.546522689 996.551639754 199.81264529 1000.75546576 199.81264529 c 0
 1050.39530017 199.81264529 1092.54652269 162.705893161 1099 112 c 0
 1099.54652269 107.705893161 1099.81264529 103.448360246 1099.81264529 99.244534238 c 0
 1099.81264529 49.60469983 1062.70589316 7.45347731137 1012 1 c 2
 945 -8 l 2
 917 -173 773 -300 600 -300 c 0
 458 -300 335 -214 280 -91 c 2
 212 -99 l 2
 207.705893161 -99.5465226886 203.448360246 -99.8126452903 199.244534238 -99.8126452903 c 0
 149.60469983 -99.8126452903 107.453477311 -62.7058931608 101 -12 c 0
 100.453477311 -7.70589316079 100.18735471 -3.44836024597 100.18735471 0.755465762036 c 0
 100.18735471 50.39530017 137.294106839 92.5465226886 188 99 c 2
 255 108 l 2
 283 273 427 400 600 400 c 0
900 600 m 0xae
 955 600 1000 555 1000 500 c 0x9e
 1000 445 955 400 900 400 c 0xae
 845 400 800 445 800 500 c 0x9e
 800 555 845 600 900 600 c 0xae
300 600 m 0xae
 355 600 400 555 400 500 c 0x9e
 400 445 355 400 300 400 c 0xae
 245 400 200 445 200 500 c 0x9e
 200 555 245 600 300 600 c 0xae
600 700 m 0
 655 700 700 655 700 600 c 0xae
 700 545 655 500 600 500 c 0x9e
 545 500 500 545 500 600 c 0xae
 500 655 545 700 600 700 c 0
EndSplineSet
Validated: 1
Ligature2: "'liga' Standard-Ligaturen in Lateinisch Nachschlagetabelle 0-1" k o k o s i l a
EndChar

StartChar: tok.lanpan
Encoding: 133 989573 133
Width: 1200
VWidth: 30400
Flags: W
HStem: -300 200<334.241 620.058 932.853 1067.15> 0 200<899.763 1067.15> 100 200<332.704 467.385> 500 200<332.615 467.385>
VStem: 100 200<-65.7589 117 332.456 467.226> 500 200<332.615 467.385> 900 200<-267.147 -132.853>
CounterMasks: 1 0e
LayerCount: 2
Fore
SplineSet
1000 -100 m 0x9e
 1055 -100 1100 -145 1100 -200 c 0
 1100 -255 1055 -300 1000 -300 c 0
 945 -300 900 -255 900 -200 c 0
 900 -145 945 -100 1000 -100 c 0x9e
400 500 m 0
 344 500 300 456 300 400 c 0
 300 344 344 300 400 300 c 0xbe
 456 300 500 344 500 400 c 0
 500 456 456 500 400 500 c 0
400 700 m 0
 564 700 700 564 700 400 c 0
 700 236 564 100 400 100 c 0xbe
 365 100 331 106 300 117 c 1
 300 0 l 2
 300 -27 310 -52 329 -71 c 0
 348 -90 373 -100 400 -100 c 2
 613 -100 l 2
 658 72 815 200 1000 200 c 0xde
 1055 200 1100 155 1100 100 c 0xbe
 1100 45 1055 0 1000 0 c 0
 888 0 800 -88 800 -200 c 0
 800 -207 799 -214 798 -221 c 0
 797 -223 797 -225 796 -227 c 0
 795 -232 793 -236 791 -241 c 0
 790 -243 789 -245 788 -247 c 0
 786 -251 783 -256 780 -260 c 0
 779 -262 777 -263 775 -265 c 0
 772 -269 769 -272 765 -275 c 0
 763 -277 762 -279 760 -280 c 0
 756 -283 751 -286 747 -288 c 0
 745 -289 743 -290 741 -291 c 0
 736 -293 732 -295 727 -296 c 0
 725 -297 723 -297 721 -298 c 0
 714 -300 707 -300 700 -300 c 2
 400 -300 l 2
 321 -300 244 -268 188 -212 c 0
 132 -156 100 -79 100 0 c 2xde
 100 400 l 2
 100 564 236 700 400 700 c 0
EndSplineSet
Validated: 1
Ligature2: "'liga' Standard-Ligaturen in Lateinisch Nachschlagetabelle 0-1" l a n p a n
EndChar

StartChar: tok.n
Encoding: 134 989574 134
Width: 1200
VWidth: 30400
Flags: W
HStem: 0 200<532.615 667.385> 300 400<532.853 667.147>
VStem: 300 200<-267.147 -32.774> 500 200<332.853 667.147> 700 200<-267.147 -32.774>
LayerCount: 2
Fore
SplineSet
600 200 m 0xe8
 764 200 900 64 900 -100 c 2
 900 -200 l 2
 900 -255 855 -300 800 -300 c 0
 745 -300 700 -255 700 -200 c 2
 700 -100 l 2
 700 -44 656 0 600 0 c 0
 544 0 500 -44 500 -100 c 2
 500 -200 l 2
 500 -255 455 -300 400 -300 c 0
 345 -300 300 -255 300 -200 c 2
 300 -100 l 2
 300 64 436 200 600 200 c 0xe8
600 700 m 0
 655 700 700 655 700 600 c 2
 700 400 l 2
 700 345 655 300 600 300 c 0
 545 300 500 345 500 400 c 2
 500 600 l 2xd0
 500 655 545 700 600 700 c 0
EndSplineSet
Validated: 1
Ligature2: "'liga' Standard-Ligaturen in Lateinisch Nachschlagetabelle 0-1" n
EndChar

StartChar: tok.misikeke
Encoding: 135 989575 135
Width: 1200
VWidth: 29800
Flags: W
HStem: -300 200<487.375 712.625> 100 200<341 459 741 859>
LayerCount: 2
Fore
SplineSet
341 100 m 1
 385 -11 472 -100 600 -100 c 0
 728 -100 815 -11 859 100 c 1
 600 100 l 1
 341 100 l 1
889 699 m 0
 892.492819978 699.349281998 895.99919528 699.522344787 899.501765593 699.522344787 c 0
 926.082941383 699.522344787 952.444973985 689.555026015 971 671 c 0
 990.5 651.5 1000.25 625.75 1000.25 600 c 0
 1000.25 574.25 990.5 548.5 971 529 c 2
 741 300 l 1
 1000 300 l 2
 1055 300 1100 255 1100 200 c 0
 1100 -75 875 -300 600 -300 c 0
 325 -300 100 -75 100 200 c 0
 100 255 145 300 200 300 c 2
 459 300 l 1
 829 671 l 2
 845 687 866 696 889 699 c 0
EndSplineSet
Validated: 1
Ligature2: "'liga' Standard-Ligaturen in Lateinisch Nachschlagetabelle 0-1" m i s i k e k e
EndChar

StartChar: tok.ku
Encoding: 136 989576 136
Width: 1200
VWidth: 30400
Flags: W
HStem: -300 200<300 538 762 900> 500 200<300 806>
VStem: 100 200<-100 500> 900 200<-100 323>
LayerCount: 2
Fore
SplineSet
900 323 m 1
 631 162 l 1
 762 -100 l 1
 900 -100 l 1
 900 323 l 1
300 500 m 1
 300 -100 l 1
 538 -100 l 1
 411 155 l 2
 403.940123427 169.426704302 400.554788313 184.795598721 400.554788313 199.949857878 c 0
 400.554788313 234.165861357 417.812801991 267.287681195 449 286 c 2
 806 500 l 1
 300 500 l 1
200 700 m 2
 1000 700 l 2
 1055 700 1100 655 1100 600 c 2
 1100 -200 l 2
 1100 -255 1055 -300 1000 -300 c 2
 200 -300 l 2
 145 -300 100 -255 100 -200 c 2
 100 600 l 2
 100 655 145 700 200 700 c 2
EndSplineSet
Validated: 1
Ligature2: "'liga' Standard-Ligaturen in Lateinisch Nachschlagetabelle 0-1" k u
EndChar

StartChar: tok.dot
Encoding: 137 989596 137
Width: 1200
VWidth: 31200
Flags: W
HStem: 100 200<532.853 667.147>
VStem: 500 200<132.853 267.147>
LayerCount: 2
Fore
SplineSet
600 300 m 0
 655 300 700 255 700 200 c 0
 700 145 655 100 600 100 c 0
 545 100 500 145 500 200 c 0
 500 255 545 300 600 300 c 0
EndSplineSet
Validated: 1
Ligature2: "'liga' Standard-Ligaturen in Lateinisch Nachschlagetabelle 0-1" question
Ligature2: "'liga' Standard-Ligaturen in Lateinisch Nachschlagetabelle 0-1" exclam
Ligature2: "'liga' Standard-Ligaturen in Lateinisch Nachschlagetabelle 0-1" comma
Ligature2: "'liga' Standard-Ligaturen in Lateinisch Nachschlagetabelle 0-1" period
EndChar

StartChar: tok.colon
Encoding: 138 989597 138
Width: 1200
VWidth: 31400
Flags: W
HStem: -100 200<532.853 667.147> 300 200<532.853 667.147>
VStem: 500 200<-67.1471 67.1471 332.853 467.147>
LayerCount: 2
Fore
SplineSet
600 100 m 0
 655 100 700 55 700 0 c 0
 700 -55 655 -100 600 -100 c 0
 545 -100 500 -55 500 0 c 0
 500 55 545 100 600 100 c 0
600 500 m 0
 655 500 700 455 700 400 c 0
 700 345 655 300 600 300 c 0
 545 300 500 345 500 400 c 0
 500 455 545 500 600 500 c 0
EndSplineSet
Validated: 1
Ligature2: "'liga' Standard-Ligaturen in Lateinisch Nachschlagetabelle 0-1" colon
EndChar

StartChar: tok.pake
Encoding: 139 989600 139
Width: 1200
VWidth: 32500
Flags: W
HStem: 500 200<132.853 500 700 1067.15>
VStem: 500 200<-267.147 500>
LayerCount: 2
Fore
SplineSet
200 700 m 2
 1000 700 l 2
 1055 700 1100 655 1100 600 c 0
 1100 545 1055 500 1000 500 c 2
 700 500 l 1
 700 -200 l 2
 700 -255 655 -300 600 -300 c 0
 545 -300 500 -255 500 -200 c 2
 500 500 l 1
 200 500 l 2
 145 500 100 545 100 600 c 0
 100 655 145 700 200 700 c 2
EndSplineSet
Validated: 1
Ligature2: "'liga' Standard-Ligaturen in Lateinisch Nachschlagetabelle 0-1" p a k e
EndChar

StartChar: tok.apeja
Encoding: 140 989601 140
Width: 1200
VWidth: 32600
Flags: W
HStem: -150 200<532.853 667.147> 350 200<232.853 367.147 832.853 967.147>
VStem: 200 200<382.853 517.147> 500 200<-117.147 17.1471> 800 200<382.853 517.147>
CounterMasks: 1 38
LayerCount: 2
Fore
SplineSet
600 50 m 0
 655 50 700 5 700 -50 c 0
 700 -105 655 -150 600 -150 c 0
 545 -150 500 -105 500 -50 c 0
 500 5 545 50 600 50 c 0
600 450 m 0
 627 450 652 440 671 421 c 2
 971 121 l 2
 990.5 101.5 1000.25 75.75 1000.25 50 c 0
 1000.25 24.25 990.5 -1.5 971 -21 c 0
 951.5 -40.5 925.75 -50.25 900 -50.25 c 0
 874.25 -50.25 848.5 -40.5 829 -21 c 2
 600 209 l 1
 371 -21 l 2
 351.5 -40.5 325.75 -50.25 300 -50.25 c 0
 274.25 -50.25 248.5 -40.5 229 -21 c 0
 209.5 -1.5 199.75 24.25 199.75 50 c 0
 199.75 75.75 209.5 101.5 229 121 c 2
 529 421 l 2
 548 440 573 450 600 450 c 0
900 550 m 0
 955 550 1000 505 1000 450 c 0
 1000 395 955 350 900 350 c 0
 845 350 800 395 800 450 c 0
 800 505 845 550 900 550 c 0
300 550 m 0
 355 550 400 505 400 450 c 0
 400 395 355 350 300 350 c 0
 245 350 200 395 200 450 c 0
 200 505 245 550 300 550 c 0
EndSplineSet
Validated: 1
Ligature2: "'liga' Standard-Ligaturen in Lateinisch Nachschlagetabelle 0-1" a p e j a
EndChar

StartChar: tok.majuna
Encoding: 141 989602 141
Width: 1200
VWidth: 32400
Flags: W
HStem: -150 400<532.853 667.147> 350 200<132.853 467.147 732.853 1067.15>
VStem: 100 400<382.853 517.147> 500 200<-117.147 217.147> 700 400<382.853 517.147>
LayerCount: 2
Fore
SplineSet
600 250 m 0xd0
 655 250 700 205 700 150 c 2
 700 -50 l 2
 700 -105 655 -150 600 -150 c 0
 545 -150 500 -105 500 -50 c 2
 500 150 l 2
 500 205 545 250 600 250 c 0xd0
800 550 m 2
 1000 550 l 2
 1055 550 1100 505 1100 450 c 0
 1100 395 1055 350 1000 350 c 2
 800 350 l 2
 745 350 700 395 700 450 c 0xc8
 700 505 745 550 800 550 c 2
200 550 m 2
 400 550 l 2
 455 550 500 505 500 450 c 0
 500 395 455 350 400 350 c 2
 200 350 l 2
 145 350 100 395 100 450 c 0xe0
 100 505 145 550 200 550 c 2
EndSplineSet
Validated: 1
Ligature2: "'liga' Standard-Ligaturen in Lateinisch Nachschlagetabelle 0-1" m a j u n a
EndChar

StartChar: tok.powe
Encoding: 142 989603 142
Width: 1200
VWidth: 32400
Flags: W
HStem: -250 200<132.853 1067.15>
LayerCount: 2
Fore
SplineSet
200 -50 m 2
 1000 -50 l 2
 1055 -50 1100 -95 1100 -150 c 0
 1100 -205 1055 -250 1000 -250 c 2
 200 -250 l 2
 145 -250 100 -205 100 -150 c 0
 100 -95 145 -50 200 -50 c 2
400 650 m 0
 427 650 452 640 471 621 c 2
 600 491 l 1
 729 621 l 2
 748 640 773 650 800 650 c 0
 827 650 852 640 871 621 c 0
 890.5 601.5 900.25 575.75 900.25 550 c 0
 900.25 524.25 890.5 498.5 871 479 c 2
 741 350 l 1
 871 221 l 2
 890.5 201.5 900.25 175.75 900.25 150 c 0
 900.25 124.25 890.5 98.5 871 79 c 0
 851.5 59.5 825.75 49.75 800 49.75 c 0
 774.25 49.75 748.5 59.5 729 79 c 2
 600 209 l 1
 471 79 l 2
 451.5 59.5 425.75 49.75 400 49.75 c 0
 374.25 49.75 348.5 59.5 329 79 c 0
 309.5 98.5 299.75 124.25 299.75 150 c 0
 299.75 175.75 309.5 201.5 329 221 c 2
 459 350 l 1
 329 479 l 2
 309.5 498.5 299.75 524.25 299.75 550 c 0
 299.75 575.75 309.5 601.5 329 621 c 0
 348 640 373 650 400 650 c 0
EndSplineSet
Validated: 1
Ligature2: "'liga' Standard-Ligaturen in Lateinisch Nachschlagetabelle 0-1" p o w e
EndChar

StartChar: akesi1
Encoding: 143 -1 143
Width: 1200
VWidth: 19400
Flags: W
HStem: -297.75 189.5<531.375 668.625> -3 200<132.853 305 495 705 895 1067.15> 303 189<531.409 668.591> 497 200<132.853 467.147 732.853 1067.15>
VStem: 100 400<529.853 664.147> 305 190<-70.381 -3 197 264.504> 700 400<529.853 664.147> 705 190<-70.381 -3 197 264.504>
LayerCount: 2
Fore
SplineSet
495 -3 m 1xf5
 495 -41 514 -75 547 -94 c 0
 563.5 -103.5 581.75 -108.25 600 -108.25 c 0
 618.25 -108.25 636.5 -103.5 653 -94 c 0
 686 -75 705 -41 705 -3 c 1
 495 -3 l 1xf5
600 303 m 0
 582 303 563 297 547 288 c 0
 514 269 495 235 495 197 c 1
 705 197 l 1
 705 235 686 269 653 288 c 0
 637 297 618 303 600 303 c 0
600 492 m 0
 651 492 701 479 747 453 c 0
 838 400 895 302 895 197 c 1xf5
 1000 197 l 2
 1055 197 1100 152 1100 97 c 0xf2
 1100 42 1055 -3 1000 -3 c 2
 895 -3 l 1
 895 -108 838 -205 747 -258 c 0
 701.5 -284.5 650.75 -297.75 600 -297.75 c 0
 549.25 -297.75 498.5 -284.5 453 -258 c 0
 362 -205 305 -108 305 -3 c 1xf5
 200 -3 l 2
 145 -3 100 42 100 97 c 0xf8
 100 152 145 197 200 197 c 2
 305 197 l 1
 305 302 362 400 453 453 c 0
 499 479 549 492 600 492 c 0
800 697 m 2
 1000 697 l 2
 1055 697 1100 652 1100 597 c 0
 1100 542 1055 497 1000 497 c 2
 800 497 l 2
 745 497 700 542 700 597 c 0xf2
 700 652 745 697 800 697 c 2
200 697 m 2
 400 697 l 2
 455 697 500 652 500 597 c 0
 500 542 455 497 400 497 c 2
 200 497 l 2
 145 497 100 542 100 597 c 0xf8
 100 652 145 697 200 697 c 2
EndSplineSet
Validated: 1
Ligature2: "'liga' Standard-Ligaturen in Lateinisch Nachschlagetabelle 1-1" tok.akesi VS1
EndChar

StartChar: ante1
Encoding: 144 -1 144
Width: 1200
VWidth: 19300
Flags: W
LayerCount: 2
Fore
SplineSet
838 225 m 0
 874 223 906 203 922 171 c 2
 1089 -154 l 2
 1096.45604374 -168.613845738 1099.99836927 -184.295069171 1099.99836927 -199.770323934 c 0
 1099.99836927 -236.183360383 1080.38615426 -271.456043744 1046 -289 c 0
 1031.38615426 -296.456043744 1015.70493083 -299.998369271 1000.22967607 -299.998369271 c 0
 963.816639617 -299.998369271 928.543956256 -280.386154262 911 -246 c 2
 790 -10 l 1
 246 -289 l 2
 231.386154262 -296.456043744 215.704930829 -299.998369271 200.229676066 -299.998369271 c 0
 163.816639617 -299.998369271 128.543956256 -280.386154262 111 -246 c 0
 103.543956256 -231.386154262 100.001630729 -215.704930829 100.001630729 -200.229676066 c 0
 100.001630729 -163.816639617 119.613845738 -128.543956256 154 -111 c 2
 787 214 l 2
 801.383671769 221.191835885 816.575507654 225.151015307 832.575507654 225.151015307 c 0
 834.373466625 225.151015307 836.18163074 225.101020514 838 225 c 0
205 700 m 0
 241 698 273 678 289 646 c 2
 410 410 l 1
 954 689 l 2
 968.613845738 696.456043744 984.295069171 699.998369271 999.770323934 699.998369271 c 0
 1036.18336038 699.998369271 1071.45604374 680.386154262 1089 646 c 0
 1096.45604374 631.386154262 1099.99836927 615.704930829 1099.99836927 600.229676066 c 0
 1099.99836927 563.816639617 1080.38615426 528.543956256 1046 511 c 2
 413 186 l 2
 398.386154262 178.543956256 382.704930829 175.001630729 367.229676066 175.001630729 c 0
 330.816639617 175.001630729 295.543956256 194.613845738 278 229 c 2
 111 554 l 2
 103.543956256 568.613845738 100.001630729 584.295069171 100.001630729 599.770323934 c 0
 100.001630729 636.183360383 119.613845738 671.456043744 154 689 c 0
 168.383671769 696.191835885 183.575507654 700.151015307 199.575507654 700.151015307 c 0
 201.373466625 700.151015307 203.18163074 700.101020514 205 700 c 0
EndSplineSet
Validated: 1
Ligature2: "'liga' Standard-Ligaturen in Lateinisch Nachschlagetabelle 1-1" tok.ante VS1
EndChar

StartChar: esun1
Encoding: 145 -1 145
Width: 1200
VWidth: 19600
Flags: W
HStem: -300 200<306.025 493.975> 0 200<306.025 500 700 797.924> 200 200<402.499 500 700 893.975> 500 200<706.025 893.975>
VStem: 100 200<-94.1099 -5.89013 502.499 667.147> 500 200<-93.9753 0 400 493.975> 900 200<-267.147 -102.499 405.89 494.11>
CounterMasks: 1 0e
LayerCount: 2
Fore
SplineSet
350 0 m 2xde
 321 0 300 -21 300 -50 c 0
 300 -79 321 -100 350 -100 c 2
 450 -100 l 2
 479 -100 500 -79 500 -50 c 2
 500 0 l 1
 350 0 l 2xde
750 500 m 2
 721 500 700 479 700 450 c 2
 700 400 l 1
 850 400 l 2xbe
 879 400 900 421 900 450 c 0
 900 479 879 500 850 500 c 2
 750 500 l 2
200 700 m 0
 255 700 300 655 300 600 c 0
 300 547 321 497 359 459 c 0
 397 421 447 400 500 400 c 1
 500 450 l 2
 500 587 613 700 750 700 c 2
 850 700 l 2
 987 700 1100 587 1100 450 c 0
 1100 313 987 200 850 200 c 2xbe
 700 200 l 1
 806 200 908 158 983 83 c 0
 1058 8 1100 -94 1100 -200 c 0
 1100 -255 1055 -300 1000 -300 c 0
 945 -300 900 -255 900 -200 c 0
 900 -147 879 -97 841 -59 c 0
 803 -21 753 0 700 0 c 1
 700 -50 l 2
 700 -187 587 -300 450 -300 c 2
 350 -300 l 2
 213 -300 100 -187 100 -50 c 0
 100 87 213 200 350 200 c 2
 500 200 l 1xde
 394 200 292 242 217 317 c 0
 142 392 100 494 100 600 c 0
 100 655 145 700 200 700 c 0
EndSplineSet
Validated: 1
Ligature2: "'liga' Standard-Ligaturen in Lateinisch Nachschlagetabelle 1-1" tok.esun VS1
EndChar

StartChar: esun2
Encoding: 146 -1 146
Width: 1200
VWidth: 19600
Flags: W
HStem: -300 200<306.025 490.202> -100 200<701.497 867.226> 0 200<305.89 466.948> 200 200<733.052 894.11> 300 200<332.774 498.503> 500 200<709.798 893.975>
VStem: 100 200<-94.1099 -5.89013 532.774 667.147> 500 200<165 235> 900 200<-267.147 -132.774 405.89 494.11>
CounterMasks: 1 0380
LayerCount: 2
Fore
SplineSet
350 0 m 0xa380
 321 0 300 -21 300 -50 c 0
 300 -79 321 -100 350 -100 c 2
 450 -100 l 2
 479 -100 500 -79 500 -50 c 2
 500 -38 l 2
 443 -17 396 0 350 0 c 0xa380
750 500 m 2x1780
 721 500 700 479 700 450 c 2
 700 438 l 2
 757 417 804 400 850 400 c 0
 879 400 900 421 900 450 c 0
 900 479 879 500 850 500 c 2
 750 500 l 2x1780
200 700 m 0
 255 700 300 655 300 600 c 0
 300 544 344 500 400 500 c 0x0b80
 447 500 473 486 512 478 c 1
 528 600 624 700 750 700 c 2
 850 700 l 2
 987 700 1100 587 1100 450 c 0
 1100 313 987 200 850 200 c 0
 789 200 747 220 700 235 c 1
 700 121 l 2
 732 114 760 100 800 100 c 0x5780
 964 100 1100 -36 1100 -200 c 0
 1100 -255 1055 -300 1000 -300 c 0x8380
 945 -300 900 -255 900 -200 c 0
 900 -144 856 -100 800 -100 c 0x4380
 753 -100 727 -86 688 -78 c 1
 672 -200 576 -300 450 -300 c 2
 350 -300 l 2
 213 -300 100 -187 100 -50 c 0
 100 87 213 200 350 200 c 0
 411 200 453 180 500 165 c 1
 500 279 l 2
 468 286 440 300 400 300 c 0xab80
 236 300 100 436 100 600 c 0
 100 655 145 700 200 700 c 0
EndSplineSet
Validated: 1
Ligature2: "'liga' Standard-Ligaturen in Lateinisch Nachschlagetabelle 1-1" tok.esun VS2
EndChar

StartChar: esun3
Encoding: 147 -1 147
Width: 1200
VWidth: 19600
Flags: W
HStem: -300 200<405.89 494.11> 0 200<406.025 500 700 797.501> 200 200<402.499 500 700 793.975> 500 200<705.89 794.11>
VStem: 100 200<502.499 667.147> 200 200<-94.1099 -5.89013> 500 200<-93.9753 0 400 493.975> 800 200<405.89 494.11> 900 200<-267.147 -102.499>
LayerCount: 2
Fore
SplineSet
450 0 m 2xd6
 421 0 400 -21 400 -50 c 0
 400 -79 421 -100 450 -100 c 0
 479 -100 500 -79 500 -50 c 2
 500 0 l 1
 450 0 l 2xd6
750 500 m 0
 721 500 700 479 700 450 c 2
 700 400 l 1
 750 400 l 2
 779 400 800 421 800 450 c 0xb3
 800 479 779 500 750 500 c 0
200 700 m 0xd6
 255 700 300 655 300 600 c 0
 300 547 321 497 359 459 c 0
 397 421 447 400 500 400 c 1
 500 450 l 2
 500 587 613 700 750 700 c 0
 887 700 1000 587 1000 450 c 0xbb
 1000 313 887 200 750 200 c 2
 700 200 l 1
 806 200 908 158 983 83 c 0
 1058 8 1100 -94 1100 -200 c 0xd280
 1100 -255 1055 -300 1000 -300 c 0xd3
 945 -300 900 -255 900 -200 c 0
 900 -147 879 -97 841 -59 c 0
 803 -21 753 0 700 0 c 1
 700 -50 l 2
 700 -187 587 -300 450 -300 c 0
 313 -300 200 -187 200 -50 c 0xd680
 200 87 313 200 450 200 c 2
 500 200 l 1
 394 200 292 242 217 317 c 0
 142 392 100 494 100 600 c 0xda
 100 655 145 700 200 700 c 0xd6
EndSplineSet
Validated: 1
Ligature2: "'liga' Standard-Ligaturen in Lateinisch Nachschlagetabelle 1-1" tok.esun VS3
EndChar

StartChar: esun4
Encoding: 148 -1 148
Width: 1200
VWidth: 19600
Flags: W
HStem: -300 200<432.615 565.78> 500 200<634.22 767.385>
VStem: 100 200<502.499 667.147> 200 200<-67.385 67.4591> 800 200<332.541 467.385> 900 200<-267.147 -102.499>
LayerCount: 2
Fore
SplineSet
500 100 m 0xd0
 444 100 400 56 400 0 c 0
 400 -56 444 -100 500 -100 c 0
 556 -100 600 -56 600 0 c 0
 600 56 556 100 500 100 c 0xd0
700 500 m 0
 644 500 600 456 600 400 c 0
 600 344 644 300 700 300 c 0
 756 300 800 344 800 400 c 0xc8
 800 456 756 500 700 500 c 0
200 700 m 0xd0
 255 700 300 655 300 600 c 0
 300 547 321 497 359 459 c 0
 372 446 386 435 401 426 c 1
 414 578 544 700 700 700 c 0
 864 700 1000 564 1000 400 c 0xe8
 1000 301 951 214 877 159 c 1
 916 140 952 114 983 83 c 0
 1058 8 1100 -94 1100 -200 c 0xc4
 1100 -255 1055 -300 1000 -300 c 0xc8
 945 -300 900 -255 900 -200 c 0
 900 -147 879 -97 841 -59 c 0
 828 -46 814 -35 799 -26 c 1
 786 -178 656 -300 500 -300 c 0
 336 -300 200 -164 200 0 c 0xd4
 200 99 249 186 323 241 c 1
 284 260 248 286 217 317 c 0
 142 392 100 494 100 600 c 0xe0
 100 655 145 700 200 700 c 0xd0
EndSplineSet
Validated: 1
Ligature2: "'liga' Standard-Ligaturen in Lateinisch Nachschlagetabelle 1-1" tok.esun VS4
EndChar

StartChar: jaki1
Encoding: 149 -1 149
Width: 1200
VWidth: 21700
Flags: W
HStem: -300 200<332.615 465.755> 100 200<332.615 487.812>
VStem: 100 200<-67.385 67.385> 500 200<441 667.147>
LayerCount: 2
Fore
SplineSet
400 100 m 0
 344 100 300 56 300 0 c 0
 300 -56 344 -100 400 -100 c 0
 456 -100 500 -56 500 0 c 2
 500 69 l 2
 457 86 417 100 400 100 c 0
600 700 m 0
 655 700 700 655 700 600 c 2
 700 441 l 1
 929 671 l 2
 948 690 973 700 1000 700 c 0
 1027 700 1052 690 1071 671 c 0
 1090.5 651.5 1100.25 625.75 1100.25 600 c 0
 1100.25 574.25 1090.5 548.5 1071 529 c 2
 741 200 l 1
 1071 -129 l 2
 1090.5 -148.5 1100.25 -174.25 1100.25 -200 c 0
 1100.25 -225.75 1090.5 -251.5 1071 -271 c 0
 1051.5 -290.5 1025.75 -300.25 1000 -300.25 c 0
 974.25 -300.25 948.5 -290.5 929 -271 c 2
 729 -71 l 2
 720 -62 703 -52 690 -43 c 1
 687 -49 684 -54 680 -59 c 0
 651 -193 542 -300 400 -300 c 0
 236 -300 100 -164 100 0 c 0
 100 164 236 300 400 300 c 0
 434 300 467 295 500 286 c 1
 500 600 l 2
 500 655 545 700 600 700 c 0
EndSplineSet
Validated: 1
Ligature2: "'liga' Standard-Ligaturen in Lateinisch Nachschlagetabelle 1-1" tok.jaki VS1
EndChar

StartChar: kute1
Encoding: 150 -1 150
Width: 1200
VWidth: 22700
Flags: W
HStem: -0 400<488.853 623.6> 499.297 200.772<458.361 653.365>
VStem: 456 201<34.6503 365.35> 756 201<42 396.168>
LayerCount: 2
Fore
SplineSet
556 400 m 0
 611 400 657 355 657 300 c 2
 657 100 l 2
 657 45 611 0 556 -0 c 0
 501 0 456 45 456 100 c 2
 456 300 l 2
 456 355 501 400 556 400 c 0
550 700 m 0
 552.454545455 700.045454545 554.909090909 700.068181818 557.363354621 700.068181818 c 0
 608.902892562 700.068181818 660.318181818 690.045454545 709 670 c 0
 858 608 957 462 957 300 c 2
 957 0 l 2
 957 -27 946 -52 927 -71 c 2
 727 -271 l 2
 707.5 -290.5 681.75 -300.25 656 -300.25 c 0
 630.25 -300.25 604.5 -290.5 585 -271 c 0
 565.5 -251.5 555.75 -225.75 555.75 -200 c 0
 555.75 -174.25 565.5 -148.5 585 -129 c 2
 756 42 l 1
 756 300 l 2
 756 381 708 453 633 484 c 0
 608.091901828 494.295347244 581.970550874 499.29650053 556.101150503 499.29650053 c 0
 504.07600371 499.29650053 453.06984539 479.06984539 415 441 c 0
 395.5 421.5 369.75 411.75 344 411.75 c 0
 318.25 411.75 292.5 421.5 273 441 c 0
 253.5 460.5 243.75 486.25 243.75 512 c 0
 243.75 537.75 253.5 563.5 273 583 c 0
 330 640 402 678 478 693 c 0
 502 698 526 700 550 700 c 0
EndSplineSet
Validated: 1
Ligature2: "'liga' Standard-Ligaturen in Lateinisch Nachschlagetabelle 1-1" tok.kute VS1
EndChar

StartChar: lukin1
Encoding: 151 -1 151
Width: 1200
VWidth: 23200
Flags: W
HStem: -300 200<300 712.563> 500 200<487.437 900>
VStem: 100 200<-100 312.563> 900 200<87.4373 500>
LayerCount: 2
Fore
SplineSet
525 375 m 0
 552 375 577 365 596 346 c 2
 746 196 l 2
 765.5 176.5 775.25 150.75 775.25 125 c 0
 775.25 99.25 765.5 73.5 746 54 c 0
 726.5 34.5 700.75 24.75 675 24.75 c 0
 649.25 24.75 623.5 34.5 604 54 c 2
 454 204 l 2
 434.5 223.5 424.75 249.25 424.75 275 c 0
 424.75 300.75 434.5 326.5 454 346 c 0
 473 365 498 375 525 375 c 0
600 500 m 2
 433 500 300 367 300 200 c 2
 300 -100 l 1
 600 -100 l 2
 767 -100 900 33 900 200 c 2
 900 500 l 1
 600 500 l 2
600 700 m 2
 1000 700 l 2
 1055 700 1100 655 1100 600 c 2
 1100 200 l 2
 1100 -75 875 -300 600 -300 c 2
 200 -300 l 2
 145 -300 100 -255 100 -200 c 2
 100 200 l 2
 100 475 325 700 600 700 c 2
EndSplineSet
Validated: 1
Ligature2: "'liga' Standard-Ligaturen in Lateinisch Nachschlagetabelle 1-1" tok.lukin VS1
EndChar

StartChar: moku1
Encoding: 152 -1 152
Width: 1200
VWidth: 24400
Flags: W
HStem: 100 200<489.456 710.544> 500 200<341 859>
VStem: 100 1000<503.095 667.147> 100 200<-267.147 -81.5312> 900 200<-267.147 -81.5312>
LayerCount: 2
Fore
SplineSet
341 500 m 1xc0
 385 389 472 300 600 300 c 0
 728 300 815 389 859 500 c 1
 600 500 l 1
 341 500 l 1xc0
200 700 m 2
 600 700 l 1
 1000 700 l 2
 1055 700 1100 655 1100 600 c 0xe0
 1100 437 1021 291 899 200 c 1
 1021 109 1100 -37 1100 -200 c 0
 1100 -255 1055 -300 1000 -300 c 0
 945 -300 900 -255 900 -200 c 0
 900 -33 767 100 600 100 c 0
 433 100 300 -33 300 -200 c 0
 300 -255 255 -300 200 -300 c 0
 145 -300 100 -255 100 -200 c 0xd8
 100 -37 179 109 301 200 c 1
 179 291 100 437 100 600 c 0xe0
 100 655 145 700 200 700 c 2
EndSplineSet
Validated: 1
Ligature2: "'liga' Standard-Ligaturen in Lateinisch Nachschlagetabelle 1-1" tok.moku VS1
EndChar

StartChar: musi1
Encoding: 153 -1 153
Width: 1200
VWidth: 24400
Flags: W
HStem: -300 200<500.051 699.325>
VStem: 100 400<403.189 595.129> 200 200<0.338745 343.898> 700 400<403.189 595.129> 800 200<4.57249 343.898>
LayerCount: 2
Fore
SplineSet
300 700 m 0xc0
 410 700 500 610 500 500 c 0xc0
 500 429 462 363 400 327 c 2
 400 100 l 2
 400 -12 488 -100 600 -100 c 0
 712 -100 800 -12 800 100 c 2
 800 327 l 2xa8
 738 363 700 429 700 500 c 0
 700 610 790 700 900 700 c 0
 1010 700 1100 610 1100 500 c 0x90
 1100 429 1062 363 1000 327 c 2
 1000 100 l 2
 1000 98 1000 95 1000 93 c 0
 996 -123 817 -300 600 -300 c 0
 380 -300 200 -120 200 100 c 2
 200 327 l 2xa8
 138 363 100 429 100 500 c 0
 100 610 190 700 300 700 c 0xc0
EndSplineSet
Validated: 1
Ligature2: "'liga' Standard-Ligaturen in Lateinisch Nachschlagetabelle 1-1" tok.musi VS1
EndChar

StartChar: musi2
Encoding: 154 -1 154
Width: 1200
VWidth: 24400
Flags: W
HStem: -300 200<532.615 667.385>
VStem: 300 200<-67.226 300> 700 400<404.871 595.129> 700 200<-67.226 300>
LayerCount: 2
Fore
SplineSet
300 700 m 0xd0
 410 700 500 610 500 500 c 2
 500 0 l 2
 500 -56 544 -100 600 -100 c 0
 656 -100 700 -56 700 0 c 2xd0
 700 500 l 2xe0
 700 610 790 700 900 700 c 0xd0
 1010 700 1100 610 1100 500 c 0xe0
 1100 390 1010 300 900 300 c 1
 900 0 l 2
 900 -164 764 -300 600 -300 c 0
 436 -300 300 -164 300 0 c 2
 300 300 l 1
 190 300 100 390 100 500 c 0
 100 610 190 700 300 700 c 0xd0
EndSplineSet
Validated: 1
Ligature2: "'liga' Standard-Ligaturen in Lateinisch Nachschlagetabelle 1-1" tok.musi VS2
EndChar

StartChar: sewi1
Encoding: 155 -1 155
Width: 1200
VWidth: 26500
Flags: W
HStem: 200 200<300 900> 500 200<432.853 767.147>
VStem: 100 200<-267.147 200> 400 400<532.853 667.147> 900 200<-267.147 200>
CounterMasks: 1 38
LayerCount: 2
Fore
SplineSet
200 400 m 2
 1000 400 l 2
 1055 400 1100 355 1100 300 c 2
 1100 -200 l 2
 1100 -255 1055 -300 1000 -300 c 0
 945 -300 900 -255 900 -200 c 2
 900 200 l 1
 300 200 l 1
 300 -200 l 2
 300 -255 255 -300 200 -300 c 0
 145 -300 100 -255 100 -200 c 2
 100 300 l 2
 100 355 145 400 200 400 c 2
500 700 m 2
 700 700 l 2
 755 700 800 655 800 600 c 0
 800 545 755 500 700 500 c 2
 500 500 l 2
 445 500 400 545 400 600 c 0
 400 655 445 700 500 700 c 2
EndSplineSet
Validated: 1
Ligature2: "'liga' Standard-Ligaturen in Lateinisch Nachschlagetabelle 1-1" tok.sewi VS1
EndChar

StartChar: namako1
Encoding: 156 -1 156
Width: 1200
VWidth: 29200
Flags: W
HStem: -300 200<182.449 275.767> 400 200<282.853 417.147 882.853 1017.15> 500 200<582.853 717.147>
VStem: 250 200<432.853 567.147> 350 200<19.6145 267.147> 550 200<532.853 667.147> 750 200<110.785 267.147> 850 200<432.853 567.147>
LayerCount: 2
Fore
SplineSet
450 300 m 0x90
 505 300 550 255 550 200 c 0
 550 108 536 21 511 -54 c 1
 551 -39 588 -21 619 0 c 0
 708 59 750 130 750 200 c 0x8a
 750 255 795 300 850 300 c 0x81
 905 300 950 255 950 200 c 0
 950 49 858 -81 730 -166 c 0
 602 -251 434 -300 250 -300 c 0
 242 -300 234 -299 226 -297 c 0
 223 -296 220 -295 217 -294 c 0
 212 -292 207 -290 203 -288 c 0
 200 -286 198 -285 195 -283 c 0
 191 -280 187 -277 183 -274 c 0
 180 -272 178 -270 176 -267 c 0
 173 -263 170 -259 167 -255 c 0
 165 -252 164 -250 162 -247 c 0
 160 -243 158 -238 156 -233 c 0
 155 -230 154 -227 153 -224 c 0
 151 -216 150 -208 150 -200 c 0
 150 -192 151 -184 153 -176 c 0
 154 -173 155 -170 156 -167 c 0
 158 -162 160 -157 162 -153 c 0
 164 -150 165 -148 167 -145 c 0
 170 -141 173 -137 176 -133 c 0
 178 -130 180 -128 183 -126 c 0
 187 -123 191 -120 195 -117 c 0
 198 -115 200 -114 203 -112 c 0
 207 -110 212 -108 217 -106 c 0
 220 -105 223 -104 226 -103 c 0
 234 -101 242 -100 250 -100 c 0x92
 251 -100 275 -92 302 -38 c 0
 329 16 350 103 350 200 c 0x88
 350 255 395 300 450 300 c 0x90
950 600 m 0xc2
 1005 600 1050 555 1050 500 c 0xa1
 1050 445 1005 400 950 400 c 0xc2
 895 400 850 445 850 500 c 0xa1
 850 555 895 600 950 600 c 0xc2
350 600 m 0xc8
 405 600 450 555 450 500 c 0xb0
 450 445 405 400 350 400 c 0xc8
 295 400 250 445 250 500 c 0xb0
 250 555 295 600 350 600 c 0xc8
650 700 m 0
 705 700 750 655 750 600 c 0xc4
 750 545 705 500 650 500 c 0xa4
 595 500 550 545 550 600 c 0xc4
 550 655 595 700 650 700 c 0
EndSplineSet
Validated: 1
Ligature2: "'liga' Standard-Ligaturen in Lateinisch Nachschlagetabelle 1-1" tok.namako VS1
EndChar

StartChar: jasima1
Encoding: 157 -1 157
Width: 1200
VWidth: 28900
Flags: W
HStem: -0.107967 199.608<733.204 867.317> 200.5 199.608<332.683 466.796>
VStem: 100 200<32.8529 163.903> 500 200<-267.147 17 383 667.147> 900 200<236.097 367.147>
CounterMasks: 1 38
LayerCount: 2
Fore
SplineSet
600 700 m 0
 655 700 700 655 700 600 c 2
 700 300 l 2
 700 264 719 231 750 213 c 0
 765.5 204 782.75 199.5 800 199.5 c 0
 817.25 199.5 834.5 204 850 213 c 0
 881 231 900 264 900 300 c 0
 900 355 945 400 1000 400 c 0
 1055 400 1100 355 1100 300 c 0
 1100 193 1043 94 950 40 c 0
 903.337196471 13.3355408404 851.532911871 -0.107966995959 799.705946001 -0.107966995959 c 0
 766.01133858 -0.107966995959 732.307144293 5.57430262794 700 17 c 1
 700 -200 l 2
 700 -255 655 -300 600 -300 c 0
 545 -300 500 -255 500 -200 c 2
 500 100 l 2
 500 136 481 169 450 187 c 0
 434.5 196 417.25 200.5 400 200.5 c 0
 382.75 200.5 365.5 196 350 187 c 0
 319 169 300 136 300 100 c 0
 300 45 255 0 200 0 c 0
 145 0 100 45 100 100 c 0
 100 207 157 306 250 360 c 0
 296.662803529 386.66445916 348.467088129 400.107966996 400.294053999 400.107966996 c 0
 433.98866142 400.107966996 467.692855707 394.425697372 500 383 c 1
 500 600 l 2
 500 655 545 700 600 700 c 0
EndSplineSet
Validated: 1
Ligature2: "'liga' Standard-Ligaturen in Lateinisch Nachschlagetabelle 1-1" tok.jasima VS1
EndChar

StartChar: misikeke1
Encoding: 158 -1 158
Width: 1200
VWidth: 30100
Flags: W
HStem: -300.5 200<532.586 667.414> 100 200<500 700> 500 200<532.453 667.547>
VStem: 300 200<-63.9028 100 300 463.903> 700 200<-63.9028 100 300 463.903>
LayerCount: 2
Fore
SplineSet
500 100 m 1
 500 0 l 2
 500 -36 519 -69 550 -87 c 0
 565.5 -96 582.75 -100.5 600 -100.5 c 0
 617.25 -100.5 634.5 -96 650 -87 c 0
 681 -69 700 -36 700 0 c 2
 700 100 l 1
 500 100 l 1
600 500 m 0
 583 500 566 496 550 487 c 0
 519 469 500 436 500 400 c 2
 500 300 l 1
 700 300 l 1
 700 400 l 2
 700 436 681 469 650 487 c 0
 634 496 617 500 600 500 c 0
600 700 m 0
 652 700 704 687 750 660 c 0
 843 606 900 507 900 400 c 2
 900 0 l 2
 900 -107 843 -206 750 -260 c 0
 703.5 -287 651.75 -300.5 600 -300.5 c 0
 548.25 -300.5 496.5 -287 450 -260 c 0
 357 -206 300 -107 300 0 c 2
 300 400 l 2
 300 507 357 606 450 660 c 0
 496 687 548 700 600 700 c 0
EndSplineSet
Validated: 1
Ligature2: "'liga' Standard-Ligaturen in Lateinisch Nachschlagetabelle 1-1" tok.misikeke VS1
EndChar

StartChar: puwa
Encoding: 159 -1 159
Width: 1200
VWidth: -25636
Flags: W
HStem: -200 200<336.097 863.903> 400 200<532.453 667.547>
VStem: 99.5 200<32.5856 167.414> 900.5 200<32.5856 167.414>
LayerCount: 2
Fore
SplineSet
600 400 m 0
 583 400 566 396 550 387 c 0
 519 369 500 336 500 300 c 0
 500 245 455 200 400 200 c 0
 364 200 331 181 313 150 c 0
 304 134.5 299.5 117.25 299.5 100 c 0
 299.5 82.75 304 65.5 313 50 c 0
 331 19 364 0 400 0 c 2
 800 0 l 2
 836 0 869 19 887 50 c 0
 896 65.5 900.5 82.75 900.5 100 c 0
 900.5 117.25 896 134.5 887 150 c 0
 869 181 836 200 800 200 c 0
 745 200 700 245 700 300 c 0
 700 336 681 369 650 387 c 0
 634 396 617 400 600 400 c 0
600 600 m 0
 652 600 704 587 750 560 c 0
 817 521 865 459 887 387 c 0
 959 365 1021 317 1060 250 c 0
 1087 203.5 1100.5 151.75 1100.5 100 c 0
 1100.5 48.25 1087 -3.5 1060 -50 c 0
 1006 -143 907 -200 800 -200 c 2
 400 -200 l 2
 293 -200 194 -143 140 -50 c 0
 113 -3.5 99.5 48.25 99.5 100 c 0
 99.5 151.75 113 203.5 140 250 c 0
 179 317 241 365 313 387 c 0
 335 459 383 521 450 560 c 0
 496 587 548 600 600 600 c 0
EndSplineSet
Validated: 1
Ligature2: "'liga' Standard-Ligaturen in Lateinisch Nachschlagetabelle 0-1" p u w a
EndChar

StartChar: poni
Encoding: 160 -1 160
Width: 1200
VWidth: -25536
Flags: W
HStem: -300 200<732.853 867.226> 0 200<532.853 667.147>
VStem: 100 200<-267.147 399.559> 500 200<32.8529 167.147>
LayerCount: 2
Fore
SplineSet
600 200 m 0
 655 200 700 155 700 100 c 0
 700 45 655 0 600 0 c 0
 545 0 500 45 500 100 c 0
 500 155 545 200 600 200 c 0
500 700 m 0
 507 700 513 699 520 698 c 0
 522 698 524 697 526 696 c 0
 531 695 536 693 540 691 c 0
 542 690 544 689 546 688 c 0
 551 685 555 683 559 680 c 0
 560 679 562 679 563 678 c 0
 568 674 574 668 578 663 c 0
 579 662 579 660 580 659 c 0
 583 655 585 651 588 646 c 0
 589 644 590 642 591 640 c 0
 593 636 595 631 596 626 c 0
 597 624 598 622 598 620 c 0
 599 613 600 607 600 600 c 2
 600 500 l 1
 820 500 1000 320 1000 100 c 1
 1055 100 1100 55 1100 0 c 0
 1100 -164 964 -300 800 -300 c 0
 745 -300 700 -255 700 -200 c 0
 700 -145 745 -100 800 -100 c 0
 856 -100 900 -56 900 0 c 1
 845 0 800 45 800 100 c 0
 800 212 712 300 600 300 c 2
 500 300 l 2
 494 300 489 301 483 302 c 2
 481 302 l 0
 476 303 471 304 467 306 c 0
 465 307 464 307 462 308 c 0
 459 309 455 310 452 312 c 0
 450 313 448 315 446 316 c 0
 443 318 441 320 438 322 c 0
 436 323 435 325 433 326 c 0
 430 328 428 330 426 333 c 0
 425 335 423 336 422 338 c 0
 420 341 418 343 416 346 c 0
 415 348 413 350 412 352 c 0
 410 355 409 359 408 362 c 0
 407 364 407 365 406 367 c 0
 404 371 403 376 402 381 c 0
 402 383 l 2
 401 389 400 394 400 400 c 2
 400 474 l 1
 340 440 300 375 300 300 c 2
 300 -200 l 2
 300 -255 255 -300 200 -300 c 0
 145 -300 100 -255 100 -200 c 2
 100 300 l 2
 100 520 280 700 500 700 c 0
EndSplineSet
Validated: 5
Ligature2: "'liga' Standard-Ligaturen in Lateinisch Nachschlagetabelle 0-1" p o n i
EndChar

StartChar: Kita
Encoding: 161 -1 161
Width: 1200
VWidth: -25736
Flags: W
HStem: -300 200<737.483 900> -99.8672 199.367<332.61 467.138> 500 200<478.002 721.998>
VStem: 100 200<134.39 321.139> 500 200<132.683 267.889> 900 200<-100 319.523> 1098 2<-219.673 -200.327>
LayerCount: 2
Fore
SplineSet
600 500 m 0xfc
 548 500 496 487 450 460 c 0
 357 406 300 307 300 200 c 0
 300 164 319 131 350 113 c 0
 365.5 104 382.75 99.5 400 99.5 c 0
 417.25 99.5 434.5 104 450 113 c 0
 481 131 500 164 500 200 c 0
 500 207 501 213 502 220 c 0
 502 222 503 224 504 226 c 0
 505 231 507 236 509 240 c 0
 510 242 511 244 512 246 c 0
 515 251 517 255 520 259 c 0
 521 260 521 262 522 263 c 0
 526 268 532 274 537 278 c 0
 538 279 540 279 541 280 c 0
 545 283 549 286 554 288 c 0
 556 289 558 290 560 291 c 0
 564 293 569 295 574 296 c 0
 576 297 578 298 580 298 c 0
 587 299 593 300 600 300 c 0
 607 300 613 299 620 298 c 0
 622 298 624 297 626 296 c 0
 631 295 636 293 640 291 c 0
 642 290 644 289 646 288 c 0
 651 285 655 283 659 280 c 0
 660 279 662 279 663 278 c 0
 668 274 674 268 678 263 c 0
 679 262 679 260 680 259 c 0
 683 255 685 251 688 246 c 0
 689 244 690 242 691 240 c 0
 693 236 695 231 696 226 c 0
 697 224 698 222 698 220 c 0
 699 213 700 207 700 200 c 2
 700 0 l 2
 700 -56 744 -100 800 -100 c 2
 900 -100 l 1
 900 200 l 2
 900 307 843 406 750 460 c 0
 704 487 652 500 600 500 c 0xfc
600 700 m 0
 686 700 773 678 850 633 c 0
 1005 544 1100 378 1100 200 c 2xfc
 1100 -200 l 2
 1100 -207 1099 -213 1098 -220 c 0xfa
 1098 -222 1097 -224 1096 -226 c 0
 1095 -231 1093 -236 1091 -240 c 0
 1090 -242 1089 -244 1088 -246 c 0
 1085 -251 1083 -255 1080 -259 c 0
 1079 -260 1079 -262 1078 -263 c 0
 1074 -268 1068 -274 1063 -278 c 0
 1062 -279 1060 -279 1059 -280 c 0
 1055 -283 1051 -286 1046 -288 c 0
 1044 -289 1042 -290 1040 -291 c 0
 1036 -293 1031 -295 1026 -296 c 0
 1024 -297 1022 -298 1020 -298 c 0
 1013 -299 1007 -300 1000 -300 c 2
 800 -300 l 2
 663 -300 546 -206 511 -79 c 1
 475.652238136 -92.8866207322 438.002458771 -99.8671889584 400.286133509 -99.8671889584 c 0
 348.373832942 -99.8671889584 296.335464892 -86.6428923127 250 -60 c 0
 157 -6 100 93 100 200 c 0
 100 379 195 544 350 633 c 0
 427 678 514 700 600 700 c 0
EndSplineSet
Validated: 1
Ligature2: "'liga' Standard-Ligaturen in Lateinisch Nachschlagetabelle 0-1" K i t a
Ligature2: "'liga' Standard-Ligaturen in Lateinisch Nachschlagetabelle 0-1" K I T A
Ligature2: "'liga' Standard-Ligaturen in Lateinisch Nachschlagetabelle 0-1" k i t a
EndChar

StartChar: puwa1
Encoding: 162 -1 162
Width: 1200
VWidth: -26036
Flags: W
HStem: -200 200<336.097 862.249> 400 200<632.604 766.25>
VStem: 99.5 200<32.5856 167.414> 900.459 199.322<33.4586 165.139>
LayerCount: 2
Fore
SplineSet
699 400 m 0
 683 400 668 397 654 389 c 0
 621 372 600 337 600 300 c 0
 600 293 599 287 598 280 c 0
 598 279 597 276 597 275 c 0
 596 269 593 264 591 259 c 0
 591 258 590 257 590 256 c 0
 587 250 583 244 579 239 c 0
 578 238 577 237 576 236 c 0
 572 232 568 228 564 224 c 0
 563 223 562 222 561 221 c 0
 556 217 550 213 544 210 c 0
 543 210 542 209 541 209 c 0
 536 207 531 204 525 203 c 0
 524 203 521 202 520 202 c 0
 513 201 507 200 500 200 c 2
 400 200 l 2
 364 200 331 181 313 150 c 0
 304 134.5 299.5 117.25 299.5 100 c 0
 299.5 82.75 304 65.5 313 50 c 0
 331 19 364 0 400 0 c 2
 800 0 l 2
 846 0 885 31 897 75 c 0
 899.335206052 83.5624221893 900.458592702 92.1627137348 900.458592702 100.631378533 c 0
 900.458592702 135.680919549 881.215979828 168.475811599 849 187 c 0
 828 199 812 219 804 242 c 0
 804 244 803 245 803 247 c 0
 802 252 801 258 800 263 c 0
 800 267 799 271 799 275 c 0
 799 278 799 280 799 283 c 0
 799 285 799 286 799 288 c 0
 799.605720889 292.482334582 799.90324763 296.949993251 799.90324763 301.378085391 c 0
 799.90324763 333.50224213 784.244530486 363.544027736 757 382 c 0
 740 394 719 400 699 400 c 0
698 600 m 0
 759 600 819 583 871 547 c 0
 946 495 992 413 999 325 c 0
 1063.11403883 267.838085863 1099.78025376 185.615115121 1099.78025376 99.9943066919 c 0
 1099.78025376 74.7731337174 1096.59870932 49.2571287946 1090 24 c 0
 1055 -107 936 -200 800 -200 c 2
 400 -200 l 2
 293 -200 194 -143 140 -50 c 0
 113 -3.5 99.5 48.25 99.5 100 c 0
 99.5 151.75 113 203.5 140 250 c 0
 194 343 293 400 400 400 c 2
 417 400 l 2
 442 470 493 530 561 566 c 0
 604 589 651 600 698 600 c 0
EndSplineSet
Validated: 1
Ligature2: "'liga' Standard-Ligaturen in Lateinisch Nachschlagetabelle 1-1" puwa VS1
EndChar

StartChar: ojuta
Encoding: 163 -1 163
Width: 1200
VWidth: -25536
Flags: W
HStem: -300 200<532.615 667.385> 500 200<327 500 700 873>
VStem: 100 1000<501.569 667.147> 300 200<-67.385 67.1089> 500 200<317 500> 700 200<-67.385 67.1089>
LayerCount: 2
Fore
SplineSet
600 100 m 0xd4
 544 100 500 56 500 0 c 0
 500 -56 544 -100 600 -100 c 0
 656 -100 700 -56 700 0 c 0
 700 56 656 100 600 100 c 0xd4
700 500 m 1xc8
 700 317 l 1
 717 323 734 331 750 340 c 0
 812 376 849 435 873 500 c 1
 700 500 l 1xc8
327 500 m 1
 351 435 388 376 450 340 c 0
 466 331 483 323 500 317 c 1
 500 500 l 1
 327 500 l 1
200 700 m 2
 1000 700 l 2
 1055 700 1100 655 1100 600 c 0xe0
 1100 422 1005 256 850 167 c 0
 849 166 l 1
 881 118 900 61 900 0 c 0
 900 -164 764 -300 600 -300 c 0
 436 -300 300 -164 300 0 c 0xd4
 300 61 319 118 351 166 c 1
 350 167 l 0
 195 256 100 421 100 600 c 0xe0
 100 655 145 700 200 700 c 2
EndSplineSet
Validated: 1
Ligature2: "'liga' Standard-Ligaturen in Lateinisch Nachschlagetabelle 0-1" o j u t a
EndChar

StartChar: SonaPona
Encoding: 164 -1 164
Width: 1200
VWidth: -25536
Flags: W
HStem: -100.5 0.5<548.25 651.75> 200 200<500 700> 500 200<232.853 367.147 532.853 667.147 832.853 967.147>
VStem: 100 200<-100 200> 200 200<532.853 667.147> 500 200<532.853 667.147> 800 200<532.853 667.147> 900 200<-100 200>
LayerCount: 2
Fore
SplineSet
500 200 m 1xe4
 500 164 519 131 550 113 c 0
 565.5 104 582.75 99.5 600 99.5 c 0
 617.25 99.5 634.5 104 650 113 c 0
 681 131 700 164 700 200 c 1
 500 200 l 1xe4
300 200 m 1xf5
 300 -100 l 1
 900 -100 l 1
 900 200 l 1
 900 93 843 -6 750 -60 c 0
 703.5 -87 651.75 -100.5 600 -100.5 c 0
 548.25 -100.5 496.5 -87 450 -60 c 0
 357 -6 300 93 300 200 c 1xf5
200 400 m 2xec
 1000 400 l 2xee
 1055 400 1100 355 1100 300 c 2
 1100 -200 l 2xe5
 1100 -255 1055 -300 1000 -300 c 2
 200 -300 l 2xee
 145 -300 100 -255 100 -200 c 2
 100 300 l 2xf4
 100 355 145 400 200 400 c 2xec
900 700 m 0xe5
 955 700 1000 655 1000 600 c 0xe6
 1000 545 955 500 900 500 c 0xe5
 845 500 800 545 800 600 c 0xe6
 800 655 845 700 900 700 c 0xe5
600 700 m 0
 655 700 700 655 700 600 c 0
 700 545 655 500 600 500 c 0
 545 500 500 545 500 600 c 0
 500 655 545 700 600 700 c 0
300 700 m 0xf4
 355 700 400 655 400 600 c 0xec
 400 545 355 500 300 500 c 0xf4
 245 500 200 545 200 600 c 0xec
 200 655 245 700 300 700 c 0xf4
EndSplineSet
Validated: 5
Ligature2: "'liga' Standard-Ligaturen in Lateinisch Nachschlagetabelle 0-1" S O N A P O N A
Ligature2: "'liga' Standard-Ligaturen in Lateinisch Nachschlagetabelle 0-1" S o n a P o n a
Ligature2: "'liga' Standard-Ligaturen in Lateinisch Nachschlagetabelle 0-1" S o n a p o n a
Ligature2: "'liga' Standard-Ligaturen in Lateinisch Nachschlagetabelle 0-1" s o n a p o n a
EndChar

StartChar: NameMe.165
Encoding: 165 -1 165
Width: 1200
VWidth: -16136
Flags: W
HStem: 500 200<132.853 358 641 758>
VStem: 100 200<42 159>
LayerCount: 2
Fore
SplineSet
200 700 m 2
 600 700 l 1
 1000 700 l 2
 1060.29933378 700 1100.40116411 650.42430973 1100.40116411 598.856710661 c 0
 1100.40116411 574.312087097 1091.31620193 549.316201933 1071 529 c 2
 700 159 l 1
 700 42 l 1
 929 271 l 2
 948.5 290.5 974.25 300.25 1000 300.25 c 0
 1025.75 300.25 1051.5 290.5 1071 271 c 0
 1090.5 251.5 1100.25 225.75 1100.25 200 c 0
 1100.25 174.25 1090.5 148.5 1071 129 c 2
 671 -271 l 2
 650.683798067 -291.316201933 625.687912903 -300.401164111 601.143289339 -300.401164111 c 0
 549.57569027 -300.401164111 500 -260.299333777 500 -200 c 2
 500 -41 l 1
 271 -271 l 2
 250.683798067 -291.316201933 225.687912903 -300.401164111 201.143289339 -300.401164111 c 0
 149.57569027 -300.401164111 100 -260.299333777 100 -200 c 2
 100 200 l 2
 100 227 110 252 129 271 c 2
 358 500 l 1
 200 500 l 2
 145 500 100 545 100 600 c 0
 100 655 145 700 200 700 c 2
641 500 m 1
 300 159 l 1
 300 42 l 1
 758 500 l 1
 641 500 l 1
EndSplineSet
Validated: 1
EndChar

StartChar: NameMe.166
Encoding: 166 -1 166
Width: 1200
VWidth: -15936
Flags: W
HStem: -300 200<132.853 318.469 881.531 1067.15> 500.5 199.5<479.239 720.761>
VStem: 100 200<132.853 319.523> 500 200<75.9741 266.895> 900 200<132.853 319.523>
CounterMasks: 1 38
LayerCount: 2
Fore
SplineSet
600 300 m 0
 655 300 700 255 700 200 c 0
 700 33 833 -100 1000 -100 c 0
 1055 -100 1100 -145 1100 -200 c 0
 1100 -255 1055 -300 1000 -300 c 0
 837 -300 691 -221 600 -99 c 1
 509 -221 363 -300 200 -300 c 0
 145 -300 100 -255 100 -200 c 0
 100 -145 145 -100 200 -100 c 0
 367 -100 500 33 500 200 c 0
 500 208 501 215 503 222 c 0
 513 268 553 300 600 300 c 0
600 700 m 0
 686 700 773 678 850 633 c 0
 1005 544 1100 379 1100 200 c 0
 1100 145 1055 100 1000 100 c 0
 945 100 900 145 900 200 c 0
 900 307 843 406 750 460 c 0
 703.5 487 651.75 500.5 600 500.5 c 0
 548.25 500.5 496.5 487 450 460 c 0
 357 406 300 307 300 200 c 0
 300 145 255 100 200 100 c 0
 145 100 100 145 100 200 c 0
 100 379 195 544 350 633 c 0
 427 678 514 700 600 700 c 0
EndSplineSet
Validated: 1
EndChar

StartChar: NameMe.167
Encoding: 167 -1 167
Width: 1200
VWidth: -16136
Flags: W
HStem: -300 200<487.437 900>
VStem: 100 200<87.4373 358> 900 200<-100 358>
LayerCount: 2
Fore
SplineSet
300 358 m 1
 300 200 l 2
 300 33 433 -100 600 -100 c 2
 900 -100 l 1
 900 358 l 1
 671 129 l 2
 651.5 109.5 625.75 99.75 600 99.75 c 0
 574.25 99.75 548.5 109.5 529 129 c 2
 300 358 l 1
190 700 m 0
 193.265050253 700.326505025 196.530100506 700.487179224 199.783548345 700.487179224 c 0
 226.423494975 700.487179224 252.285535177 689.714464823 271 671 c 2
 600 341 l 1
 929 671 l 2
 949.316201933 691.316201933 974.312087097 700.401164111 998.856710661 700.401164111 c 0
 1050.42430973 700.401164111 1100 660.299333777 1100 600 c 2
 1100 -200 l 2
 1100 -255 1055 -300 1000 -300 c 2
 600 -300 l 2
 325 -300 100 -75 100 200 c 2
 100 600 l 2
 100 640 125 676 162 692 c 0
 171 696 180 699 190 700 c 0
EndSplineSet
Validated: 1
EndChar

StartChar: NameMe.168
Encoding: 168 -1 168
Width: 1200
VWidth: -15936
Flags: W
HStem: -100 200<336.097 467.147 732.774 863.903> 300 200<336.097 467.226 732.853 863.903>
VStem: 99.5 200<132.586 267.414> 500 200<-267.147 -132.774 532.774 667.147> 900.5 200<132.586 267.414>
CounterMasks: 1 38
LayerCount: 2
Fore
SplineSet
800 500 m 0
 907 500 1006 443 1060 350 c 0
 1087 303.5 1100.5 251.75 1100.5 200 c 0
 1100.5 148.25 1087 96.5 1060 50 c 0
 1006 -43 907 -100 800 -100 c 0
 744 -100 700 -144 700 -200 c 0
 700 -255 655 -300 600 -300 c 0
 545 -300 500 -255 500 -200 c 0
 500 -36 636 100 800 100 c 0
 836 100 869 119 887 150 c 0
 896 165.5 900.5 182.75 900.5 200 c 0
 900.5 217.25 896 234.5 887 250 c 0
 869 281 836 300 800 300 c 0
 745 300 700 345 700 400 c 0
 700 455 745 500 800 500 c 0
600 700 m 0
 655 700 700 655 700 600 c 0
 700 436 564 300 400 300 c 0
 364 300 331 281 313 250 c 0
 304 234.5 299.5 217.25 299.5 200 c 0
 299.5 182.75 304 165.5 313 150 c 0
 331 119 364 100 400 100 c 0
 455 100 500 55 500 0 c 0
 500 -55 455 -100 400 -100 c 0
 293 -100 194 -43 140 50 c 0
 113 96.5 99.5 148.25 99.5 200 c 0
 99.5 251.75 113 303.5 140 350 c 0
 194 443 293 500 400 500 c 0
 456 500 500 544 500 600 c 0
 500 655 545 700 600 700 c 0
EndSplineSet
Validated: 1
EndChar

StartChar: NameMe.169
Encoding: 169 -1 169
Width: 1200
VWidth: -16536
Flags: W
HStem: -300 200<300 758> 501 198.016<477.86 719.052>
VStem: 100 200<-100 359> 900.506 198.758<78.6865 320.571>
LayerCount: 2
Fore
SplineSet
300 359 m 1
 300 -100 l 1
 758 -100 l 1
 300 359 l 1
599 501 m 0
 555 501 511 491 470 471 c 1
 871 71 l 1
 890.654367597 112.128584045 900.50565966 156.43654394 900.50565966 200.645155706 c 0
 900.50565966 277.898861343 870.42287182 354.849188639 810 414 c 0
 751 472 675 501 599 501 c 0
190 700 m 0
 193.265050253 700.326505025 196.530100506 700.487179224 199.783548345 700.487179224 c 0
 226.423494975 700.487179224 252.285535177 689.714464823 271 671 c 2
 324 617 l 1
 407 671 502 699 598 699 c 0
 599.322773152 699.010415537 600.645654788 699.01562387 601.968608749 699.01562387 c 0
 727.663014392 699.01562387 854.010307053 652.000108483 950 557 c 0
 1049.38271965 459.340680108 1099.26366027 329.34019791 1099.26366027 199.416868024 c 0
 1099.26366027 103.176774847 1071.8938102 6.97901541835 1017 -76 c 2
 1071 -129 l 2
 1091.31620193 -149.316201933 1100.40116411 -174.312087097 1100.40116411 -198.856710661 c 0
 1100.40116411 -250.42430973 1060.29933378 -300 1000 -300 c 2
 200 -300 l 2
 145 -300 100 -255 100 -200 c 2
 100 600 l 2
 100 640 125 676 162 692 c 0
 171 696 180 699 190 700 c 0
EndSplineSet
Validated: 5
EndChar

StartChar: NameMe.170
Encoding: 170 -1 170
Width: 1200
VWidth: -16036
Flags: W
LayerCount: 2
Fore
SplineSet
597 88 m 1
 420 0 l 1
 597 -88 l 1
 773 0 l 1
 597 88 l 1
597 488 m 1
 420 400 l 1
 597 312 l 1
 773 400 l 1
 597 488 l 1
597 700 m 0
 613 700 627 696 641 689 c 2
 1041 489 l 2
 1078 470.5 1096.5 435.25 1096.5 400 c 0
 1096.5 364.75 1078 329.5 1041 311 c 2
 820 200 l 1
 1041 89 l 2
 1078 70.5 1096.5 35.25 1096.5 0 c 0
 1096.5 -35.25 1078 -70.5 1041 -89 c 2
 641 -289 l 2
 627 -296 611.75 -299.5 596.5 -299.5 c 0
 581.25 -299.5 566 -296 552 -289 c 2
 152 -89 l 2
 136 -79 123 -64 115 -47 c 0
 112 -46 110 -46 107 -45 c 0
 107 -43 107 -39 107 -37 c 0
 104 -25 103 -12 104 0 c 0
 103 12 104 25 107 37 c 0
 107 39 107 43 107 45 c 0
 110 46 112 46 115 47 c 0
 123 64 136 79 152 89 c 2
 373 200 l 1
 152 311 l 2
 136 321 123 336 115 353 c 0
 112 354 110 354 107 355 c 0
 107 357 107 361 107 363 c 0
 104 375 103 388 104 400 c 0
 103 412 104 425 107 437 c 0
 107 439 107 443 107 445 c 0
 110 446 112 446 115 447 c 0
 123 464 136 479 152 489 c 2
 552 689 l 2
 566 696 581 700 597 700 c 0
EndSplineSet
Validated: 1
EndChar

StartChar: NameMe.171
Encoding: 171 -1 171
Width: 1200
VWidth: -16236
Flags: W
HStem: -300 200<441 759>
LayerCount: 2
Fore
SplineSet
600 59 m 1
 441 -100 l 1
 759 -100 l 1
 600 59 l 1
184 699 m 0
 189.393947222 699.842804253 194.787894444 700.259417101 200.138738155 700.259417101 c 0
 226.532179601 700.259417101 251.876899566 690.123100434 271 671 c 2
 600 341 l 1
 929 671 l 2
 948.5 690.5 974.25 700.25 1000 700.25 c 0
 1025.75 700.25 1051.5 690.5 1071 671 c 0
 1090.5 651.5 1100.25 625.75 1100.25 600 c 0
 1100.25 574.25 1090.5 548.5 1071 529 c 2
 741 200 l 1
 971 -29 l 2
 990.5 -48.5 1000.25 -74.25 1000.25 -100 c 0
 1000.25 -125.75 990.5 -151.5 971 -171 c 2
 871 -271 l 2
 852 -290 827 -300 800 -300 c 2
 400 -300 l 2
 373 -300 348 -290 329 -271 c 2
 229 -171 l 2
 209.5 -151.5 199.75 -125.75 199.75 -100 c 0
 199.75 -74.25 209.5 -48.5 229 -29 c 2
 459 200 l 1
 129 529 l 2
 109.5 548.5 99.75 574.25 99.75 600 c 0
 99.75 625.75 109.5 651.5 129 671 c 0
 144 686 163 696 184 699 c 0
EndSplineSet
Validated: 1
EndChar

StartChar: NameMe.172
Encoding: 172 -1 172
Width: 1200
VWidth: -15936
Flags: W
HStem: -300 400<333.33 466.96> -99.5931 199.478<733.237 867.169> 300 400<733.04 866.67> 300.115 199.478<332.831 466.763>
VStem: 100.296 199.59<133.167 266.153> 300 200<-267.147 -71.713> 500 200<133.447 266.553> 700 200<471.713 667.147> 900.115 199.59<133.847 266.833>
LayerCount: 2
Fore
SplineSet
800 700 m 0x2980
 855 700 900 655 900 600 c 2
 900 482 l 2
 979 454 1044 395 1077 315 c 0
 1092.25780883 277.850552404 1099.704251 238.830777579 1099.704251 200.13022248 c 0
 1099.704251 122.154421628 1069.47453131 45.4745313102 1012 -12 c 0
 969 -55 916 -83 859 -94 c 0
 839.810037985 -97.7033260029 820.166699987 -99.5931480741 800.413417633 -99.5931480741 c 0x6980
 761.493467946 -99.5931480741 722.146703985 -92.2566819939 685 -77 c 0
 573 -31 500 79 500 200 c 0
 500 241 476 276 438 292 c 0
 425.057840758 297.449330207 411.65169402 300.114735442 398.453171635 300.114735442 c 0
 372.898975772 300.114735442 348.123088999 290.123088999 329 271 c 0
 309.876911001 251.876911001 299.885264558 227.101024228 299.885264558 201.546828365 c 0
 299.885264558 188.34830598 302.550669793 174.942159242 308 162 c 0
 324 124 359 100 400 100 c 0
 407 100 415 99 422 97 c 0
 425 96 427 96 429 95 c 0
 443 91 457 83 468 73 c 0
 470 72 472 70 473 68 c 0
 483 57 491 43 495 29 c 0
 496 27 496 25 497 22 c 0
 499 15 500 7 500 0 c 2x9a80
 500 -200 l 2
 500 -255 455 -300 400 -300 c 0
 345 -300 300 -255 300 -200 c 2
 300 -82 l 2x9c80
 221 -54 156 5 123 85 c 0
 107.742191166 122.149447596 100.295748995 161.169222421 100.295748995 199.86977752 c 0
 100.295748995 277.845578372 130.52546869 354.52546869 188 412 c 0
 231 455 284 483 341 494 c 0
 360.189962015 497.703326003 379.833300013 499.593148074 399.586582367 499.593148074 c 0
 438.506532054 499.593148074 477.853296015 492.256681994 515 477 c 0
 627 431 700 321 700 200 c 0x9a80
 700 159 724 124 762 108 c 0
 774.942159242 102.550669793 788.34830598 99.8852645582 801.546828365 99.8852645582 c 0
 827.101024228 99.8852645582 851.876911001 109.876911001 871 129 c 0
 890.123088999 148.123088999 900.114735442 172.898975772 900.114735442 198.453171635 c 0
 900.114735442 211.65169402 897.449330207 225.057840758 892 238 c 0
 876 276 841 300 800 300 c 0
 793 300 785 301 778 303 c 0
 775 304 773 304 771 305 c 0
 757 309 743 317 732 327 c 0
 730 328 728 330 727 332 c 0
 717 343 709 357 705 371 c 0
 704 373 704 375 703 378 c 0
 701 385 700 393 700 400 c 2
 700 600 l 2
 700 655 745 700 800 700 c 0x2980
EndSplineSet
Validated: 1
EndChar

StartChar: NameMe.173
Encoding: 173 -1 173
Width: 1200
VWidth: -15936
Flags: W
HStem: -300 200<132.853 299.661 900.339 1067.15> 100 200<300 400 800 900> 400 200<432.853 767.147>
VStem: 100 200<300 667.147> 400 400<432.853 567.147> 900 200<300 667.147>
CounterMasks: 1 1c
LayerCount: 2
Fore
SplineSet
500 600 m 2
 700 600 l 2
 755 600 800 555 800 500 c 0
 800 445 755 400 700 400 c 2
 500 400 l 2
 445 400 400 445 400 500 c 0
 400 555 445 600 500 600 c 2
200 700 m 0
 255 700 300 655 300 600 c 2
 300 300 l 1
 900 300 l 1
 900 600 l 2
 900 655 945 700 1000 700 c 0
 1055 700 1100 655 1100 600 c 2
 1100 200 l 2
 1100 145 1055 100 1000 100 c 2
 800 100 l 1
 800 -12 888 -100 1000 -100 c 0
 1055 -100 1100 -145 1100 -200 c 0
 1100 -255 1055 -300 1000 -300 c 0
 780 -300 600 -120 600 100 c 1
 600 -120 420 -300 200 -300 c 0
 145 -300 100 -255 100 -200 c 0
 100 -145 145 -100 200 -100 c 0
 312 -100 400 -12 400 100 c 1
 200 100 l 2
 145 100 100 145 100 200 c 2
 100 600 l 2
 100 655 145 700 200 700 c 0
EndSplineSet
Validated: 1
EndChar

